<?xml version="1.0" standalone="no"?>
<!DOCTYPE svg PUBLIC "-//W3C//DTD SVG 1.1//EN" "http://www.w3.org/Graphics/SVG/1.1/DTD/svg11.dtd" >
<svg>
<metadata>
Created by FontForge 20090914 at Mon Jun  1 16:23:46 2020
 By www-data
Copyright (C) 2000, 2007 Hoefler &#38; Frere-Jones. http://www.typography.com
</metadata>
<defs>
<font id="Gotham-Medium" horiz-adv-x="500" >
  <font-face 
    font-family="Gotham Medium"
    font-weight="350"
    font-stretch="normal"
    units-per-em="1000"
    panose-1="2 0 6 4 3 0 0 2 0 4"
    ascent="800"
    descent="-200"
    x-height="528"
    cap-height="700"
    bbox="-48 -275 1180 1008"
    underline-thickness="20"
    underline-position="-133"
    unicode-range="U+0020-U+FB04"
  />
<missing-glyph 
d="M0 -200v1000h500v-1000h-500zM71 750l179 -390l179 390h-358zM50 -76l172 376l-172 376v-752zM450 676l-172 -376l172 -376v752zM250 240l-179 -390h358z" />
    <glyph glyph-name="f_f" unicode="ff" horiz-adv-x="752" 
d="M479 0v423.999h-67v101h67v38c0 58.667 14.333 102.334 43 131.001c28 28 67.333 42 118 42c34.667 0 67.667 -4.66699 99 -14v-102c-26 8.66699 -49.667 13 -71 13c-46.667 0 -70 -26.667 -70 -80v-29h140v-100h-138v-424h-121zM103 -0.000976562v423.999h-67v101h67v38
c0 58.667 14.333 102.334 43 131.001c28 28 67.667 42 119 42c34 0 66.667 -4.66699 98 -14v-102c-26 8.66699 -49.667 13 -71 13c-46.667 0 -70 -26.667 -70 -80v-29h140v-100h-138v-424h-121z" />
    <glyph glyph-name="fi" unicode="fi" horiz-adv-x="662" 
d="M454 609v115h130v-115h-130zM103 0v423.999h-67v101h67v38c0 58.667 14.333 102.334 43 131.001c28 28 67.667 42 119 42c34 0 66.667 -4.66699 98 -14v-102c-26 8.66699 -49.667 13 -71 13c-46.667 0 -70 -26.667 -70 -80v-29h140v-100h-138v-424h-121z
M459 -0.000976562v528h121v-528h-121z" />
    <glyph glyph-name="fl" unicode="fl" horiz-adv-x="662" 
d="M103 0v423.999h-67v101h67v38c0 58.667 14.333 102.334 43 131.001c28 28 67.667 42 119 42c34 0 66.667 -4.66699 98 -14v-102c-26 8.66699 -49.667 13 -71 13c-46.667 0 -70 -26.667 -70 -80v-29h140v-100h-138v-424h-121zM459 -0.000976562v730h121v-730h-121z" />
    <glyph glyph-name="f_f_i" unicode="ffi" horiz-adv-x="1038" 
d="M830 609v115h130v-115h-130zM479 0v423.999h-67v101h67v38c0 58.667 14.333 102.334 43 131.001c28 28 67.333 42 118 42c34.667 0 67.667 -4.66699 99 -14v-102c-26 8.66699 -49.667 13 -71 13c-46.667 0 -70 -26.667 -70 -80v-29h140v-100h-138v-424h-121z
M103 -0.000976562v423.999h-67v101h67v38c0 58.667 14.333 102.334 43 131.001c28 28 67.667 42 119 42c34 0 66.667 -4.66699 98 -14v-102c-26 8.66699 -49.667 13 -71 13c-46.667 0 -70 -26.667 -70 -80v-29h140v-100h-138v-424h-121zM834 -0.00195312v528h122v-528h-122z
" />
    <glyph glyph-name="f_f_l" unicode="ffl" horiz-adv-x="1038" 
d="M479 0v423.999h-67v101h67v38c0 58.667 14.333 102.334 43 131.001c28 28 67.333 42 118 42c34.667 0 67.667 -4.66699 99 -14v-102c-26 8.66699 -49.667 13 -71 13c-46.667 0 -70 -26.667 -70 -80v-29h140v-100h-138v-424h-121zM103 -0.000976562v423.999h-67v101h67v38
c0 58.667 14.333 102.334 43 131.001c28 28 67.667 42 119 42c34 0 66.667 -4.66699 98 -14v-102c-26 8.66699 -49.667 13 -71 13c-46.667 0 -70 -26.667 -70 -80v-29h140v-100h-138v-424h-121zM834 -0.00195312v730h122v-730h-122z" />
    <glyph glyph-name=".notdef" 
d="M0 -200v1000h500v-1000h-500zM71 750l179 -390l179 390h-358zM50 -76l172 376l-172 376v-752zM450 676l-172 -376l172 -376v752zM250 240l-179 -390h358z" />
    <glyph glyph-name="space" unicode=" " horiz-adv-x="300" 
 />
    <glyph glyph-name="exclam" unicode="!" horiz-adv-x="302" 
d="M118 221l-38 444v35h142v-35l-37 -444h-67zM85 0v137h133v-137h-133z" />
    <glyph glyph-name="quotedbl" unicode="&#x22;" horiz-adv-x="487" 
d="M279 401l24 299h137v-5l-98 -294h-63zM60 401l23 299h137v-5l-97 -294h-63z" />
    <glyph glyph-name="numbersign" unicode="#" horiz-adv-x="700" 
d="M101 0l28 161h-90v104h108l29 174h-100v104h118l27 157h107l-27 -157h164l26 157h107l-27 -157h89v-104h-107l-29 -174h100v-104h-118l-28 -161h-107l28 161h-164l-27 -161h-107zM253 265h164l30 174h-164z" />
    <glyph glyph-name="dollar" unicode="$" horiz-adv-x="642" 
d="M285 -98v100.002c-86.667 10 -165.334 43 -236.001 99l64 91c60 -48.667 118.667 -77.334 176 -86.001v196c-74.667 19.333 -129 44.666 -163 75.999s-51 74.333 -51 129v2c0 53.333 19.167 97.166 57.5 131.499s89.166 54.166 152.499 59.499v58h87v-60
c68.667 -8.66699 131.334 -34 188.001 -76l-56 -94c-43.333 32.667 -88.666 54 -135.999 64v-190c76 -19.333 131.167 -45.166 165.5 -77.499s51.5 -75.166 51.5 -128.499v-2c0 -54 -19.5 -98.333 -58.5 -133s-90.5 -54.667 -154.5 -60v-99h-87zM289 423.002v176
c-30.667 -2.66699 -54.334 -11.5 -71.001 -26.5s-25 -33.833 -25 -56.5v-2c0 -22 6.83301 -40 20.5 -54s38.834 -26.333 75.501 -37zM368 102.002c31.333 2.66699 55.666 11.501 72.999 26.501s26 34.5 26 58.5v2c0 22.667 -7.16699 41.167 -21.5 55.5
s-40.166 27.166 -77.499 38.499v-181z" />
    <glyph glyph-name="percent" unicode="%" horiz-adv-x="849" 
d="M212 350c-48 0 -87.333 17.167 -118 51.5s-46 76.166 -46 125.499v2c0 49.333 15.5 91.5 46.5 126.5s70.833 52.5 119.5 52.5c48 0 87.333 -17.167 118 -51.5s46 -76.166 46 -125.499v-2c0 -49.333 -15.5 -91.5 -46.5 -126.5s-70.833 -52.5 -119.5 -52.5zM119 0l512 700
h99l-512 -700h-99zM635 -8c-48 0 -87.333 17.167 -118 51.5s-46 76.166 -46 125.499v2c0 49.333 15.5 91.5 46.5 126.5s70.833 52.5 119.5 52.5c48 0 87.333 -17.167 118 -51.5s46 -76.166 46 -125.499v-2c0 -49.333 -15.5 -91.5 -46.5 -126.5s-70.833 -52.5 -119.5 -52.5z
M214 427c22.667 0 40.834 9.66699 54.501 29s20.5 43 20.5 71v2c0 28.667 -7.33301 52.834 -22 72.501s-33 29.5 -55 29.5c-22.667 0 -40.834 -9.66699 -54.501 -29s-20.5 -43 -20.5 -71v-2c0 -28.667 7.33301 -52.834 22 -72.501s33 -29.5 55 -29.5zM637 69
c22.667 0 40.834 9.66699 54.501 29s20.5 43 20.5 71v2c0 28.667 -7.33301 52.834 -22 72.501s-33 29.5 -55 29.5c-22.667 0 -40.834 -9.66699 -54.501 -29s-20.5 -43 -20.5 -71v-2c0 -28.667 7.33301 -52.834 22 -72.501s33 -29.5 55 -29.5z" />
    <glyph glyph-name="ampersand" unicode="&#x26;" horiz-adv-x="696" 
d="M575 -14l-93.002 95.001c-65.333 -60.667 -137 -91 -215 -91c-66 0 -120.5 18.333 -163.5 55s-64.5 85 -64.5 145v2c0 88 49.667 153.333 149 196c-38.667 49.333 -58 98 -58 146v2c0 48.667 18.333 90.167 55 124.5s85.334 51.5 146.001 51.5
c54.667 0 99.334 -16.167 134.001 -48.5s52 -72.5 52 -120.5v-2c0 -82.667 -51.333 -143.334 -154 -182.001l120 -122c25.333 38 50.333 83 75 135l93 -49c-32 -64 -63.667 -117.333 -95 -160l110 -112zM297.998 425.001c73.333 26.667 110 63.002 110 109.002v2
c0 23.333 -7.5 42.333 -22.5 57s-34.167 22 -57.5 22c-24.667 0 -44.667 -7.83301 -60 -23.5s-23 -35.834 -23 -60.501v-2c0 -30.667 17.667 -65.334 53 -104.001zM279.998 92.0029c45.333 0 89.333 20.333 132 61l-156 159c-62 -26.667 -93 -65.334 -93 -116.001v-2
c0 -29.333 11 -53.666 33 -72.999s50 -29 84 -29z" />
    <glyph glyph-name="quotesingle" unicode="'" horiz-adv-x="269" 
d="M60 401l23 299h139v-5l-98 -294h-64z" />
    <glyph glyph-name="parenleft" unicode="(" horiz-adv-x="440" 
d="M340 -141c-184.667 101.333 -277 243.996 -277 427.996s92.333 326.667 277 428l53 -81c-72 -47.333 -124.833 -98.666 -158.5 -153.999s-50.5 -119.666 -50.5 -192.999s16.833 -137.666 50.5 -192.999s86.5 -106.666 158.5 -153.999z" />
    <glyph glyph-name="parenright" unicode=")" horiz-adv-x="440" 
d="M101 -141l-53 81.0039c72 47.333 124.833 98.666 158.5 153.999s50.5 119.666 50.5 192.999s-16.833 137.666 -50.5 192.999s-86.5 106.666 -158.5 153.999l53 81c184.667 -102 277 -244.667 277 -428s-92.333 -326 -277 -428z" />
    <glyph glyph-name="asterisk" unicode="*" horiz-adv-x="430" 
d="M180 382l14 122l-100 -73l-36 61l114 50l-114 50l36 61l100 -73l-14 122h70l-14 -122l100 73l36 -61l-114 -50l114 -50l-36 -61l-100 73l14 -122h-70z" />
    <glyph glyph-name="plus" unicode="+" horiz-adv-x="634" 
d="M260 106v191h-192v111h192v190h114v-190h192v-111h-192v-191h-114z" />
    <glyph glyph-name="comma" unicode="," horiz-adv-x="269" 
d="M47 -145l-12.999 51c61.333 12 89.666 43.333 84.999 94h-51v137h133v-116c0 -54 -12.667 -94.167 -38 -120.5s-64 -41.5 -116 -45.5z" />
    <glyph glyph-name="hyphen" unicode="-" horiz-adv-x="408" 
d="M56 247v119h296v-119h-296z" />
    <glyph glyph-name="period" unicode="." horiz-adv-x="269" 
d="M68 0v137h133v-137h-133z" />
    <glyph glyph-name="slash" unicode="/" horiz-adv-x="521" 
d="M-25 -128l452 926h105l-452 -926h-105z" />
    <glyph glyph-name="zero" unicode="0" horiz-adv-x="724" 
d="M361 -12c-90 0 -163.167 34.5 -219.5 103.5s-84.5 154.5 -84.5 256.5v2c0 102 28.5 187.833 85.5 257.5s130.5 104.5 220.5 104.5s163.167 -34.5 219.5 -103.5s84.5 -154.5 84.5 -256.5v-2c0 -102 -28.5 -187.833 -85.5 -257.5s-130.5 -104.5 -220.5 -104.5zM363 99
c53.333 0 96.168 23.8311 128.501 71.498s48.5 106.834 48.5 177.501v2c0 70.667 -16.667 130.167 -50 178.5s-76.333 72.5 -129 72.5s-95.334 -23.667 -128.001 -71s-49 -106.666 -49 -177.999v-2c0 -70.667 16.5 -130.167 49.5 -178.5s76.167 -72.5 129.5 -72.5z" />
    <glyph glyph-name="one" unicode="1" horiz-adv-x="396" 
d="M178 0v580l-126 -35l-26 100l188 60h86v-705h-122z" />
    <glyph glyph-name="two" unicode="2" horiz-adv-x="613" 
d="M49 0v97l241 205c49.333 41.333 83.5 75.5 102.5 102.5s28.5 55.833 28.5 86.5c0 33.333 -10.667 59.833 -32 79.5s-48.333 29.5 -81 29.5c-30.667 0 -58.167 -8.33301 -82.5 -25s-50.833 -43.334 -79.5 -80.001l-87 68c36 50.667 73.167 87.834 111.5 111.501
s87.166 35.5 146.499 35.5c68.667 0 124.334 -19.167 167.001 -57.5s64 -88.833 64 -151.5v-2c0 -52 -13.333 -96.333 -40 -133s-74 -82.667 -142 -138l-144 -120h333v-108h-506z" />
    <glyph glyph-name="three" unicode="3" horiz-adv-x="618" 
d="M311 -12c-111.333 0 -200.667 41 -268 123l86 80c52 -61.333 113.333 -92 184 -92c34.667 0 63.5 9.83301 86.5 29.5s34.5 45.167 34.5 76.5v2c0 34 -14.5 60.5 -43.5 79.5s-68.167 28.5 -117.5 28.5h-57l-20 77l189 201h-303v107h463v-92l-195 -200
c60 -8 109.333 -27.833 148 -59.5s58 -77.5 58 -137.5v-2c0 -64.667 -22.833 -117.667 -68.5 -159s-104.5 -62 -176.5 -62z" />
    <glyph glyph-name="four" unicode="4" horiz-adv-x="681" 
d="M412 0v157h-353l-23 88l389 460h105v-447h100v-101h-100v-157h-118zM182 258h230v277z" />
    <glyph glyph-name="five" unicode="5" horiz-adv-x="622" 
d="M304 -12c-98 0 -183.666 35.666 -256.999 106.999l76 89c60 -56 120 -84 180 -84c42 0 75.667 11 101 33s38 51.333 38 88v2c0 35.333 -13.5 63.5 -40.5 84.5s-61.833 31.5 -104.5 31.5c-42 0 -85 -10.333 -129 -31l-74 49l20 343h418v-109h-312l-11 -164
c36.667 13.333 73.667 20 111 20c71.333 0 129.666 -18.833 174.999 -56.5s68 -92.167 68 -163.5v-2c0 -71.333 -23.833 -128.666 -71.5 -171.999s-110.167 -65 -187.5 -65z" />
    <glyph glyph-name="six" unicode="6" horiz-adv-x="656" 
d="M337 -12c-80 0 -144.998 24.335 -194.998 73.002c-28 28.667 -49.167 63.667 -63.5 105s-21.5 95.666 -21.5 162.999v2c0 111.333 26.167 202.666 78.5 273.999s126.166 107 221.499 107c78 0 149.333 -26 214 -78l-66 -95c-52.667 40.667 -103.334 61 -152.001 61
c-50.667 0 -90.5 -20.5 -119.5 -61.5s-45.167 -94.5 -48.5 -160.5c48 46.667 103.667 70 167 70c70.667 0 129.167 -19.667 175.5 -59s69.5 -93 69.5 -161v-2c0 -68.667 -24.833 -125.5 -74.5 -170.5s-111.5 -67.5 -185.5 -67.5zM334.002 94.002
c42.667 0 76.667 12.001 102 36.001s38 54.333 38 91v2c0 35.333 -13.167 64.5 -39.5 87.5s-60.833 34.5 -103.5 34.5s-77 -11.833 -103 -35.5s-39 -52.834 -39 -87.501v-2c0 -36 13.333 -66 40 -90s61.667 -36 105 -36z" />
    <glyph glyph-name="seven" unicode="7" horiz-adv-x="609" 
d="M106 0l314 592h-352v108h492v-93l-316 -607h-138z" />
    <glyph glyph-name="eight" unicode="8" horiz-adv-x="630" 
d="M315 -10c-77.333 0 -141.167 18.5 -191.5 55.5s-75.5 85.167 -75.5 144.5v2c0 78.667 42 135.667 126 171c-68 36 -102 88 -102 156v2c0 54 23 99 69 135s104 54 174 54s128 -18 174 -54s69 -81 69 -135v-2c0 -68 -34 -120 -102 -156c84 -38.667 126 -94.667 126 -168v-2
c0 -61.333 -25 -110.5 -75 -147.5s-114 -55.5 -192 -55.5zM314.999 404c36 0 65.833 9.66699 89.5 29s35.5 44 35.5 74v2c0 27.333 -11.667 50.5 -35 69.5s-53.333 28.5 -90 28.5s-66.667 -9.33301 -90 -28s-35 -41.667 -35 -69v-2c0 -30.667 11.833 -55.667 35.5 -75
s53.5 -29 89.5 -29zM314.999 93c44.667 0 80.332 9.99902 106.999 29.999s40 45 40 75v2c0 31.333 -14 56.833 -42 76.5s-63 29.5 -105 29.5s-77 -9.83301 -105 -29.5s-42 -45.167 -42 -76.5v-2c0 -29.333 13.333 -54.166 40 -74.499s62.334 -30.5 107.001 -30.5z" />
    <glyph glyph-name="nine" unicode="9" horiz-adv-x="656" 
d="M299 -12c-82 0 -156.667 28.001 -224 84.001l67 94c52 -44 105.333 -66 160 -66c50.667 0 91 20.167 121 60.5s46 93.5 48 159.5c-41.333 -49.333 -96 -74 -164 -74c-74.667 0 -134.667 20.167 -180 60.5s-68 94.166 -68 161.499v2c0 69.333 24.333 127 73 173
s111.334 69 188.001 69c80 0 144.667 -24.667 194 -74c56.667 -56.667 85 -145.667 85 -267v-2c0 -114 -26.833 -206 -80.5 -276s-126.834 -105 -219.501 -105zM325 349.001c43.333 0 77.833 12.1689 103.5 36.502s38.5 54.166 38.5 89.499v2
c0 37.333 -13.333 68.166 -40 92.499s-62 36.5 -106 36.5c-42.667 0 -76.5 -12.333 -101.5 -37s-37.5 -55.667 -37.5 -93v-2c0 -36.667 13 -66.667 39 -90s60.667 -35 104 -35z" />
    <glyph glyph-name="colon" unicode=":" horiz-adv-x="279" 
d="M73 391v137h133v-137h-133zM73 0v137h133v-137h-133z" />
    <glyph glyph-name="semicolon" unicode=";" horiz-adv-x="279" 
d="M73 391v137h133v-137h-133zM52 -145l-12.999 51c61.333 12 89.666 43.333 84.999 94h-51v137h133v-116c0 -54 -12.667 -94.167 -38 -120.5s-64 -41.5 -116 -45.5z" />
    <glyph glyph-name="less" unicode="&#x3c;" horiz-adv-x="634" 
d="M545 77l-478 221v108l478 221v-115l-358 -159l358 -160v-116z" />
    <glyph glyph-name="equal" unicode="=" horiz-adv-x="634" 
d="M76 421v112h482v-112h-482zM76 171v112h482v-112h-482z" />
    <glyph glyph-name="greater" unicode="&#x3e;" horiz-adv-x="634" 
d="M90 77v115l357 159l-357 160v116l478 -221v-108z" />
    <glyph glyph-name="question" unicode="?" horiz-adv-x="541" 
d="M207 221l-20 161.999l5 5c123.333 4.66699 185 42 185 112v2c0 28.667 -10.333 51.667 -31 69s-48.667 26 -84 26c-59.333 0 -113.666 -26.333 -162.999 -79l-75 80c65.333 74 145.666 111 240.999 111c70.667 0 127.334 -18.333 170.001 -55s64 -86 64 -148v-2
c0 -59.333 -18.333 -105.166 -55 -137.499s-85.334 -53.833 -146.001 -64.5l-10 -81h-81zM178 -0.000976562v137h134v-137h-134z" />
    <glyph glyph-name="at" unicode="@" horiz-adv-x="980" 
d="M499 -162c-126.667 0 -232.664 42.5 -317.997 127.5s-128 187.833 -128 308.5c0 120 42.5 223 127.5 309s188.5 129 310.5 129c60 0 117.167 -11 171.5 -33s100.666 -51.167 138.999 -87.5s68.833 -78.5 91.5 -126.5s34 -97.667 34 -149c0 -80 -18.5 -141.5 -55.5 -184.5
s-83.167 -64.5 -138.5 -64.5c-69.333 0 -118.666 23.333 -147.999 70c-45.333 -46.667 -97 -70 -155 -70c-51.333 0 -94.333 17.5 -129 52.5s-52 80.5 -52 136.5c0 69.333 23 128.333 69 177s98.667 73 158 73c62 0 109 -24.667 141 -74l12 60l97 -15l-44 -252
c-3.33301 -20 -5 -34.333 -5 -43c0 -22 7 -39.333 21 -52s33 -19 57 -19c37.333 0 68.666 17.833 93.999 53.5s38 86.167 38 151.5c0 94.667 -38.333 178 -115 250s-170.334 108 -281.001 108c-112.667 0 -207.167 -38.833 -283.5 -116.5s-114.5 -172.167 -114.5 -283.5
c0 -112 38.333 -206.333 115 -283s173.667 -115 291 -115c87.333 0 169.666 22.333 246.999 67l18 -30c-82 -50 -170.333 -75 -265 -75zM457.003 154c36.667 0 68.833 15.5 96.5 46.5s41.5 68.167 41.5 111.5c0 32 -10 58 -30 78s-45 30 -75 30
c-37.333 0 -69.833 -15.333 -97.5 -46s-41.5 -68 -41.5 -112c0 -34 9.66699 -60.5 29 -79.5s45 -28.5 77 -28.5z" />
    <glyph glyph-name="A" unicode="A" horiz-adv-x="790" 
d="M30 0l308 705h114l308 -705h-130l-71 169h-331l-72 -169h-126zM273 278h241l-121 280z" />
    <glyph glyph-name="B" unicode="B" horiz-adv-x="722" 
d="M90 0v699.999h314c80.667 0 141.667 -20.667 183 -62c31.333 -31.333 47 -70 47 -116v-2c0 -69.333 -33.333 -121.333 -100 -156c92.667 -31.333 139 -88 139 -170v-2c0 -61.333 -23.333 -108.666 -70 -141.999s-109.667 -50 -189 -50h-324zM211 404.999h167.998
c40.667 0 72.834 8 96.501 24s35.5 39.667 35.5 71v2c0 28 -10.667 49.833 -32 65.5s-51.666 23.5 -90.999 23.5h-177v-186zM210.998 108.999l203.999 0.000976562c42.667 0 75.834 8.16699 99.501 24.5s35.5 40.166 35.5 71.499v2c0 62.667 -48 94 -144 94h-195v-192z" />
    <glyph glyph-name="C" unicode="C" horiz-adv-x="738" 
d="M415 -12c-101.333 0 -186 34.667 -254 104s-102 154.666 -102 255.999v2c0 101.333 34 187 102 257s154.333 105 259 105c60.667 0 112.167 -9.33301 154.5 -28s82.166 -45.667 119.499 -81l-79 -91c-62.667 58 -128 87 -196 87c-66 0 -121 -23.833 -165 -71.5
s-66 -106.167 -66 -175.5v-2c0 -69.333 22 -128.166 66 -176.499s99 -72.5 165 -72.5c40 0 75.333 7.5 106 22.5s62.334 37.833 95.001 68.5l79 -80c-39.333 -41.333 -81 -72.333 -125 -93s-97 -31 -159 -31z" />
    <glyph glyph-name="D" unicode="D" horiz-adv-x="782" 
d="M90 0v699.999h261c108.667 0 197.834 -33.167 267.501 -99.5s104.5 -149.166 104.5 -248.499v-2c0 -100 -34.833 -183.333 -104.5 -250s-158.834 -100 -267.501 -100h-261zM213 111.999h138c72.667 0 131.334 22 176.001 66s67 100.667 67 170v2
c0 69.333 -22.333 126.333 -67 171s-103.334 67 -176.001 67h-138v-476z" />
    <glyph glyph-name="E" unicode="E" horiz-adv-x="670" 
d="M90 0v700h519v-110h-396v-182h351v-110h-351v-188h401v-110h-524z" />
    <glyph glyph-name="F" unicode="F" horiz-adv-x="656" 
d="M90 0v700h521v-112h-398v-191h353v-112h-353v-285h-123z" />
    <glyph glyph-name="G" unicode="G" horiz-adv-x="784" 
d="M422 -12c-108 0 -195.499 34.1689 -262.499 102.502s-100.5 154.166 -100.5 257.499v2c0 100 34.167 185.333 102.5 256s154.5 106 258.5 106c58.667 0 108.667 -7.83301 150 -23.5s81 -39.5 119 -71.5l-78 -93c-29.333 25.333 -58.833 44.166 -88.5 56.499
s-65.5 18.5 -107.5 18.5c-64 0 -117.833 -24.167 -161.5 -72.5s-65.5 -106.5 -65.5 -174.5v-2c0 -72.667 22 -132.5 66 -179.5s101.333 -70.5 172 -70.5c65.333 0 121.666 17.667 168.999 53v131h-179v107h298v-294c-84.667 -72.667 -182 -109 -292 -109z" />
    <glyph glyph-name="H" unicode="H" horiz-adv-x="760" 
d="M90 0v700h123v-291h334v291h123v-700h-123v295h-334v-295h-123z" />
    <glyph glyph-name="I" unicode="I" horiz-adv-x="317" 
d="M97 0v700h123v-700h-123z" />
    <glyph glyph-name="J" unicode="J" horiz-adv-x="559" 
d="M245 -10c-94 0 -168.667 37.667 -224 113l81 83c43.333 -54.667 90.333 -82 141 -82c34 0 61 11.5 81 34.5s30 57.167 30 102.5v459h126v-462c0 -80.667 -21.667 -142.667 -65 -186c-41.333 -41.333 -98 -62 -170 -62z" />
    <glyph glyph-name="K" unicode="K" horiz-adv-x="725" 
d="M90 0v700h123v-352l333 352h151l-291 -301l304 -399h-149l-239 315l-109 -112v-203h-123z" />
    <glyph glyph-name="L" unicode="L" horiz-adv-x="619" 
d="M90 0v700h123v-588h368v-112h-491z" />
    <glyph glyph-name="M" unicode="M" horiz-adv-x="868" 
d="M90 0v700h131l213 -331l213 331h131v-700h-123v502l-221 -330h-4l-219 328v-500h-121z" />
    <glyph glyph-name="N" unicode="N" horiz-adv-x="790" 
d="M90 0v700h114l375 -484v484h121v-700h-103l-386 498v-498h-121z" />
    <glyph glyph-name="O" unicode="O" horiz-adv-x="850" 
d="M424 -12c-106 0 -193.333 35 -262 105s-103 155 -103 255v2c0 100 34.667 185.333 104 256s157 106 263 106s193.333 -35 262 -105s103 -155 103 -255v-2c0 -100 -34.667 -185.333 -104 -256s-157 -106 -263 -106zM426 101c68.667 0 125.167 23.833 169.5 71.5
s66.5 106.167 66.5 175.5v2c0 69.333 -22.5 128.166 -67.5 176.499s-101.833 72.5 -170.5 72.5s-125.167 -23.833 -169.5 -71.5s-66.5 -106.167 -66.5 -175.5v-2c0 -69.333 22.5 -128.166 67.5 -176.499s101.833 -72.5 170.5 -72.5z" />
    <glyph glyph-name="P" unicode="P" horiz-adv-x="668" 
d="M90 0v700.001h276c81.333 0 146 -21.333 194 -64s72 -99.334 72 -170.001v-2c0 -75.333 -26.5 -134 -79.5 -176s-119.833 -63 -200.5 -63h-139v-225h-123zM213 336.001h143c46 0 82.667 11.667 110 35s41 53.333 41 90v2c0 40 -13.5 70.833 -40.5 92.5
s-63.833 32.5 -110.5 32.5h-143v-252z" />
    <glyph glyph-name="Q" unicode="Q" horiz-adv-x="850" 
d="M721 -21l-84 75.001c-62 -44 -133 -66 -213 -66c-106 0 -193.333 35 -262 105s-103 155 -103 255v2c0 100 34.667 185.333 104 256s157 106 263 106s193.333 -35 262 -105s103 -155 103 -255v-2c0 -80.667 -23.667 -152.334 -71 -215.001l80 -68zM426 101.001
c44.667 0 84.667 11.332 120 33.999l-120 102l79 90l121 -110c24 36.667 36 80.334 36 131.001v2c0 69.333 -22.5 128.166 -67.5 176.499s-101.833 72.5 -170.5 72.5s-125.167 -23.833 -169.5 -71.5s-66.5 -106.167 -66.5 -175.5v-2c0 -69.333 22.5 -128.166 67.5 -176.499
s101.833 -72.5 170.5 -72.5z" />
    <glyph glyph-name="R" unicode="R" horiz-adv-x="723" 
d="M90 0v700.001h312c86.667 0 154 -23.333 202 -70c38.667 -40 58 -90.333 58 -151v-2c0 -55.333 -15 -100.833 -45 -136.5s-70.667 -60.834 -122 -75.501l189 -265h-145l-172 244h-154v-244h-123zM213 353.001l180 0.000976562c44 0 79 10.667 105 32s39 49.666 39 84.999
v2c0 37.333 -12.667 66 -38 86s-61 30 -107 30h-179v-235z" />
    <glyph glyph-name="S" unicode="S" horiz-adv-x="640" 
d="M335 -10c-111.333 0 -208.665 37.333 -291.998 112l74 88c70 -60.667 143.667 -91 221 -91c38 0 68.167 8 90.5 24s33.5 37.333 33.5 64v2c0 26 -10.667 46.667 -32 62s-63.333 30.333 -126 45c-40 10 -73.333 20 -100 30s-50.667 23 -72 39s-36.833 35.5 -46.5 58.5
s-14.5 50.167 -14.5 81.5v2c0 60 22.333 108.833 67 146.5s102 56.5 172 56.5c96 0 180.667 -29.333 254 -88l-66 -93c-64.667 48 -128 72 -190 72c-34.667 0 -62.334 -7.83301 -83.001 -23.5s-31 -35.5 -31 -59.5v-2c0 -27.333 11.167 -48.5 33.5 -63.5
s66.5 -30.5 132.5 -46.5c77.333 -18.667 134.166 -43.5 170.499 -74.5s54.5 -74.5 54.5 -130.5v-2c0 -64.667 -23 -115.667 -69 -153s-106.333 -56 -181 -56z" />
    <glyph glyph-name="T" unicode="T" horiz-adv-x="648" 
d="M262 0v586h-222v114h568v-114h-222v-586h-124z" />
    <glyph glyph-name="U" unicode="U" horiz-adv-x="757" 
d="M377 -11c-92.667 0 -165.499 26.334 -218.499 79.001s-79.5 129 -79.5 229v403h123v-398c0 -64 15.667 -113.333 47 -148s74.666 -52 129.999 -52s98.5 16.667 129.5 50s46.5 81.666 46.5 144.999v403h123v-397c0 -102 -26.667 -179.833 -80 -233.5
s-127 -80.5 -221 -80.5z" />
    <glyph glyph-name="V" unicode="V" horiz-adv-x="750" 
d="M321 -5l-291 705h136l211 -538l210 538h133l-291 -705h-108z" />
    <glyph glyph-name="W" unicode="W" horiz-adv-x="1116" 
d="M280 -5l-244 705h133l167 -519l172 521h104l172 -521l167 519h129l-244 -705h-106l-172 503l-172 -503h-106z" />
    <glyph glyph-name="X" unicode="X" horiz-adv-x="729" 
d="M37 0l255 356l-245 344h145l174 -251l175 251h141l-244 -342l254 -358h-145l-184 265l-185 -265h-141z" />
    <glyph glyph-name="Y" unicode="Y" horiz-adv-x="716" 
d="M296 0v276l-278 424h145l196 -310l198 310h141l-278 -421v-279h-124z" />
    <glyph glyph-name="Z" unicode="Z" horiz-adv-x="702" 
d="M65 0v91l413 500h-400v109h560v-91l-413 -500h413v-109h-573z" />
    <glyph glyph-name="bracketleft" unicode="[" horiz-adv-x="454" 
d="M88 -130v830h307v-95h-192v-640h192v-95h-307z" />
    <glyph glyph-name="backslash" unicode="\" horiz-adv-x="521" 
d="M441 -128l-452 926h105l452 -926h-105z" />
    <glyph glyph-name="bracketright" unicode="]" horiz-adv-x="454" 
d="M59 -130v95h192v640h-192v95h308v-830h-308z" />
    <glyph glyph-name="asciicircum" unicode="^" 
d="M56 493l151 208h86l151 -208h-93l-102 132l-102 -132h-91z" />
    <glyph glyph-name="underscore" unicode="_" horiz-adv-x="600" 
d="M-2 -160v94h604v-94h-604z" />
    <glyph glyph-name="grave" unicode="`" 
d="M247 595l-123 115l110 49l104 -164h-91z" />
    <glyph glyph-name="a" unicode="a" horiz-adv-x="587" 
d="M519 0h-120v65c-42.667 -50.667 -99.667 -76 -171 -76c-52.667 0 -97.167 14.5 -133.5 43.5s-54.5 68.833 -54.5 119.5v2c0 56.667 19.667 99.667 59 129s91 44 155 44c51.333 0 100 -7.33301 146 -22v10c0 36.667 -11.167 64.667 -33.5 84s-54.5 29 -96.5 29
c-48 0 -98.333 -11 -151 -33l-33 97c65.333 29.333 132.333 44 201 44c76.667 0 134.5 -19.333 173.5 -58s58.5 -93.667 58.5 -165v-313zM402 191l0.000976562 29.999c-36 14 -76.333 21 -121 21c-38 0 -67.667 -7.33301 -89 -22s-32 -34.667 -32 -60v-2
c0 -24 9.66699 -43 29 -57s43.666 -21 72.999 -21c40.667 0 74.167 10.333 100.5 31s39.5 47.334 39.5 80.001z" />
    <glyph glyph-name="b" unicode="b" horiz-adv-x="670" 
d="M376 -11c-72.667 0 -132.334 31 -179.001 93v-82h-121v730h121v-290c46.667 66 106.334 99 179.001 99c66.667 0 124.334 -24.833 173.001 -74.5s73 -116.167 73 -199.5v-2c0 -83.333 -24.333 -149.833 -73 -199.5s-106.334 -74.5 -173.001 -74.5zM348 94
c42.667 0 78.5 15.5 107.5 46.5s43.5 71.833 43.5 122.5v2c0 50 -14.667 90.667 -44 122s-65 47 -107 47s-78.167 -15.833 -108.5 -47.5s-45.5 -72.167 -45.5 -121.5v-2c0 -49.333 15.167 -89.833 45.5 -121.5s66.5 -47.5 108.5 -47.5z" />
    <glyph glyph-name="c" unicode="c" horiz-adv-x="571" 
d="M320 -12c-78 0 -142.999 26.501 -194.999 79.501s-78 117.5 -78 193.5v2c0 76 26.167 141 78.5 195s117.5 81 195.5 81c85.333 0 155.666 -30.333 210.999 -91l-75 -81c-42 44 -87.667 66 -137 66c-43.333 0 -79.5 -16.333 -108.5 -49s-43.5 -72.334 -43.5 -119.001v-2
c0 -48 14.833 -88.333 44.5 -121s67.5 -49 113.5 -49c48.667 0 94.334 22 137.001 66l73 -72c-28.667 -32 -59.834 -56.5 -93.501 -73.5s-74.5 -25.5 -122.5 -25.5z" />
    <glyph glyph-name="d" unicode="d" horiz-adv-x="670" 
d="M294 -11c-66 0 -123.333 24.833 -172 74.5s-73 116.167 -73 199.5v2c0 84 24.167 150.667 72.5 200s105.833 74 172.5 74c72 0 132 -31 180 -93v284h121v-730h-121v88c-46.667 -66 -106.667 -99 -180 -99zM323 94c42 0 78 15.833 108 47.5s45 72.167 45 121.5v2
c0 49.333 -15 89.833 -45 121.5s-66 47.5 -108 47.5c-42.667 0 -78.667 -15.333 -108 -46s-44 -71.667 -44 -123v-2c0 -50 14.833 -90.667 44.5 -122s65.5 -47 107.5 -47z" />
    <glyph glyph-name="e" unicode="e" horiz-adv-x="604" 
d="M318 -12c-77.333 0 -141.834 25.5 -193.501 76.5s-77.5 116.833 -77.5 197.5v2c0 76.667 24.333 141.667 73 195s110.334 80 185.001 80c80 0 142.167 -27.167 186.5 -81.5s66.5 -121.833 66.5 -202.5c0 -6.66699 -0.666992 -18 -2 -34h-388
c6.66699 -42 23.667 -74.833 51 -98.5s61 -35.5 101 -35.5c52 0 99.667 21 143 63l71 -63c-54.667 -66 -126.667 -99 -216 -99zM166.999 301h271.001c-4 40.667 -17.667 74 -41 100s-54.333 39 -93 39c-36.667 0 -67.334 -12.833 -92.001 -38.5s-39.667 -59.167 -45 -100.5z
" />
    <glyph glyph-name="f" unicode="f" horiz-adv-x="376" 
d="M103 0v423.999h-67v101h67v38c0 58.667 14.333 102.334 43 131.001c28 28 67.667 42 119 42c34 0 66.667 -4.66699 98 -14v-102c-26 8.66699 -49.667 13 -71 13c-46.667 0 -70 -26.667 -70 -80v-29h140v-100h-138v-424h-121z" />
    <glyph glyph-name="g" unicode="g" horiz-adv-x="670" 
d="M311 -162c-88 0 -166.67 20.999 -236.003 62.999l45 91c60 -37.333 122.667 -56 188 -56c54 0 95.333 13.833 124 41.5s43 67.834 43 120.501v41c-50 -64.667 -112 -97 -186 -97c-65.333 0 -121.666 22.5 -168.999 67.5s-71 104.833 -71 179.5v2
c0 74.667 23.833 134.667 71.5 180s103.834 68 168.501 68c73.333 0 135 -30 185 -90v79h121v-420c0 -88 -22.333 -154.333 -67 -199c-47.333 -47.333 -119.666 -71 -216.999 -71zM320.997 143.999c42.667 0 79.168 13.667 109.501 41s45.5 62 45.5 104v2
c0 42.667 -15.167 77.667 -45.5 105s-66.833 41 -109.5 41s-78.334 -13.5 -107.001 -40.5s-43 -61.833 -43 -104.5v-2c0 -42.667 14.5 -77.667 43.5 -105s64.5 -41 106.5 -41z" />
    <glyph glyph-name="h" unicode="h" horiz-adv-x="620" 
d="M76 0v730.001h121v-284c42 62 97 93 165 93c58.667 0 104.667 -18.333 138 -55s50 -86 50 -148v-336h-121v300c0 41.333 -9.83301 73.166 -29.5 95.499s-47.5 33.5 -83.5 33.5c-35.333 0 -64 -11.667 -86 -35s-33 -55.333 -33 -96v-298h-121z" />
    <glyph glyph-name="i" unicode="i" horiz-adv-x="286" 
d="M78 609v115h130v-115h-130zM83 0v528h121v-528h-121z" />
    <glyph glyph-name="j" unicode="j" horiz-adv-x="286" 
d="M78 609v115h130v-115h-130zM50 -163c-17.333 0 -36.667 1.66699 -58 5v97c12 -2 23.333 -3 34 -3c38 0 57 21.333 57 64v528h121v-535c0 -104 -51.333 -156 -154 -156z" />
    <glyph glyph-name="k" unicode="k" horiz-adv-x="582" 
d="M76 0v730h121v-436l219 234h147l-210 -215l217 -313h-140l-159 228l-74 -77v-151h-121z" />
    <glyph glyph-name="l" unicode="l" horiz-adv-x="286" 
d="M83 0v730h121v-730h-121z" />
    <glyph glyph-name="m" unicode="m" horiz-adv-x="950" 
d="M76 0l0.000976562 528.001h121v-80c44 60.667 97.667 91 161 91c73.333 0 125.666 -31 156.999 -93c47.333 62 107 93 179 93c58 0 103.333 -17.667 136 -53s49 -85 49 -149v-337h-121v300c0 42 -9.33301 74 -28 96s-45 33 -79 33s-61.333 -11.5 -82 -34.5
s-31 -55.167 -31 -96.5v-298h-121v301c0 40.667 -9.33301 72.167 -28 94.5s-45 33.5 -79 33.5s-61.333 -11.833 -82 -35.5s-31 -55.834 -31 -96.501v-297h-121z" />
    <glyph glyph-name="n" unicode="n" horiz-adv-x="620" 
d="M76 0v528.001h121v-82c42 62 97 93 165 93c58.667 0 104.667 -18.333 138 -55s50 -86 50 -148v-336h-121v300c0 41.333 -9.83301 73.166 -29.5 95.499s-47.5 33.5 -83.5 33.5c-35.333 0 -64 -11.667 -86 -35s-33 -55.333 -33 -96v-298h-121z" />
    <glyph glyph-name="o" unicode="o" horiz-adv-x="657" 
d="M327 -12c-80 0 -146.667 26.499 -200 79.499s-80 117.5 -80 193.5v2c0 76.667 27 141.834 81 195.501s121 80.5 201 80.5s146.833 -26.667 200.5 -80s80.5 -118 80.5 -194v-2c0 -76 -27 -140.833 -81 -194.5s-121.333 -80.5 -202 -80.5zM329 92.999
c48 0 86.667 16.3311 116 48.998s44 72.334 44 119.001v2c0 47.333 -15.333 87.5 -46 120.5s-69.334 49.5 -116.001 49.5c-47.333 0 -85.666 -16.167 -114.999 -48.5s-44 -72.166 -44 -119.499v-2c0 -46.667 15.333 -86.667 46 -120s69 -50 115 -50z" />
    <glyph glyph-name="p" unicode="p" horiz-adv-x="670" 
d="M76 -160v688h121v-88c46.667 66 106.334 99 179.001 99c66.667 0 124.334 -24.833 173.001 -74.5s73 -116.167 73 -199.5v-2c0 -83.333 -24.333 -149.833 -73 -199.5s-106.334 -74.5 -173.001 -74.5c-72.667 0 -132.334 31 -179.001 93v-242h-121zM348 94
c42.667 0 78.5 15.5 107.5 46.5s43.5 71.833 43.5 122.5v2c0 50 -14.667 90.667 -44 122s-65 47 -107 47s-78.167 -15.833 -108.5 -47.5s-45.5 -72.167 -45.5 -121.5v-2c0 -49.333 15.167 -89.833 45.5 -121.5s66.5 -47.5 108.5 -47.5z" />
    <glyph glyph-name="q" unicode="q" horiz-adv-x="670" 
d="M474 -160v248c-46.667 -66 -106.667 -99 -180 -99c-66 0 -123.333 24.833 -172 74.5s-73 116.167 -73 199.5v2c0 84 24.167 150.667 72.5 200s105.833 74 172.5 74c72 0 132 -31 180 -93v82h121v-688h-121zM323 94c42 0 78 15.833 108 47.5s45 72.167 45 121.5v2
c0 49.333 -15 89.833 -45 121.5s-66 47.5 -108 47.5c-42.667 0 -78.667 -15.333 -108 -46s-44 -71.667 -44 -123v-2c0 -50 14.833 -90.667 44.5 -122s65.5 -47 107.5 -47z" />
    <glyph glyph-name="r" unicode="r" horiz-adv-x="413" 
d="M76 0l0.00195312 528h121v-119c37.333 90 99.666 133 186.999 129v-128h-7c-54.667 0 -98.334 -17.833 -131.001 -53.5s-49 -87.5 -49 -155.5v-201h-121z" />
    <glyph glyph-name="s" unicode="s" 
d="M257 -10c-82.667 0 -157.332 26.332 -223.999 78.999l54 82c57.333 -43.333 115 -65 173 -65c26 0 46.167 5.16699 60.5 15.5s21.5 24.166 21.5 41.499v2c0 25.333 -35.333 48.666 -106 69.999c-5.33301 2 -9.33301 3.33301 -12 4c-24 6.66699 -44 13.334 -60 20.001
s-33 15.834 -51 27.501s-31.5 26.5 -40.5 44.5s-13.5 39 -13.5 63v2c0 48.667 17.833 87.667 53.5 117s80.5 44 134.5 44c68.667 0 133.334 -20 194.001 -60l-48 -86c-54.667 33.333 -104.334 50 -149.001 50c-23.333 0 -41.5 -4.83301 -54.5 -14.5s-19.5 -22.5 -19.5 -38.5
v-2c0 -16 8.83301 -28.833 26.5 -38.5s45.167 -20.5 82.5 -32.5c1.33301 0 2.33301 -0.166992 3 -0.5s1.66699 -0.666016 3 -0.999023s2.66602 -0.833008 3.99902 -1.5c23.333 -7.33301 43 -14.5 59 -21.5s32.833 -16.5 50.5 -28.5s31.167 -26.667 40.5 -44
s14 -37.333 14 -60v-2c0 -53.333 -18.333 -94.333 -55 -123s-83.667 -43 -141 -43z" />
    <glyph glyph-name="t" unicode="t" horiz-adv-x="410" 
d="M253 -9c-101.333 0 -152 51.667 -152 155v278h-67v104h67v145h121v-145h142v-104h-142v-259c0 -44 21.667 -66 65 -66c26 0 51 6 75 18v-99c-32 -18 -68.333 -27 -109 -27z" />
    <glyph glyph-name="u" unicode="u" horiz-adv-x="620" 
d="M258 -11c-58.667 0 -104.667 18.332 -138 54.999s-50 86 -50 148v336h121v-300c0 -41.333 9.83301 -73.166 29.5 -95.499s47.5 -33.5 83.5 -33.5c35.333 0 64 11.667 86 35s33 55.333 33 96v298h121v-528h-121v82c-42 -62 -97 -93 -165 -93z" />
    <glyph glyph-name="v" unicode="v" horiz-adv-x="595" 
d="M243 -4l-217 532h130l142 -388l143 388h127l-216 -532h-109z" />
    <glyph glyph-name="w" unicode="w" horiz-adv-x="861" 
d="M203 -4l-171 532h124l106 -362l117 364h103l118 -364l108 362h121l-173 -532h-108l-118 361l-119 -361h-108z" />
    <glyph glyph-name="x" unicode="x" horiz-adv-x="580" 
d="M30 0l194 268l-187 260h132l122 -174l122 174h129l-187 -257l195 -271h-132l-130 185l-129 -185h-129z" />
    <glyph glyph-name="y" unicode="y" horiz-adv-x="596" 
d="M184 -163c-44 0 -85.667 10.667 -125 32l41 90c24.667 -13.333 48.334 -20 71.001 -20c17.333 0 31.666 4.5 42.999 13.5s22 24.833 32 47.5l-220 528h129l150 -392l137 392h126l-210 -543c-21.333 -54 -45 -92.167 -71 -114.5s-60.333 -33.5 -103 -33.5z" />
    <glyph glyph-name="z" unicode="z" horiz-adv-x="560" 
d="M52 0v83l305 346h-294v99h448v-83l-305 -346h305v-99h-459z" />
    <glyph glyph-name="braceleft" unicode="{" horiz-adv-x="487" 
d="M416 -141c-86.667 16 -146.167 39.6631 -178.5 70.9961s-48.5 74.333 -48.5 129c0 4.66699 0.333008 16.334 1 35.001s1 31 1 37c0 39.333 -8.5 67.5 -25.5 84.5s-46.167 25.5 -87.5 25.5h-26v92h26c41.333 0 70.5 8.5 87.5 25.5s25.5 45.167 25.5 84.5
c0 6 -0.333008 18.333 -1 37s-1 30.334 -1 35.001c0 54.667 16.167 97.667 48.5 129s91.833 55 178.5 71l21 -80c-57.333 -16 -94.333 -33.167 -111 -51.5s-25 -46.833 -25 -85.5c0 -6.66699 0.333008 -18.834 1 -36.501s1 -30.167 1 -37.5
c0 -37.333 -8.66699 -66.666 -26 -87.999s-43.333 -37.666 -78 -48.999c35.333 -11.333 61.5 -27.666 78.5 -48.999s25.5 -50.666 25.5 -87.999c0 -7.33301 -0.333008 -19.833 -1 -37.5s-1 -29.834 -1 -36.501c0 -38.667 8.33301 -67.167 25 -85.5s53.667 -35.5 111 -51.5z
" />
    <glyph glyph-name="bar" unicode="|" horiz-adv-x="331" 
d="M117 -128v926h97v-926h-97z" />
    <glyph glyph-name="braceright" unicode="}" horiz-adv-x="487" 
d="M71 -141l-21 80.0039c57.333 16 94.333 33.167 111 51.5s25 46.833 25 85.5c0 6.66699 -0.333008 18.834 -1 36.501s-1 30.167 -1 37.5c0 37.333 8.66699 66.666 26 87.999s43.333 37.666 78 48.999c-35.333 11.333 -61.5 27.666 -78.5 48.999s-25.5 50.666 -25.5 87.999
c0 7.33301 0.333008 19.833 1 37.5s1 29.834 1 36.501c0 38.667 -8.33301 67.167 -25 85.5s-53.667 35.5 -111 51.5l21 80c86.667 -16 146.167 -39.667 178.5 -71s48.5 -74.333 48.5 -129c0 -4.66699 -0.333008 -16.334 -1 -35.001s-1 -31 -1 -37
c0 -39.333 8.5 -67.5 25.5 -84.5s46.167 -25.5 87.5 -25.5h26v-92h-26c-41.333 0 -70.5 -8.5 -87.5 -25.5s-25.5 -45.167 -25.5 -84.5c0 -6 0.333008 -18.333 1 -37s1 -30.334 1 -35.001c0 -54.667 -16.167 -97.667 -48.5 -129s-91.833 -55 -178.5 -71z" />
    <glyph glyph-name="asciitilde" unicode="~" horiz-adv-x="495" 
d="M126 229l-67 21c11.333 42.667 25.5 74 42.5 94s40.167 30 69.5 30c20 0 46.333 -6.66699 79 -20s54 -20 64 -20c14 0 24.833 3.83301 32.5 11.5s15.167 20.5 22.5 38.5l67 -20c-11.333 -42.667 -25.5 -74.167 -42.5 -94.5s-40.167 -30.5 -69.5 -30.5
c-20 0 -46.333 6.66699 -79 20s-54 20 -64 20c-14 0 -24.833 -3.83301 -32.5 -11.5s-15.167 -20.5 -22.5 -38.5z" />
    <glyph glyph-name="uni00A0" unicode="&#xa0;" horiz-adv-x="300" 
 />
    <glyph glyph-name="exclamdown" unicode="&#xa1;" horiz-adv-x="302" 
d="M85 563v137h133v-137h-133zM80 0v35l38 444h67l37 -444v-35h-142z" />
    <glyph glyph-name="cent" unicode="&#xa2;" horiz-adv-x="581" 
d="M210 -6l20 101.999c-52.667 18.667 -95.5 51.5 -128.5 98.5s-49.5 99.833 -49.5 158.5v2c0 76.667 26 141.667 78 195s117 80 195 80h9l15 76h88l-18 -89c43.333 -13.333 82.666 -39.333 117.999 -78l-73 -78c-23.333 23.333 -46.333 40 -69 50l-65 -326
c48.667 0.666992 94.667 22.334 138 65.001l70 -69c-59.333 -67.333 -131.666 -101 -216.999 -101h-6l-17 -86h-88zM255 201.999l63 323c-42 -0.666992 -77.167 -17.334 -105.5 -50.001s-42.5 -72 -42.5 -118v-2c0 -33.333 7.5 -63.666 22.5 -90.999s35.833 -48 62.5 -62z
" />
    <glyph glyph-name="sterling" unicode="&#xa3;" horiz-adv-x="644" 
d="M63 0l-0.000976562 78l79 24v176h-79v104h79v92c0 74.667 20.667 132.667 62 174c40 41.333 96 62 168 62c90.667 0 164.334 -37.333 221.001 -112l-94 -75c-19.333 24.667 -38.5 43 -57.5 55s-41.833 18 -68.5 18c-28.667 0 -53 -9.33301 -73 -28
c-22.667 -24 -34 -56.333 -34 -97v-89h249v-104h-249v-171h325v-107h-528z" />
    <glyph glyph-name="yen" unicode="&#xa5;" horiz-adv-x="686" 
d="M284 0v102h-193v89h193v73h-193v89h159l-231 347h143l183 -293l183 293h139l-232 -347h160v-89h-193v-73h193v-89h-193v-102h-118z" />
    <glyph glyph-name="section" unicode="&#xa7;" horiz-adv-x="632" 
d="M326 -10c-94 0 -171.001 31.668 -231.001 95.001l69 68c50.667 -47.333 104.334 -71 161.001 -71c26.667 0 46.834 4.5 60.501 13.5s20.5 20.833 20.5 35.5v2c0 14.667 -9.33301 27.167 -28 37.5s-53.334 21.166 -104.001 32.499c-78 17.333 -133.5 37 -166.5 59
s-49.5 51 -49.5 87v2c0 58.667 35.667 97.334 107 116.001c-36.667 23.333 -55 55 -55 95v2c0 44.667 17.5 80.167 52.5 106.5s82.833 39.5 143.5 39.5c94 0 171 -31.667 231 -95l-69 -68c-50.667 47.333 -104.334 71 -161.001 71c-26 0 -46 -4.5 -60 -13.5
s-21 -20.833 -21 -35.5v-2c0 -14 9 -26.167 27 -36.5s53 -21.5 105 -33.5c78.667 -18 134.334 -37.833 167.001 -59.5s49 -50.5 49 -86.5v-2c0 -58.667 -35.667 -97.334 -107 -116.001c36.667 -22 55 -53.667 55 -95v-2c0 -44.667 -17.5 -80.167 -52.5 -106.5
s-82.833 -39.5 -143.5 -39.5zM387.999 278.001c22.667 0 41.167 5.16699 55.5 15.5s21.5 23.166 21.5 38.499v2c0 14.667 -9 27.334 -27 38.001s-48 21.334 -90 32.001c-47.333 12 -82 18 -104 18c-22.667 0 -41.167 -5.16699 -55.5 -15.5s-21.5 -23.166 -21.5 -38.499v-2
c0 -14.667 9 -27.334 27 -38.001s48 -21.334 90 -32.001c47.333 -12 82 -18 104 -18z" />
    <glyph glyph-name="dieresis" unicode="&#xa8;" 
d="M286 595v119h123v-119h-123zM91 595v119h123v-119h-123z" />
    <glyph glyph-name="copyright" unicode="&#xa9;" horiz-adv-x="830" 
d="M414 -12c-100.667 0 -186 35.167 -256 105.5s-105 155.166 -105 254.499v2c0 99.333 35.333 184.5 106 255.5s156.334 106.5 257.001 106.5s186 -35.167 256 -105.5s105 -155.166 105 -254.499v-2c0 -99.333 -35.333 -184.5 -106 -255.5s-156.334 -106.5 -257.001 -106.5
zM414 24c92 0 169.167 31.833 231.5 95.5s93.5 140.5 93.5 230.5v2c0 90 -31 166.5 -93 229.5s-138.667 94.5 -230 94.5c-92 0 -169.167 -31.833 -231.5 -95.5s-93.5 -140.5 -93.5 -230.5v-2c0 -90 31 -166.5 93 -229.5s138.667 -94.5 230 -94.5zM419 159
c-54.667 0 -100.335 18.667 -137.002 56s-55 83.333 -55 138v2c0 54.667 18.333 101 55 139s83 57 139 57c58.667 0 108.334 -19.667 149.001 -59l-47 -54c-33.333 30 -67.333 45 -102 45c-33.333 0 -61.333 -12.333 -84 -37s-34 -54.667 -34 -90v-2
c0 -34.667 11.333 -64.5 34 -89.5s50.667 -37.5 84 -37.5c36 0 70.667 15.667 104 47l48 -47c-43.333 -45.333 -94.666 -68 -153.999 -68z" />
    <glyph glyph-name="ordfeminine" unicode="&#xaa;" horiz-adv-x="390" 
d="M159 403c-29.333 0 -53.832 8 -73.499 24s-29.5 38 -29.5 66v2c0 30 11 53 33 69s51 24 87 24c24 0 49.333 -3.66699 76 -11v5c0 40.667 -23.333 61 -70 61c-23.333 0 -51 -6.33301 -83 -19l-19 54c35.333 16.667 72.333 25 111 25c43.333 0 75.666 -11 96.999 -33
c20.667 -20 31 -49.667 31 -89v-172h-68v34c-23.333 -26.667 -54 -40 -92 -40zM53.001 282v58h270v-58h-270zM177.001 454c21.333 0 39.167 5.66895 53.5 17.002s21.5 25.666 21.5 42.999v18c-20.667 7.33301 -41.667 11 -63 11c-20 0 -35.667 -4 -47 -12s-17 -19 -17 -33
v-2c0 -12.667 4.83301 -22.834 14.5 -30.501s22.167 -11.5 37.5 -11.5z" />
    <glyph glyph-name="guillemotleft" unicode="&#xab;" horiz-adv-x="606" 
d="M461 41l-165 219v8l165 220l92 -47l-132 -176l132 -177zM210 41l-166 219v8l166 220l92 -47l-132 -176l132 -177z" />
    <glyph glyph-name="registered" unicode="&#xae;" horiz-adv-x="382" 
d="M191 360c-48.667 0 -89.834 17 -123.501 51s-50.5 75 -50.5 123v1c0 48 17 89.167 51 123.5s75 51.5 123 51.5c48.667 0 89.834 -17 123.501 -51s50.5 -75 50.5 -123v-1c0 -48 -17 -89.167 -51 -123.5s-75 -51.5 -123 -51.5zM191 379c43.333 0 79.833 15.333 109.5 46
s44.5 67.334 44.5 110.001v1c0 42.667 -14.833 79.167 -44.5 109.5s-66.167 45.5 -109.5 45.5s-79.833 -15.333 -109.5 -46s-44.5 -67.334 -44.5 -110.001v-1c0 -42.667 14.833 -79.167 44.5 -109.5s66.167 -45.5 109.5 -45.5zM119 448v181.001h85c22 0 39.667 -5 53 -15
s20 -25 20 -45c0 -28.667 -13.333 -47.334 -40 -56.001l46 -65h-53l-39 57h-28v-57h-44zM163 541.001h38c20.667 0 31 8.33301 31 25s-10.333 25 -31 25h-38v-50z" />
    <glyph glyph-name="macron" unicode="&#xaf;" 
d="M80 606v88h340v-88h-340z" />
    <glyph glyph-name="degree" unicode="&#xb0;" horiz-adv-x="471" 
d="M235 381c-44 0 -82.667 16.167 -116 48.5s-50 70.166 -50 113.499v2c0 43.333 16.667 81 50 113s72 48 116 48s82.833 -16 116.5 -48s50.5 -69.667 50.5 -113v-2c0 -43.333 -16.833 -81.166 -50.5 -113.499s-72.5 -48.5 -116.5 -48.5zM235 447
c26.667 0 49.167 9.5 67.5 28.5s27.5 41.5 27.5 67.5v2c0 26 -9 48.333 -27 67s-40.667 28 -68 28c-26.667 0 -49 -9.33301 -67 -28s-27 -41 -27 -67v-2c0 -26 9 -48.5 27 -67.5s40.333 -28.5 67 -28.5z" />
    <glyph glyph-name="plusminus" unicode="&#xb1;" horiz-adv-x="634" 
d="M560 373h-189l1 -184h-110l1 184h-188v107l188 -1l-1 185h110l-1 -185l189 1v-107zM560 0h-485v103h485v-103z" />
    <glyph glyph-name="acute" unicode="&#xb4;" 
d="M162 595l104 164l110 -49l-123 -115h-91z" />
    <glyph glyph-name="paragraph" unicode="&#xb6;" horiz-adv-x="557" 
d="M346 0l-0.000976562 244h-18c-85.333 0 -154.666 19.833 -207.999 59.5s-80 95.5 -80 167.5v2c0 70 24.833 125.333 74.5 166s115.167 61 196.5 61h159v-700h-124z" />
    <glyph glyph-name="periodcentered" unicode="&#xb7;" horiz-adv-x="269" 
d="M68 238v137h133v-137h-133z" />
    <glyph glyph-name="cedilla" unicode="&#xb8;" 
d="M237 -166l-106 45l94 138h90z" />
    <glyph glyph-name="ordmasculine" unicode="&#xba;" horiz-adv-x="390" 
d="M194 402c-42.667 0 -78.334 14.5 -107.001 43.5s-43 64.5 -43 106.5v2c0 42 14.5 77.667 43.5 107s65.167 44 108.5 44c42.667 0 78.334 -14.5 107.001 -43.5s43 -64.5 43 -106.5v-2c0 -42 -14.5 -77.667 -43.5 -107s-65.167 -44 -108.5 -44zM51 282v58h288v-58h-288z
M196 464c24 0 43.333 8.5 58 25.5s22 37.833 22 62.5v2c0 24.667 -7.83301 45.667 -23.5 63s-35.167 26 -58.5 26c-24 0 -43.333 -8.5 -58 -25.5s-22 -37.833 -22 -62.5v-2c0 -24.667 7.83301 -45.667 23.5 -63s35.167 -26 58.5 -26z" />
    <glyph glyph-name="guillemotright" unicode="&#xbb;" horiz-adv-x="606" 
d="M396 41l-92 46l132 176l-132 177l92 48l166 -220v-8zM145 41l-92 46l132 176l-132 177l92 48l165 -220v-8z" />
    <glyph glyph-name="questiondown" unicode="&#xbf;" horiz-adv-x="541" 
d="M229 563v137h134v-137h-134zM276 -9c-70.667 0 -127.334 18.334 -170.001 55.001s-64 86 -64 148v2c0 59.333 18.333 105.166 55 137.499s85.334 53.833 146.001 64.5l10 81h81l20 -162l-5 -5c-123.333 -4.66699 -185 -42 -185 -112v-2c0 -28.667 10.333 -51.667 31 -69
s48.667 -26 84 -26c59.333 0 113.666 26.333 162.999 79l75 -80c-65.333 -74 -145.666 -111 -240.999 -111z" />
    <glyph glyph-name="Agrave" unicode="&#xc0;" horiz-adv-x="790" 
d="M30 0l308 705h114l308 -705h-130l-71 169h-331l-72 -169h-126zM273 278h241l-121 280zM331 913l113 -145h-95l-127 97z" />
    <glyph glyph-name="Aacute" unicode="&#xc1;" horiz-adv-x="790" 
d="M30 0l308 705h114l308 -705h-130l-71 169h-331l-72 -169h-126zM273 278h241l-121 280zM345 768l112 145l110 -48l-128 -97h-94z" />
    <glyph glyph-name="Acircumflex" unicode="&#xc2;" horiz-adv-x="790" 
d="M30 0l308 705h114l308 -705h-130l-71 169h-331l-72 -169h-126zM273 278h241l-121 280zM217 764l121 135h114l121 -135h-102l-77 58l-77 -58h-100z" />
    <glyph glyph-name="Atilde" unicode="&#xc3;" horiz-adv-x="790" 
d="M30 0l308 705h114l308 -705h-130l-71 169h-331l-72 -169h-126zM273 278h241l-121 280zM275 758l-67 21.001c11.333 41.333 25.5 72.166 42.5 92.499s40.167 30.5 69.5 30.5c20 0 47 -6.5 81 -19.5s56 -19.5 66 -19.5c14 0 24.833 3.66699 32.5 11
s15.167 19.666 22.5 36.999l68 -20c-12 -41.333 -26.5 -72.166 -43.5 -92.499s-39.833 -30.5 -68.5 -30.5c-20 0 -47 6.5 -81 19.5s-56 19.5 -66 19.5c-14 0 -24.833 -3.66699 -32.5 -11s-15.5 -20 -23.5 -38z" />
    <glyph glyph-name="Adieresis" unicode="&#xc4;" horiz-adv-x="790" 
d="M30 0l308 705h114l308 -705h-130l-71 169h-331l-72 -169h-126zM273 278h241l-121 280zM436 768v112h124v-112h-124zM230 768v112h125v-112h-125z" />
    <glyph glyph-name="Aring" unicode="&#xc5;" horiz-adv-x="790" 
d="M276 745c0 30.667 11.667 56 35 76s51.333 30 84 30s60.667 -10 84 -30s35 -45.333 35 -76c0 -34 -14.667 -61.333 -44 -82l290 -663h-130l-71 169h-331l-72 -169h-126l289 663c-28.667 20.667 -43 48 -43 82zM273 278h241l-121 280zM331 745c0 -16 6 -29.667 18 -41
s27.333 -17 46 -17s34.167 5.66699 46.5 17s18.5 25 18.5 41c0 16.667 -6.16699 30.5 -18.5 41.5s-27.833 16.5 -46.5 16.5s-34 -5.5 -46 -16.5s-18 -24.833 -18 -41.5z" />
    <glyph glyph-name="AE" unicode="&#xc6;" horiz-adv-x="1045" 
d="M12 0l391 700h581v-110h-374v-182h329v-110h-329v-188h379v-110h-502v169h-255l-93 -169h-127zM291 278h196v315h-20z" />
    <glyph glyph-name="Ccedilla" unicode="&#xc7;" horiz-adv-x="738" 
d="M371 -166l-106 44.998l78 116c-83.333 15.333 -151.5 55.833 -204.5 121.5s-79.5 142.834 -79.5 231.501v2c0 101.333 34 187 102 257s154.333 105 259 105c60.667 0 112.167 -9.33301 154.5 -28s82.166 -45.667 119.499 -81l-79 -91c-62.667 58 -128 87 -196 87
c-66 0 -121 -23.833 -165 -71.5s-66 -106.167 -66 -175.5v-2c0 -69.333 22 -128.166 66 -176.499s99 -72.5 165 -72.5c40 0 75.333 7.5 106 22.5s62.334 37.833 95.001 68.5l79 -80c-37.333 -38.667 -76.333 -68.167 -117 -88.5s-89 -31.833 -145 -34.5z" />
    <glyph glyph-name="Egrave" unicode="&#xc8;" horiz-adv-x="670" 
d="M288 903l113 -145h-95l-127 97zM90 0v700h519v-110h-396v-182h351v-110h-351v-188h401v-110h-524z" />
    <glyph glyph-name="Eacute" unicode="&#xc9;" horiz-adv-x="670" 
d="M302 758l112 145l110 -48l-128 -97h-94zM90 0v700h519v-110h-396v-182h351v-110h-351v-188h401v-110h-524z" />
    <glyph glyph-name="Ecircumflex" unicode="&#xca;" horiz-adv-x="670" 
d="M90 0v700h519v-110h-396v-182h351v-110h-351v-188h401v-110h-524zM173 758l121 135h114l121 -135h-102l-77 58l-77 -58h-100z" />
    <glyph glyph-name="Edieresis" unicode="&#xcb;" horiz-adv-x="670" 
d="M392 758v112h124v-112h-124zM186 758v112h125v-112h-125zM90 0v700h519v-110h-396v-182h351v-110h-351v-188h401v-110h-524z" />
    <glyph glyph-name="Igrave" unicode="&#xcc;" horiz-adv-x="317" 
d="M97 0v700h123v-700h-123zM96 903l113 -145h-95l-127 97z" />
    <glyph glyph-name="Iacute" unicode="&#xcd;" horiz-adv-x="317" 
d="M97 0v700h123v-700h-123zM110 758l112 145l110 -48l-128 -97h-94z" />
    <glyph glyph-name="Icircumflex" unicode="&#xce;" horiz-adv-x="317" 
d="M97 0v700h123v-700h-123zM-19 758l121 135h114l121 -135h-102l-77 58l-77 -58h-100z" />
    <glyph glyph-name="Idieresis" unicode="&#xcf;" horiz-adv-x="317" 
d="M97 0v700h123v-700h-123zM200 758v112h124v-112h-124zM-6 758v112h125v-112h-125z" />
    <glyph glyph-name="Eth" unicode="&#xd0;" horiz-adv-x="812" 
d="M120 0v296.999h-75v110h75v293h261c108.667 0 197.834 -33.167 267.501 -99.5s104.5 -149.166 104.5 -248.499v-2c0 -100 -34.833 -183.333 -104.5 -250s-158.834 -100 -267.501 -100h-261zM243 111.999h138c72.667 0 131.334 22 176.001 66s67 100.667 67 170v2
c0 69.333 -22.333 126.333 -67 171s-103.334 67 -176.001 67h-138v-181h175v-110h-175v-185z" />
    <glyph glyph-name="Ntilde" unicode="&#xd1;" horiz-adv-x="790" 
d="M275 747l-67 21.001c11.333 41.333 25.5 72.166 42.5 92.499s40.167 30.5 69.5 30.5c20 0 47 -6.5 81 -19.5s56 -19.5 66 -19.5c14 0 24.833 3.66699 32.5 11s15.167 19.666 22.5 36.999l68 -20c-12 -41.333 -26.5 -72.166 -43.5 -92.499s-39.833 -30.5 -68.5 -30.5
c-20 0 -47 6.5 -81 19.5s-56 19.5 -66 19.5c-14 0 -24.833 -3.66699 -32.5 -11s-15.5 -20 -23.5 -38zM90 0.000976562v700h114l375 -484v484h121v-700h-103l-386 498v-498h-121z" />
    <glyph glyph-name="Ograve" unicode="&#xd2;" horiz-adv-x="850" 
d="M361 913l113 -145h-95l-127 97zM424 -12c-106 0 -193.333 35 -262 105s-103 155 -103 255v2c0 100 34.667 185.333 104 256s157 106 263 106s193.333 -35 262 -105s103 -155 103 -255v-2c0 -100 -34.667 -185.333 -104 -256s-157 -106 -263 -106zM426 101
c68.667 0 125.167 23.833 169.5 71.5s66.5 106.167 66.5 175.5v2c0 69.333 -22.5 128.166 -67.5 176.499s-101.833 72.5 -170.5 72.5s-125.167 -23.833 -169.5 -71.5s-66.5 -106.167 -66.5 -175.5v-2c0 -69.333 22.5 -128.166 67.5 -176.499s101.833 -72.5 170.5 -72.5z" />
    <glyph glyph-name="Oacute" unicode="&#xd3;" horiz-adv-x="850" 
d="M375 768l112 145l110 -48l-128 -97h-94zM424 -12c-106 0 -193.333 35 -262 105s-103 155 -103 255v2c0 100 34.667 185.333 104 256s157 106 263 106s193.333 -35 262 -105s103 -155 103 -255v-2c0 -100 -34.667 -185.333 -104 -256s-157 -106 -263 -106zM426 101
c68.667 0 125.167 23.833 169.5 71.5s66.5 106.167 66.5 175.5v2c0 69.333 -22.5 128.166 -67.5 176.499s-101.833 72.5 -170.5 72.5s-125.167 -23.833 -169.5 -71.5s-66.5 -106.167 -66.5 -175.5v-2c0 -69.333 22.5 -128.166 67.5 -176.499s101.833 -72.5 170.5 -72.5z" />
    <glyph glyph-name="Ocircumflex" unicode="&#xd4;" horiz-adv-x="850" 
d="M424 -12c-106 0 -193.333 35 -262 105s-103 155 -103 255v2c0 100 34.667 185.333 104 256s157 106 263 106s193.333 -35 262 -105s103 -155 103 -255v-2c0 -100 -34.667 -185.333 -104 -256s-157 -106 -263 -106zM426 101c68.667 0 125.167 23.833 169.5 71.5
s66.5 106.167 66.5 175.5v2c0 69.333 -22.5 128.166 -67.5 176.499s-101.833 72.5 -170.5 72.5s-125.167 -23.833 -169.5 -71.5s-66.5 -106.167 -66.5 -175.5v-2c0 -69.333 22.5 -128.166 67.5 -176.499s101.833 -72.5 170.5 -72.5zM247 768l121 135h114l121 -135h-102
l-77 58l-77 -58h-100z" />
    <glyph glyph-name="Otilde" unicode="&#xd5;" horiz-adv-x="850" 
d="M305 758l-67 21.001c11.333 41.333 25.5 72.166 42.5 92.499s40.167 30.5 69.5 30.5c20 0 47 -6.5 81 -19.5s56 -19.5 66 -19.5c14 0 24.833 3.66699 32.5 11s15.167 19.666 22.5 36.999l68 -20c-12 -41.333 -26.5 -72.166 -43.5 -92.499s-39.833 -30.5 -68.5 -30.5
c-20 0 -47 6.5 -81 19.5s-56 19.5 -66 19.5c-14 0 -24.833 -3.66699 -32.5 -11s-15.5 -20 -23.5 -38zM424 -11.999c-106 0 -193.333 35 -262 105s-103 155 -103 255v2c0 100 34.667 185.333 104 256s157 106 263 106s193.333 -35 262 -105s103 -155 103 -255v-2
c0 -100 -34.667 -185.333 -104 -256s-157 -106 -263 -106zM426 101.001c68.667 0 125.167 23.833 169.5 71.5s66.5 106.167 66.5 175.5v2c0 69.333 -22.5 128.166 -67.5 176.499s-101.833 72.5 -170.5 72.5s-125.167 -23.833 -169.5 -71.5s-66.5 -106.167 -66.5 -175.5v-2
c0 -69.333 22.5 -128.166 67.5 -176.499s101.833 -72.5 170.5 -72.5z" />
    <glyph glyph-name="Odieresis" unicode="&#xd6;" horiz-adv-x="850" 
d="M466 768v112h124v-112h-124zM260 768v112h125v-112h-125zM424 -12c-106 0 -193.333 35 -262 105s-103 155 -103 255v2c0 100 34.667 185.333 104 256s157 106 263 106s193.333 -35 262 -105s103 -155 103 -255v-2c0 -100 -34.667 -185.333 -104 -256s-157 -106 -263 -106
zM426 101c68.667 0 125.167 23.833 169.5 71.5s66.5 106.167 66.5 175.5v2c0 69.333 -22.5 128.166 -67.5 176.499s-101.833 72.5 -170.5 72.5s-125.167 -23.833 -169.5 -71.5s-66.5 -106.167 -66.5 -175.5v-2c0 -69.333 22.5 -128.166 67.5 -176.499
s101.833 -72.5 170.5 -72.5z" />
    <glyph glyph-name="multiply" unicode="&#xd7;" horiz-adv-x="634" 
d="M479 113l-163 166l-163 -166l-75 75l166 163l-166 163l77 77l163 -166l163 166l75 -75l-166 -163l166 -163z" />
    <glyph glyph-name="Oslash" unicode="&#xd8;" horiz-adv-x="850" 
d="M424 -12c-76 0 -144 19.999 -204 59.999l-48 -53h-121l99 111c-60.667 66.667 -91 147.334 -91 242.001v2c0 100 34.667 185.333 104 256s157 106 263 106c76 0 144 -20 204 -60l48 53h121l-99 -112c60.667 -66 91 -146.333 91 -241v-2
c0 -100 -34.667 -185.333 -104 -256s-157 -106 -263 -106zM232 200.999l320 360c-37.333 26.667 -80 40 -128 40c-68.667 0 -125.5 -24.167 -170.5 -72.5s-67.5 -107.166 -67.5 -176.499v-2c0 -56.667 15.333 -106.334 46 -149.001zM426 98.999
c68.667 0 125.5 24.167 170.5 72.5s67.5 107.166 67.5 176.499v2c0 56.667 -15.333 106.334 -46 149.001l-320 -360c37.333 -26.667 80 -40 128 -40z" />
    <glyph glyph-name="Ugrave" unicode="&#xd9;" horiz-adv-x="757" 
d="M315 902l113 -145h-95l-127 97zM377 -11c-92.667 0 -165.499 26.334 -218.499 79.001s-79.5 129 -79.5 229v403h123v-398c0 -64 15.667 -113.333 47 -148s74.666 -52 129.999 -52s98.5 16.667 129.5 50s46.5 81.666 46.5 144.999v403h123v-397
c0 -102 -26.667 -179.833 -80 -233.5s-127 -80.5 -221 -80.5z" />
    <glyph glyph-name="Uacute" unicode="&#xda;" horiz-adv-x="757" 
d="M329 757l112 145l110 -48l-128 -97h-94zM377 -11c-92.667 0 -165.499 26.334 -218.499 79.001s-79.5 129 -79.5 229v403h123v-398c0 -64 15.667 -113.333 47 -148s74.666 -52 129.999 -52s98.5 16.667 129.5 50s46.5 81.666 46.5 144.999v403h123v-397
c0 -102 -26.667 -179.833 -80 -233.5s-127 -80.5 -221 -80.5z" />
    <glyph glyph-name="Ucircumflex" unicode="&#xdb;" horiz-adv-x="757" 
d="M377 -11c-92.667 0 -165.499 26.334 -218.499 79.001s-79.5 129 -79.5 229v403h123v-398c0 -64 15.667 -113.333 47 -148s74.666 -52 129.999 -52s98.5 16.667 129.5 50s46.5 81.666 46.5 144.999v403h123v-397c0 -102 -26.667 -179.833 -80 -233.5
s-127 -80.5 -221 -80.5zM200.001 757.001l121 135h114l121 -135h-102l-77 58l-77 -58h-100z" />
    <glyph glyph-name="Udieresis" unicode="&#xdc;" horiz-adv-x="757" 
d="M419 757v112h124v-112h-124zM213 757v112h125v-112h-125zM377 -11c-92.667 0 -165.499 26.334 -218.499 79.001s-79.5 129 -79.5 229v403h123v-398c0 -64 15.667 -113.333 47 -148s74.666 -52 129.999 -52s98.5 16.667 129.5 50s46.5 81.666 46.5 144.999v403h123v-397
c0 -102 -26.667 -179.833 -80 -233.5s-127 -80.5 -221 -80.5z" />
    <glyph glyph-name="Yacute" unicode="&#xdd;" horiz-adv-x="716" 
d="M296 0v276l-278 424h145l196 -310l198 310h141l-278 -421v-279h-124zM308 757l112 145l110 -48l-128 -97h-94z" />
    <glyph glyph-name="Thorn" unicode="&#xde;" horiz-adv-x="673" 
d="M213 227h143c46 0 82.667 11.667 110 35s41 53.333 41 90v2c0 40 -13.5 70.833 -40.5 92.5s-63.833 32.5 -110.5 32.5h-143v-252zM352 116l-139 0.000976562v-116h-123v700h123v-109h153c81.333 0 146 -21.333 194 -64s72 -99.334 72 -170.001v-2
c0 -75.333 -26.5 -134 -79.5 -176s-119.833 -63 -200.5 -63z" />
    <glyph glyph-name="germandbls" unicode="&#xdf;" horiz-adv-x="620" 
d="M296 -2v92.999c49.333 1.33301 87.333 11.333 114 30s40 44.667 40 78v2c0 31.333 -13.833 56.666 -41.5 75.999s-65.167 32 -112.5 38v82c75.333 36.667 113 83 113 139v2c0 28.667 -9.16699 51.834 -27.5 69.501s-42.833 26.5 -73.5 26.5
c-33.333 0 -60.333 -11.667 -81 -35s-31 -54.333 -31 -93v-506h-120v502c0 72.667 21.333 130 64 172s100.667 63 174 63c66 0 118.333 -17.833 157 -53.5s58 -80.5 58 -134.5v-2c0 -73.333 -36.667 -130.333 -110 -171c101.333 -34 152 -93.333 152 -178v-2
c0 -64 -24.667 -113.667 -74 -149s-116.333 -51.666 -201 -48.999z" />
    <glyph glyph-name="agrave" unicode="&#xe0;" horiz-adv-x="587" 
d="M519 0h-120v65c-42.667 -50.667 -99.667 -76 -171 -76c-52.667 0 -97.167 14.5 -133.5 43.5s-54.5 68.833 -54.5 119.5v2c0 56.667 19.667 99.667 59 129s91 44 155 44c51.333 0 100 -7.33301 146 -22v10c0 36.667 -11.167 64.667 -33.5 84s-54.5 29 -96.5 29
c-48 0 -98.333 -11 -151 -33l-33 97c65.333 29.333 132.333 44 201 44c76.667 0 134.5 -19.333 173.5 -58s58.5 -93.667 58.5 -165v-313zM402 191l0.000976562 29.999c-36 14 -76.333 21 -121 21c-38 0 -67.667 -7.33301 -89 -22s-32 -34.667 -32 -60v-2
c0 -24 9.66699 -43 29 -57s43.666 -21 72.999 -21c40.667 0 74.167 10.333 100.5 31s39.5 47.334 39.5 80.001zM251.001 594.999l-123 115l110 49l104 -164h-91z" />
    <glyph glyph-name="aacute" unicode="&#xe1;" horiz-adv-x="587" 
d="M519 0h-120v65c-42.667 -50.667 -99.667 -76 -171 -76c-52.667 0 -97.167 14.5 -133.5 43.5s-54.5 68.833 -54.5 119.5v2c0 56.667 19.667 99.667 59 129s91 44 155 44c51.333 0 100 -7.33301 146 -22v10c0 36.667 -11.167 64.667 -33.5 84s-54.5 29 -96.5 29
c-48 0 -98.333 -11 -151 -33l-33 97c65.333 29.333 132.333 44 201 44c76.667 0 134.5 -19.333 173.5 -58s58.5 -93.667 58.5 -165v-313zM402 191l0.000976562 29.999c-36 14 -76.333 21 -121 21c-38 0 -67.667 -7.33301 -89 -22s-32 -34.667 -32 -60v-2
c0 -24 9.66699 -43 29 -57s43.666 -21 72.999 -21c40.667 0 74.167 10.333 100.5 31s39.5 47.334 39.5 80.001zM246.001 594.999l104 164l110 -49l-123 -115h-91z" />
    <glyph glyph-name="acircumflex" unicode="&#xe2;" horiz-adv-x="587" 
d="M519 0h-120v65c-42.667 -50.667 -99.667 -76 -171 -76c-52.667 0 -97.167 14.5 -133.5 43.5s-54.5 68.833 -54.5 119.5v2c0 56.667 19.667 99.667 59 129s91 44 155 44c51.333 0 100 -7.33301 146 -22v10c0 36.667 -11.167 64.667 -33.5 84s-54.5 29 -96.5 29
c-48 0 -98.333 -11 -151 -33l-33 97c65.333 29.333 132.333 44 201 44c76.667 0 134.5 -19.333 173.5 -58s58.5 -93.667 58.5 -165v-313zM402 191l0.000976562 29.999c-36 14 -76.333 21 -121 21c-38 0 -67.667 -7.33301 -89 -22s-32 -34.667 -32 -60v-2
c0 -24 9.66699 -43 29 -57s43.666 -21 72.999 -21c40.667 0 74.167 10.333 100.5 31s39.5 47.334 39.5 80.001zM122.001 594.999l116 147h112l117 -147h-96l-78 67l-77 -67h-94z" />
    <glyph glyph-name="atilde" unicode="&#xe3;" horiz-adv-x="587" 
d="M519 0h-120v65c-42.667 -50.667 -99.667 -76 -171 -76c-52.667 0 -97.167 14.5 -133.5 43.5s-54.5 68.833 -54.5 119.5v2c0 56.667 19.667 99.667 59 129s91 44 155 44c51.333 0 100 -7.33301 146 -22v10c0 36.667 -11.167 64.667 -33.5 84s-54.5 29 -96.5 29
c-48 0 -98.333 -11 -151 -33l-33 97c65.333 29.333 132.333 44 201 44c76.667 0 134.5 -19.333 173.5 -58s58.5 -93.667 58.5 -165v-313zM402 191l0.000976562 29.999c-36 14 -76.333 21 -121 21c-38 0 -67.667 -7.33301 -89 -22s-32 -34.667 -32 -60v-2
c0 -24 9.66699 -43 29 -57s43.666 -21 72.999 -21c40.667 0 74.167 10.333 100.5 31s39.5 47.334 39.5 80.001zM177.001 584.999l-67 21c11.333 42.667 25.5 74 42.5 94s40.167 30 69.5 30c20 0 46.333 -6.66699 79 -20s54.334 -20 65.001 -20
c13.333 0 23.833 3.66699 31.5 11s15.5 20.333 23.5 39l67 -20c-11.333 -42.667 -25.5 -74.167 -42.5 -94.5s-40.167 -30.5 -69.5 -30.5c-20 0 -46.333 6.66699 -79 20s-54.334 20 -65.001 20c-13.333 0 -23.833 -3.66699 -31.5 -11s-15.5 -20.333 -23.5 -39z" />
    <glyph glyph-name="adieresis" unicode="&#xe4;" horiz-adv-x="587" 
d="M519 0h-120v65c-42.667 -50.667 -99.667 -76 -171 -76c-52.667 0 -97.167 14.5 -133.5 43.5s-54.5 68.833 -54.5 119.5v2c0 56.667 19.667 99.667 59 129s91 44 155 44c51.333 0 100 -7.33301 146 -22v10c0 36.667 -11.167 64.667 -33.5 84s-54.5 29 -96.5 29
c-48 0 -98.333 -11 -151 -33l-33 97c65.333 29.333 132.333 44 201 44c76.667 0 134.5 -19.333 173.5 -58s58.5 -93.667 58.5 -165v-313zM402 191l0.000976562 29.999c-36 14 -76.333 21 -121 21c-38 0 -67.667 -7.33301 -89 -22s-32 -34.667 -32 -60v-2
c0 -24 9.66699 -43 29 -57s43.666 -21 72.999 -21c40.667 0 74.167 10.333 100.5 31s39.5 47.334 39.5 80.001zM330.001 594.999v119h123v-119h-123zM135.001 594.999v119h123v-119h-123z" />
    <glyph glyph-name="aring" unicode="&#xe5;" horiz-adv-x="587" 
d="M519 0h-120v65c-42.667 -50.667 -99.667 -76 -171 -76c-52.667 0 -97.167 14.5 -133.5 43.5s-54.5 68.833 -54.5 119.5v2c0 56.667 19.667 99.667 59 129s91 44 155 44c51.333 0 100 -7.33301 146 -22v10c0 36.667 -11.167 64.667 -33.5 84s-54.5 29 -96.5 29
c-48 0 -98.333 -11 -151 -33l-33 97c65.333 29.333 132.333 44 201 44c76.667 0 134.5 -19.333 173.5 -58s58.5 -93.667 58.5 -165v-313zM402 191l0.000976562 29.999c-36 14 -76.333 21 -121 21c-38 0 -67.667 -7.33301 -89 -22s-32 -34.667 -32 -60v-2
c0 -24 9.66699 -43 29 -57s43.666 -21 72.999 -21c40.667 0 74.167 10.333 100.5 31s39.5 47.334 39.5 80.001zM178.001 704.999c0 30.667 11.333 57 34 79s50 33 82 33s59.333 -11 82 -33s34 -48.333 34 -79s-11.333 -57 -34 -79s-50 -33 -82 -33s-59.333 11 -82 33
s-34 48.333 -34 79zM227.001 704.999c0 -18.667 6.5 -34.5 19.5 -47.5s28.833 -19.5 47.5 -19.5s34.5 6.5 47.5 19.5s19.5 28.833 19.5 47.5s-6.5 34.5 -19.5 47.5s-28.833 19.5 -47.5 19.5s-34.5 -6.5 -47.5 -19.5s-19.5 -28.833 -19.5 -47.5z" />
    <glyph glyph-name="ae" unicode="&#xe6;" horiz-adv-x="952" 
d="M240 -11c-57.333 0 -104.997 14.333 -142.997 43s-57 68.667 -57 120v2c0 56.667 19.5 99.667 58.5 129s90.167 44 153.5 44c50.667 0 99 -7.33301 145 -22v10c0 75.333 -43 113 -129 113c-46.667 0 -96.334 -11 -149.001 -33l-33 97
c65.333 29.333 131.666 44 198.999 44c90 0 151.667 -29 185 -87c46 60 107.667 90 185 90c78.667 0 140 -27.167 184 -81.5s66 -121.833 66 -202.5c0 -14.667 -0.333008 -26 -1 -34h-388c6.66699 -42 23.667 -74.833 51 -98.5s60.666 -35.5 99.999 -35.5
c52.667 0 100.667 21 144 63l71 -63c-56 -66 -128.333 -99 -217 -99c-84.667 0 -152.667 30 -204 90c-71.333 -59.333 -145 -89 -221 -89zM514.003 301h272c-4 40.667 -17.667 74 -41 100s-54.333 39 -93 39c-36.667 0 -67.5 -12.833 -92.5 -38.5
s-40.167 -59.167 -45.5 -100.5zM260.003 80c55.333 0 107.333 22.668 156 68.001c-10 25.333 -16.333 50.666 -19 75.999c-34 12 -73.333 18 -118 18c-37.333 0 -66.5 -7.33301 -87.5 -22s-31.5 -34.667 -31.5 -60v-2c0 -24 9.5 -43 28.5 -57s42.833 -21 71.5 -21z" />
    <glyph glyph-name="ccedilla" unicode="&#xe7;" horiz-adv-x="571" 
d="M276 -166l-105.999 45.001l80 118c-60.667 14.667 -109.667 46.5 -147 95.5s-56 105.167 -56 168.5v2c0 76 26.167 141 78.5 195s117.5 81 195.5 81c85.333 0 155.666 -30.333 210.999 -91l-75 -81c-42 44 -87.667 66 -137 66c-43.333 0 -79.5 -16.333 -108.5 -49
s-43.5 -72.334 -43.5 -119.001v-2c0 -48 14.833 -88.333 44.5 -121s67.5 -49 113.5 -49c48.667 0 94.334 22 137.001 66l73 -72c-54.667 -61.333 -119.334 -94 -194.001 -98z" />
    <glyph glyph-name="egrave" unicode="&#xe8;" horiz-adv-x="604" 
d="M318 -12c-77.333 0 -141.834 25.5 -193.501 76.5s-77.5 116.833 -77.5 197.5v2c0 76.667 24.333 141.667 73 195s110.334 80 185.001 80c80 0 142.167 -27.167 186.5 -81.5s66.5 -121.833 66.5 -202.5c0 -6.66699 -0.666992 -18 -2 -34h-388
c6.66699 -42 23.667 -74.833 51 -98.5s61 -35.5 101 -35.5c52 0 99.667 21 143 63l71 -63c-54.667 -66 -126.667 -99 -216 -99zM166.999 301h271.001c-4 40.667 -17.667 74 -41 100s-54.333 39 -93 39c-36.667 0 -67.334 -12.833 -92.001 -38.5s-39.667 -59.167 -45 -100.5z
M260 595l-123 115l110 49l104 -164h-91z" />
    <glyph glyph-name="eacute" unicode="&#xe9;" horiz-adv-x="604" 
d="M255 595l104 164l110 -49l-123 -115h-91zM318 -12c-77.333 0 -141.834 25.5 -193.501 76.5s-77.5 116.833 -77.5 197.5v2c0 76.667 24.333 141.667 73 195s110.334 80 185.001 80c80 0 142.167 -27.167 186.5 -81.5s66.5 -121.833 66.5 -202.5
c0 -6.66699 -0.666992 -18 -2 -34h-388c6.66699 -42 23.667 -74.833 51 -98.5s61 -35.5 101 -35.5c52 0 99.667 21 143 63l71 -63c-54.667 -66 -126.667 -99 -216 -99zM166.999 301h271.001c-4 40.667 -17.667 74 -41 100s-54.333 39 -93 39
c-36.667 0 -67.334 -12.833 -92.001 -38.5s-39.667 -59.167 -45 -100.5z" />
    <glyph glyph-name="ecircumflex" unicode="&#xea;" horiz-adv-x="604" 
d="M131 595l116 147h112l117 -147h-96l-78 67l-77 -67h-94zM318 -12c-77.333 0 -141.834 25.5 -193.501 76.5s-77.5 116.833 -77.5 197.5v2c0 76.667 24.333 141.667 73 195s110.334 80 185.001 80c80 0 142.167 -27.167 186.5 -81.5s66.5 -121.833 66.5 -202.5
c0 -6.66699 -0.666992 -18 -2 -34h-388c6.66699 -42 23.667 -74.833 51 -98.5s61 -35.5 101 -35.5c52 0 99.667 21 143 63l71 -63c-54.667 -66 -126.667 -99 -216 -99zM166.999 301h271.001c-4 40.667 -17.667 74 -41 100s-54.333 39 -93 39
c-36.667 0 -67.334 -12.833 -92.001 -38.5s-39.667 -59.167 -45 -100.5z" />
    <glyph glyph-name="edieresis" unicode="&#xeb;" horiz-adv-x="604" 
d="M339 595v119h123v-119h-123zM144 595v119h123v-119h-123zM318 -12c-77.333 0 -141.834 25.5 -193.501 76.5s-77.5 116.833 -77.5 197.5v2c0 76.667 24.333 141.667 73 195s110.334 80 185.001 80c80 0 142.167 -27.167 186.5 -81.5s66.5 -121.833 66.5 -202.5
c0 -6.66699 -0.666992 -18 -2 -34h-388c6.66699 -42 23.667 -74.833 51 -98.5s61 -35.5 101 -35.5c52 0 99.667 21 143 63l71 -63c-54.667 -66 -126.667 -99 -216 -99zM166.999 301h271.001c-4 40.667 -17.667 74 -41 100s-54.333 39 -93 39
c-36.667 0 -67.334 -12.833 -92.001 -38.5s-39.667 -59.167 -45 -100.5z" />
    <glyph glyph-name="igrave" unicode="&#xec;" horiz-adv-x="286" 
d="M83 0v528h121v-528h-121zM100 595l-123 115l110 49l104 -164h-91z" />
    <glyph glyph-name="iacute" unicode="&#xed;" horiz-adv-x="286" 
d="M95 595l104 164l110 -49l-123 -115h-91zM83 0v528h121v-528h-121z" />
    <glyph glyph-name="icircumflex" unicode="&#xee;" horiz-adv-x="286" 
d="M-29 595l116 147h112l117 -147h-96l-78 67l-77 -67h-94zM83 0v528h121v-528h-121z" />
    <glyph glyph-name="idieresis" unicode="&#xef;" horiz-adv-x="286" 
d="M179 595v119h123v-119h-123zM-16 595v119h123v-119h-123zM83 0v528h121v-528h-121z" />
    <glyph glyph-name="eth" unicode="&#xf0;" horiz-adv-x="657" 
d="M519 666l-78.002 -25.001c112 -113.333 168 -230.666 168 -351.999v-2c0 -85.333 -25.833 -156.5 -77.5 -213.5s-120.167 -85.5 -205.5 -85.5c-79.333 0 -145.666 26.833 -198.999 80.5s-80 120.167 -80 199.5v2c0 72.667 23.5 133.667 70.5 183s103.5 74 169.5 74
c50 0 98.667 -16.667 146 -50c-24.667 42 -60 85 -106 129l-121 -37l-24 67l84 26c-33.333 28 -62.666 50.667 -87.999 68h164l39 -33l114 35zM328.998 93.999c47.333 0 85.833 15.832 115.5 47.499s44.5 71.167 44.5 118.5v2c0 46.667 -15.333 86 -46 118s-70 48 -118 48
c-47.333 0 -85.333 -15.667 -114 -47s-43 -70.666 -43 -117.999v-2c0 -46 15.333 -85.333 46 -118s69 -49 115 -49z" />
    <glyph glyph-name="ntilde" unicode="&#xf1;" horiz-adv-x="620" 
d="M76 0v528.001h121v-82c42 62 97 93 165 93c58.667 0 104.667 -18.333 138 -55s50 -86 50 -148v-336h-121v300c0 41.333 -9.83301 73.166 -29.5 95.499s-47.5 33.5 -83.5 33.5c-35.333 0 -64 -11.667 -86 -35s-33 -55.333 -33 -96v-298h-121zM194 585.001l-67 21
c11.333 42.667 25.5 74 42.5 94s40.167 30 69.5 30c20 0 46.333 -6.66699 79 -20s54.334 -20 65.001 -20c14 0 24.667 3.66699 32 11s15 20.333 23 39l67 -20c-11.333 -42.667 -25.5 -74.167 -42.5 -94.5s-40.167 -30.5 -69.5 -30.5c-20 0 -46.333 6.66699 -79 20
s-54.334 20 -65.001 20c-14 0 -24.667 -3.66699 -32 -11s-15 -20.333 -23 -39z" />
    <glyph glyph-name="ograve" unicode="&#xf2;" horiz-adv-x="657" 
d="M327 -12c-80 0 -146.667 26.499 -200 79.499s-80 117.5 -80 193.5v2c0 76.667 27 141.834 81 195.501s121 80.5 201 80.5s146.833 -26.667 200.5 -80s80.5 -118 80.5 -194v-2c0 -76 -27 -140.833 -81 -194.5s-121.333 -80.5 -202 -80.5zM329 92.999
c48 0 86.667 16.3311 116 48.998s44 72.334 44 119.001v2c0 47.333 -15.333 87.5 -46 120.5s-69.334 49.5 -116.001 49.5c-47.333 0 -85.666 -16.167 -114.999 -48.5s-44 -72.166 -44 -119.499v-2c0 -46.667 15.333 -86.667 46 -120s69 -50 115 -50zM285 594.997l-123 115
l110 49l104 -164h-91z" />
    <glyph glyph-name="oacute" unicode="&#xf3;" horiz-adv-x="657" 
d="M280 595l104 164l110 -49l-123 -115h-91zM327 -12c-80 0 -146.667 26.499 -200 79.499s-80 117.5 -80 193.5v2c0 76.667 27 141.834 81 195.501s121 80.5 201 80.5s146.833 -26.667 200.5 -80s80.5 -118 80.5 -194v-2c0 -76 -27 -140.833 -81 -194.5
s-121.333 -80.5 -202 -80.5zM329 92.999c48 0 86.667 16.3311 116 48.998s44 72.334 44 119.001v2c0 47.333 -15.333 87.5 -46 120.5s-69.334 49.5 -116.001 49.5c-47.333 0 -85.666 -16.167 -114.999 -48.5s-44 -72.166 -44 -119.499v-2c0 -46.667 15.333 -86.667 46 -120
s69 -50 115 -50z" />
    <glyph glyph-name="ocircumflex" unicode="&#xf4;" horiz-adv-x="657" 
d="M156 595l116 147h112l117 -147h-96l-78 67l-77 -67h-94zM327 -12c-80 0 -146.667 26.499 -200 79.499s-80 117.5 -80 193.5v2c0 76.667 27 141.834 81 195.501s121 80.5 201 80.5s146.833 -26.667 200.5 -80s80.5 -118 80.5 -194v-2c0 -76 -27 -140.833 -81 -194.5
s-121.333 -80.5 -202 -80.5zM329 92.999c48 0 86.667 16.3311 116 48.998s44 72.334 44 119.001v2c0 47.333 -15.333 87.5 -46 120.5s-69.334 49.5 -116.001 49.5c-47.333 0 -85.666 -16.167 -114.999 -48.5s-44 -72.166 -44 -119.499v-2c0 -46.667 15.333 -86.667 46 -120
s69 -50 115 -50z" />
    <glyph glyph-name="otilde" unicode="&#xf5;" horiz-adv-x="657" 
d="M327 -12c-80 0 -146.667 26.499 -200 79.499s-80 117.5 -80 193.5v2c0 76.667 27 141.834 81 195.501s121 80.5 201 80.5s146.833 -26.667 200.5 -80s80.5 -118 80.5 -194v-2c0 -76 -27 -140.833 -81 -194.5s-121.333 -80.5 -202 -80.5zM329 92.999
c48 0 86.667 16.3311 116 48.998s44 72.334 44 119.001v2c0 47.333 -15.333 87.5 -46 120.5s-69.334 49.5 -116.001 49.5c-47.333 0 -85.666 -16.167 -114.999 -48.5s-44 -72.166 -44 -119.499v-2c0 -46.667 15.333 -86.667 46 -120s69 -50 115 -50zM210 584.997l-67 21
c11.333 42.667 25.5 74 42.5 94s40.167 30 69.5 30c20 0 46.333 -6.66699 79 -20s54.334 -20 65.001 -20c14 0 24.667 3.66699 32 11s15 20.333 23 39l67 -20c-11.333 -42.667 -25.5 -74.167 -42.5 -94.5s-40.167 -30.5 -69.5 -30.5c-20 0 -46.333 6.66699 -79 20
s-54.334 20 -65.001 20c-14 0 -24.667 -3.66699 -32 -11s-15 -20.333 -23 -39z" />
    <glyph glyph-name="odieresis" unicode="&#xf6;" horiz-adv-x="657" 
d="M364 595v119h123v-119h-123zM169 595v119h123v-119h-123zM327 -12c-80 0 -146.667 26.499 -200 79.499s-80 117.5 -80 193.5v2c0 76.667 27 141.834 81 195.501s121 80.5 201 80.5s146.833 -26.667 200.5 -80s80.5 -118 80.5 -194v-2c0 -76 -27 -140.833 -81 -194.5
s-121.333 -80.5 -202 -80.5zM329 92.999c48 0 86.667 16.3311 116 48.998s44 72.334 44 119.001v2c0 47.333 -15.333 87.5 -46 120.5s-69.334 49.5 -116.001 49.5c-47.333 0 -85.666 -16.167 -114.999 -48.5s-44 -72.166 -44 -119.499v-2c0 -46.667 15.333 -86.667 46 -120
s69 -50 115 -50z" />
    <glyph glyph-name="divide" unicode="&#xf7;" horiz-adv-x="634" 
d="M250 497v127h134v-127h-134zM566 300h-498v104h498v-104zM250 80v128h134v-128h-134z" />
    <glyph glyph-name="oslash" unicode="&#xf8;" horiz-adv-x="657" 
d="M327 -12c-55.333 0 -105.667 14.3311 -151 42.998l-34 -36h-110l80 89c-43.333 50.667 -65 109.667 -65 177v2c0 76.667 27 141.834 81 195.501s121 80.5 201 80.5c56 0 106.333 -14.333 151 -43l35 38h110l-81 -91c44 -49.333 66 -108.666 66 -177.999v-2
c0 -76 -27 -140.833 -81 -194.5s-121.333 -80.5 -202 -80.5zM189.999 171.998l218 239.999c-24.667 16 -51.667 24 -81 24c-48 0 -87 -16.5 -117 -49.5s-45 -73.5 -45 -121.5v-2c0 -33.333 8.33301 -63.666 25 -90.999zM328.999 90.9971c48.667 0 88 16.499 118 49.499
s45 73.167 45 120.5v2c0 32.667 -8.33301 63.334 -25 92.001l-219 -241c23.333 -15.333 50.333 -23 81 -23z" />
    <glyph glyph-name="ugrave" unicode="&#xf9;" horiz-adv-x="620" 
d="M258 -11c-58.667 0 -104.667 18.332 -138 54.999s-50 86 -50 148v336h121v-300c0 -41.333 9.83301 -73.166 29.5 -95.499s47.5 -33.5 83.5 -33.5c35.333 0 64 11.667 86 35s33 55.333 33 96v298h121v-528h-121v82c-42 -62 -97 -93 -165 -93zM263 594.999l-123 115l110 49
l104 -164h-91z" />
    <glyph glyph-name="uacute" unicode="&#xfa;" horiz-adv-x="620" 
d="M258 595l104 164l110 -49l-123 -115h-91zM258 -11c-58.667 0 -104.667 18.332 -138 54.999s-50 86 -50 148v336h121v-300c0 -41.333 9.83301 -73.166 29.5 -95.499s47.5 -33.5 83.5 -33.5c35.333 0 64 11.667 86 35s33 55.333 33 96v298h121v-528h-121v82
c-42 -62 -97 -93 -165 -93z" />
    <glyph glyph-name="ucircumflex" unicode="&#xfb;" horiz-adv-x="620" 
d="M134 595l116 147h112l117 -147h-96l-78 67l-77 -67h-94zM258 -11c-58.667 0 -104.667 18.332 -138 54.999s-50 86 -50 148v336h121v-300c0 -41.333 9.83301 -73.166 29.5 -95.499s47.5 -33.5 83.5 -33.5c35.333 0 64 11.667 86 35s33 55.333 33 96v298h121v-528h-121v82
c-42 -62 -97 -93 -165 -93z" />
    <glyph glyph-name="udieresis" unicode="&#xfc;" horiz-adv-x="620" 
d="M342 595v119h123v-119h-123zM147 595v119h123v-119h-123zM258 -11c-58.667 0 -104.667 18.332 -138 54.999s-50 86 -50 148v336h121v-300c0 -41.333 9.83301 -73.166 29.5 -95.499s47.5 -33.5 83.5 -33.5c35.333 0 64 11.667 86 35s33 55.333 33 96v298h121v-528h-121v82
c-42 -62 -97 -93 -165 -93z" />
    <glyph glyph-name="yacute" unicode="&#xfd;" horiz-adv-x="596" 
d="M184 -163c-44 0 -85.667 10.667 -125 32l41 90c24.667 -13.333 48.334 -20 71.001 -20c17.333 0 31.666 4.5 42.999 13.5s22 24.833 32 47.5l-220 528h129l150 -392l137 392h126l-210 -543c-21.333 -54 -45 -92.167 -71 -114.5s-60.333 -33.5 -103 -33.5zM250 595
l104 164l110 -49l-123 -115h-91z" />
    <glyph glyph-name="thorn" unicode="&#xfe;" horiz-adv-x="671" 
d="M76 -160l-0.00195312 890h121v-290c46.667 66 106.334 99 179.001 99c66.667 0 124.334 -24.833 173.001 -74.5s73 -116.167 73 -199.5v-2c0 -83.333 -24.167 -149.833 -72.5 -199.5s-105.833 -74.5 -172.5 -74.5c-73.333 0 -133.333 31 -180 93v-242h-121zM347.998 94
c42.667 0 78.5 15.5 107.5 46.5s43.5 71.833 43.5 122.5v2c0 50 -14.667 90.667 -44 122s-65 47 -107 47s-78.167 -15.833 -108.5 -47.5s-45.5 -72.167 -45.5 -121.5v-2c0 -49.333 15.167 -89.833 45.5 -121.5s66.5 -47.5 108.5 -47.5z" />
    <glyph glyph-name="ydieresis" unicode="&#xff;" horiz-adv-x="596" 
d="M184 -163c-44 0 -85.667 10.667 -125 32l41 90c24.667 -13.333 48.334 -20 71.001 -20c17.333 0 31.666 4.5 42.999 13.5s22 24.833 32 47.5l-220 528h129l150 -392l137 392h126l-210 -543c-21.333 -54 -45 -92.167 -71 -114.5s-60.333 -33.5 -103 -33.5zM334 595v119
h123v-119h-123zM139 595v119h123v-119h-123z" />
    <glyph glyph-name="Amacron" unicode="&#x100;" horiz-adv-x="790" 
d="M30 0l308 705h114l308 -705h-130l-71 169h-331l-72 -169h-126zM273 278h241l-121 280zM216 779v90h359v-90h-359z" />
    <glyph glyph-name="amacron" unicode="&#x101;" horiz-adv-x="587" 
d="M519 0h-120v65c-42.667 -50.667 -99.667 -76 -171 -76c-52.667 0 -97.167 14.5 -133.5 43.5s-54.5 68.833 -54.5 119.5v2c0 56.667 19.667 99.667 59 129s91 44 155 44c51.333 0 100 -7.33301 146 -22v10c0 36.667 -11.167 64.667 -33.5 84s-54.5 29 -96.5 29
c-48 0 -98.333 -11 -151 -33l-33 97c65.333 29.333 132.333 44 201 44c76.667 0 134.5 -19.333 173.5 -58s58.5 -93.667 58.5 -165v-313zM402 191l0.000976562 29.999c-36 14 -76.333 21 -121 21c-38 0 -67.667 -7.33301 -89 -22s-32 -34.667 -32 -60v-2
c0 -24 9.66699 -43 29 -57s43.666 -21 72.999 -21c40.667 0 74.167 10.333 100.5 31s39.5 47.334 39.5 80.001zM124.001 605.999v88h340v-88h-340z" />
    <glyph glyph-name="Abreve" unicode="&#x102;" horiz-adv-x="790" 
d="M30 0l308 705h114l308 -705h-130l-71 169h-331l-72 -169h-126zM273 278h241l-121 280zM395 766c-48.667 0 -88.667 11.833 -120 35.5s-49 56.5 -53 98.5h86c12.667 -33.333 41.667 -50 87 -50s74.333 16.667 87 50h86c-4 -42 -21.667 -74.833 -53 -98.5
s-71.333 -35.5 -120 -35.5z" />
    <glyph glyph-name="abreve" unicode="&#x103;" horiz-adv-x="587" 
d="M519 0h-120v65c-42.667 -50.667 -99.667 -76 -171 -76c-52.667 0 -97.167 14.5 -133.5 43.5s-54.5 68.833 -54.5 119.5v2c0 56.667 19.667 99.667 59 129s91 44 155 44c51.333 0 100 -7.33301 146 -22v10c0 36.667 -11.167 64.667 -33.5 84s-54.5 29 -96.5 29
c-48 0 -98.333 -11 -151 -33l-33 97c65.333 29.333 132.333 44 201 44c76.667 0 134.5 -19.333 173.5 -58s58.5 -93.667 58.5 -165v-313zM402 191l0.000976562 29.999c-36 14 -76.333 21 -121 21c-38 0 -67.667 -7.33301 -89 -22s-32 -34.667 -32 -60v-2
c0 -24 9.66699 -43 29 -57s43.666 -21 72.999 -21c40.667 0 74.167 10.333 100.5 31s39.5 47.334 39.5 80.001zM294.001 592.999c-48.667 0 -88.498 12.833 -119.498 38.5s-48.167 61.167 -51.5 106.5h83c13.333 -40.667 42.666 -61 87.999 -61s74.666 20.333 87.999 61h84
c-4 -45.333 -21.5 -80.833 -52.5 -106.5s-70.833 -38.5 -119.5 -38.5z" />
    <glyph glyph-name="Aogonek" unicode="&#x104;" horiz-adv-x="790" 
d="M768 -164c-51.333 -4.66699 -91.5 0.833008 -120.5 16.5s-43.5 37.5 -43.5 65.5c0 26.667 13.333 54 40 82h-14l-71 169h-331l-72 -169h-126l308 705h114l308 -705h-31c-22 -22 -33 -43 -33 -63c0 -28.667 24 -43 72 -43v-58zM273 278h241l-121 280z" />
    <glyph glyph-name="aogonek" unicode="&#x105;" horiz-adv-x="587" 
d="M525 -164c-51.333 -4.66699 -91.5 0.833008 -120.5 16.5s-43.5 37.5 -43.5 65.5c0 26.667 13.333 54 40 82h-2v65c-42.667 -50.667 -99.667 -76 -171 -76c-52.667 0 -97.167 14.5 -133.5 43.5s-54.5 68.833 -54.5 119.5v2c0 56.667 19.667 99.667 59 129s91 44 155 44
c51.333 0 100 -7.33301 146 -22v10c0 36.667 -11.167 64.667 -33.5 84s-54.5 29 -96.5 29c-48 0 -98.333 -11 -151 -33l-33 97c65.333 29.333 132.333 44 201 44c76.667 0 134.5 -19.333 173.5 -58s58.5 -93.667 58.5 -165v-313h-33c-22 -22 -33 -43 -33 -63
c0 -28.667 24 -43 72 -43v-58zM402 191l0.000976562 29.999c-36 14 -76.333 21 -121 21c-38 0 -67.667 -7.33301 -89 -22s-32 -34.667 -32 -60v-2c0 -24 9.66699 -43 29 -57s43.666 -21 72.999 -21c40.667 0 74.167 10.333 100.5 31s39.5 47.334 39.5 80.001z" />
    <glyph glyph-name="Cacute" unicode="&#x106;" horiz-adv-x="738" 
d="M415 -12c-101.333 0 -186 34.667 -254 104s-102 154.666 -102 255.999v2c0 101.333 34 187 102 257s154.333 105 259 105c60.667 0 112.167 -9.33301 154.5 -28s82.166 -45.667 119.499 -81l-79 -91c-62.667 58 -128 87 -196 87c-66 0 -121 -23.833 -165 -71.5
s-66 -106.167 -66 -175.5v-2c0 -69.333 22 -128.166 66 -176.499s99 -72.5 165 -72.5c40 0 75.333 7.5 106 22.5s62.334 37.833 95.001 68.5l79 -80c-39.333 -41.333 -81 -72.333 -125 -93s-97 -31 -159 -31zM359 768l112 145l110 -48l-128 -97h-94z" />
    <glyph glyph-name="cacute" unicode="&#x107;" horiz-adv-x="571" 
d="M267 595l104 164l110 -49l-123 -115h-91zM320 -12c-78 0 -142.999 26.501 -194.999 79.501s-78 117.5 -78 193.5v2c0 76 26.167 141 78.5 195s117.5 81 195.5 81c85.333 0 155.666 -30.333 210.999 -91l-75 -81c-42 44 -87.667 66 -137 66
c-43.333 0 -79.5 -16.333 -108.5 -49s-43.5 -72.334 -43.5 -119.001v-2c0 -48 14.833 -88.333 44.5 -121s67.5 -49 113.5 -49c48.667 0 94.334 22 137.001 66l73 -72c-28.667 -32 -59.834 -56.5 -93.501 -73.5s-74.5 -25.5 -122.5 -25.5z" />
    <glyph glyph-name="Cdotaccent" unicode="&#x10a;" horiz-adv-x="738" 
d="M344 768v112h128v-112h-128zM415 -12c-101.333 0 -186 34.667 -254 104s-102 154.666 -102 255.999v2c0 101.333 34 187 102 257s154.333 105 259 105c60.667 0 112.167 -9.33301 154.5 -28s82.166 -45.667 119.499 -81l-79 -91c-62.667 58 -128 87 -196 87
c-66 0 -121 -23.833 -165 -71.5s-66 -106.167 -66 -175.5v-2c0 -69.333 22 -128.166 66 -176.499s99 -72.5 165 -72.5c40 0 75.333 7.5 106 22.5s62.334 37.833 95.001 68.5l79 -80c-39.333 -41.333 -81 -72.333 -125 -93s-97 -31 -159 -31z" />
    <glyph glyph-name="cdotaccent" unicode="&#x10b;" horiz-adv-x="571" 
d="M320 -12c-78 0 -142.999 26.501 -194.999 79.501s-78 117.5 -78 193.5v2c0 76 26.167 141 78.5 195s117.5 81 195.5 81c85.333 0 155.666 -30.333 210.999 -91l-75 -81c-42 44 -87.667 66 -137 66c-43.333 0 -79.5 -16.333 -108.5 -49s-43.5 -72.334 -43.5 -119.001v-2
c0 -48 14.833 -88.333 44.5 -121s67.5 -49 113.5 -49c48.667 0 94.334 22 137.001 66l73 -72c-28.667 -32 -59.834 -56.5 -93.501 -73.5s-74.5 -25.5 -122.5 -25.5zM252.001 595.001v119h126v-119h-126z" />
    <glyph glyph-name="Ccaron" unicode="&#x10c;" horiz-adv-x="738" 
d="M415 -12c-101.333 0 -186 34.667 -254 104s-102 154.666 -102 255.999v2c0 101.333 34 187 102 257s154.333 105 259 105c60.667 0 112.167 -9.33301 154.5 -28s82.166 -45.667 119.499 -81l-79 -91c-62.667 58 -128 87 -196 87c-66 0 -121 -23.833 -165 -71.5
s-66 -106.167 -66 -175.5v-2c0 -69.333 22 -128.166 66 -176.499s99 -72.5 165 -72.5c40 0 75.333 7.5 106 22.5s62.334 37.833 95.001 68.5l79 -80c-39.333 -41.333 -81 -72.333 -125 -93s-97 -31 -159 -31zM586 903l-121 -135h-114l-121 135h102l77 -57l77 57h100z" />
    <glyph glyph-name="ccaron" unicode="&#x10d;" horiz-adv-x="571" 
d="M488 742l-117 -147h-112l-116 147h96l77 -67l78 67h94zM320 -12c-78 0 -142.999 26.501 -194.999 79.501s-78 117.5 -78 193.5v2c0 76 26.167 141 78.5 195s117.5 81 195.5 81c85.333 0 155.666 -30.333 210.999 -91l-75 -81c-42 44 -87.667 66 -137 66
c-43.333 0 -79.5 -16.333 -108.5 -49s-43.5 -72.334 -43.5 -119.001v-2c0 -48 14.833 -88.333 44.5 -121s67.5 -49 113.5 -49c48.667 0 94.334 22 137.001 66l73 -72c-28.667 -32 -59.834 -56.5 -93.501 -73.5s-74.5 -25.5 -122.5 -25.5z" />
    <glyph glyph-name="Dcaron" unicode="&#x10e;" horiz-adv-x="782" 
d="M555 893l-121 -135h-114l-121 135h102l77 -57l77 57h100zM90 0v699.999h261c108.667 0 197.834 -33.167 267.501 -99.5s104.5 -149.166 104.5 -248.499v-2c0 -100 -34.833 -183.333 -104.5 -250s-158.834 -100 -267.501 -100h-261zM213 111.999h138
c72.667 0 131.334 22 176.001 66s67 100.667 67 170v2c0 69.333 -22.333 126.333 -67 171s-103.334 67 -176.001 67h-138v-476z" />
    <glyph glyph-name="dcaron" unicode="&#x10f;" horiz-adv-x="671" 
d="M651 540l12 190h94v-3l-56 -187h-50zM294 -11c-66 0 -123.333 24.833 -172 74.5s-73 116.167 -73 199.5v2c0 84 24.167 150.667 72.5 200s105.833 74 172.5 74c72 0 132 -31 180 -93v284h121v-730h-121v88c-46.667 -66 -106.667 -99 -180 -99zM323 94
c42 0 78 15.833 108 47.5s45 72.167 45 121.5v2c0 49.333 -15 89.833 -45 121.5s-66 47.5 -108 47.5c-42.667 0 -78.667 -15.333 -108 -46s-44 -71.667 -44 -123v-2c0 -50 14.833 -90.667 44.5 -122s65.5 -47 107.5 -47z" />
    <glyph glyph-name="Dcroat" unicode="&#x110;" horiz-adv-x="812" 
d="M120 0v296.999h-75v110h75v293h261c108.667 0 197.834 -33.167 267.501 -99.5s104.5 -149.166 104.5 -248.499v-2c0 -100 -34.833 -183.333 -104.5 -250s-158.834 -100 -267.501 -100h-261zM243 111.999h138c72.667 0 131.334 22 176.001 66s67 100.667 67 170v2
c0 69.333 -22.333 126.333 -67 171s-103.334 67 -176.001 67h-138v-181h175v-110h-175v-185z" />
    <glyph glyph-name="dcroat" unicode="&#x111;" horiz-adv-x="671" 
d="M310 601v73h164v56h121v-56h69v-73h-69v-601h-121v88c-46.667 -66 -106.667 -99 -180 -99c-66 0 -123.333 24.833 -172 74.5s-73 116.167 -73 199.5v2c0 84 24.167 150.667 72.5 200s105.833 74 172.5 74c72 0 132 -31 180 -93v155h-164zM323 94c42 0 78 15.833 108 47.5
s45 72.167 45 121.5v2c0 49.333 -15 89.833 -45 121.5s-66 47.5 -108 47.5c-42.667 0 -78.667 -15.333 -108 -46s-44 -71.667 -44 -123v-2c0 -50 14.833 -90.667 44.5 -122s65.5 -47 107.5 -47z" />
    <glyph glyph-name="Emacron" unicode="&#x112;" horiz-adv-x="670" 
d="M172 769v90h359v-90h-359zM90 0v700h519v-110h-396v-182h351v-110h-351v-188h401v-110h-524z" />
    <glyph glyph-name="emacron" unicode="&#x113;" horiz-adv-x="604" 
d="M318 -12c-77.333 0 -141.834 25.5 -193.501 76.5s-77.5 116.833 -77.5 197.5v2c0 76.667 24.333 141.667 73 195s110.334 80 185.001 80c80 0 142.167 -27.167 186.5 -81.5s66.5 -121.833 66.5 -202.5c0 -6.66699 -0.666992 -18 -2 -34h-388
c6.66699 -42 23.667 -74.833 51 -98.5s61 -35.5 101 -35.5c52 0 99.667 21 143 63l71 -63c-54.667 -66 -126.667 -99 -216 -99zM166.999 301h271.001c-4 40.667 -17.667 74 -41 100s-54.333 39 -93 39c-36.667 0 -67.334 -12.833 -92.001 -38.5s-39.667 -59.167 -45 -100.5z
M133 606v88h340v-88h-340z" />
    <glyph glyph-name="Ebreve" unicode="&#x114;" horiz-adv-x="670" 
d="M351 756c-48.667 0 -88.667 11.833 -120 35.5s-49 56.5 -53 98.5h86c12.667 -33.333 41.667 -50 87 -50s74.333 16.667 87 50h86c-4 -42 -21.667 -74.833 -53 -98.5s-71.333 -35.5 -120 -35.5zM90 0v700h519v-110h-396v-182h351v-110h-351v-188h401v-110h-524z" />
    <glyph glyph-name="ebreve" unicode="&#x115;" horiz-adv-x="604" 
d="M318 -12c-77.333 0 -141.834 25.5 -193.501 76.5s-77.5 116.833 -77.5 197.5v2c0 76.667 24.333 141.667 73 195s110.334 80 185.001 80c80 0 142.167 -27.167 186.5 -81.5s66.5 -121.833 66.5 -202.5c0 -6.66699 -0.666992 -18 -2 -34h-388
c6.66699 -42 23.667 -74.833 51 -98.5s61 -35.5 101 -35.5c52 0 99.667 21 143 63l71 -63c-54.667 -66 -126.667 -99 -216 -99zM166.999 301h271.001c-4 40.667 -17.667 74 -41 100s-54.333 39 -93 39c-36.667 0 -67.334 -12.833 -92.001 -38.5s-39.667 -59.167 -45 -100.5z
M303 593c-48.667 0 -88.498 12.833 -119.498 38.5s-48.167 61.167 -51.5 106.5h83c13.333 -40.667 42.666 -61 87.999 -61s74.666 20.333 87.999 61h84c-4 -45.333 -21.5 -80.833 -52.5 -106.5s-70.833 -38.5 -119.5 -38.5z" />
    <glyph glyph-name="Edotaccent" unicode="&#x116;" horiz-adv-x="670" 
d="M287 758v112h128v-112h-128zM90 0v700h519v-110h-396v-182h351v-110h-351v-188h401v-110h-524z" />
    <glyph glyph-name="edotaccent" unicode="&#x117;" horiz-adv-x="604" 
d="M318 -12c-77.333 0 -141.834 25.5 -193.501 76.5s-77.5 116.833 -77.5 197.5v2c0 76.667 24.333 141.667 73 195s110.334 80 185.001 80c80 0 142.167 -27.167 186.5 -81.5s66.5 -121.833 66.5 -202.5c0 -6.66699 -0.666992 -18 -2 -34h-388
c6.66699 -42 23.667 -74.833 51 -98.5s61 -35.5 101 -35.5c52 0 99.667 21 143 63l71 -63c-54.667 -66 -126.667 -99 -216 -99zM166.999 301h271.001c-4 40.667 -17.667 74 -41 100s-54.333 39 -93 39c-36.667 0 -67.334 -12.833 -92.001 -38.5s-39.667 -59.167 -45 -100.5z
M240 595v119h126v-119h-126z" />
    <glyph glyph-name="Eogonek" unicode="&#x118;" horiz-adv-x="670" 
d="M90 0v700h519v-110h-396v-182h351v-110h-351v-188h401v-110h-39c-22 -22 -33 -43 -33 -63c0 -28.667 24 -43 72 -43v-58c-51.333 -4.66699 -91.5 0.833008 -120.5 16.5s-43.5 37.5 -43.5 65.5c0 26.667 13.333 54 40 82h-400z" />
    <glyph glyph-name="eogonek" unicode="&#x119;" horiz-adv-x="604" 
d="M167 301h271.001c-4 40.667 -17.667 74 -41 100s-54.333 39 -93 39c-36.667 0 -67.334 -12.833 -92.001 -38.5s-39.667 -59.167 -45 -100.5zM476.001 29c-36.667 -32.667 -55.002 -61.665 -55.002 -86.998c0 -32 24 -48 72 -48v-58
c-50.667 -4.66699 -90.5 0.666016 -119.5 15.999s-43.5 36.666 -43.5 63.999c0 24 11.333 49.333 34 76c-17.333 -2.66699 -32.666 -4 -45.999 -4c-77.333 0 -141.833 25.5 -193.5 76.5s-77.5 116.833 -77.5 197.5v2c0 76.667 24.333 141.667 73 195s110.334 80 185.001 80
c80 0 142.167 -27.167 186.5 -81.5s66.5 -121.833 66.5 -202.5c0 -6.66699 -0.666992 -18 -2 -34h-388c6.66699 -42 23.667 -74.833 51 -98.5s61 -35.5 101 -35.5c52 0 99.667 21 143 63l71 -63c-18 -20.667 -37.333 -40 -58 -58z" />
    <glyph glyph-name="Ecaron" unicode="&#x11a;" horiz-adv-x="670" 
d="M529 893l-121 -135h-114l-121 135h102l77 -57l77 57h100zM90 0v700h519v-110h-396v-182h351v-110h-351v-188h401v-110h-524z" />
    <glyph glyph-name="ecaron" unicode="&#x11b;" horiz-adv-x="604" 
d="M476 742l-117 -147h-112l-116 147h96l77 -67l78 67h94zM318 -12c-77.333 0 -141.834 25.5 -193.501 76.5s-77.5 116.833 -77.5 197.5v2c0 76.667 24.333 141.667 73 195s110.334 80 185.001 80c80 0 142.167 -27.167 186.5 -81.5s66.5 -121.833 66.5 -202.5
c0 -6.66699 -0.666992 -18 -2 -34h-388c6.66699 -42 23.667 -74.833 51 -98.5s61 -35.5 101 -35.5c52 0 99.667 21 143 63l71 -63c-54.667 -66 -126.667 -99 -216 -99zM166.999 301h271.001c-4 40.667 -17.667 74 -41 100s-54.333 39 -93 39
c-36.667 0 -67.334 -12.833 -92.001 -38.5s-39.667 -59.167 -45 -100.5z" />
    <glyph glyph-name="Gbreve" unicode="&#x11e;" horiz-adv-x="784" 
d="M412 766c-48.667 0 -88.667 11.833 -120 35.5s-49 56.5 -53 98.5h86c12.667 -33.333 41.667 -50 87 -50s74.333 16.667 87 50h86c-4 -42 -21.667 -74.833 -53 -98.5s-71.333 -35.5 -120 -35.5zM422 -12c-108 0 -195.499 34.1689 -262.499 102.502
s-100.5 154.166 -100.5 257.499v2c0 100 34.167 185.333 102.5 256s154.5 106 258.5 106c58.667 0 108.667 -7.83301 150 -23.5s81 -39.5 119 -71.5l-78 -93c-29.333 25.333 -58.833 44.166 -88.5 56.499s-65.5 18.5 -107.5 18.5c-64 0 -117.833 -24.167 -161.5 -72.5
s-65.5 -106.5 -65.5 -174.5v-2c0 -72.667 22 -132.5 66 -179.5s101.333 -70.5 172 -70.5c65.333 0 121.666 17.667 168.999 53v131h-179v107h298v-294c-84.667 -72.667 -182 -109 -292 -109z" />
    <glyph glyph-name="gbreve" unicode="&#x11f;" horiz-adv-x="671" 
d="M311 -162c-88 0 -166.67 20.999 -236.003 62.999l45 91c60 -37.333 122.667 -56 188 -56c54 0 95.333 13.833 124 41.5s43 67.834 43 120.501v41c-50 -64.667 -112 -97 -186 -97c-65.333 0 -121.666 22.5 -168.999 67.5s-71 104.833 -71 179.5v2
c0 74.667 23.833 134.667 71.5 180s103.834 68 168.501 68c73.333 0 135 -30 185 -90v79h121v-420c0 -88 -22.333 -154.333 -67 -199c-47.333 -47.333 -119.666 -71 -216.999 -71zM320.997 143.999c42.667 0 79.168 13.667 109.501 41s45.5 62 45.5 104v2
c0 42.667 -15.167 77.667 -45.5 105s-66.833 41 -109.5 41s-78.334 -13.5 -107.001 -40.5s-43 -61.833 -43 -104.5v-2c0 -42.667 14.5 -77.667 43.5 -105s64.5 -41 106.5 -41zM340.998 592.999c-48.667 0 -88.498 12.833 -119.498 38.5s-48.167 61.167 -51.5 106.5h83
c13.333 -40.667 42.666 -61 87.999 -61s74.666 20.333 87.999 61h84c-4 -45.333 -21.5 -80.833 -52.5 -106.5s-70.833 -38.5 -119.5 -38.5z" />
    <glyph glyph-name="Gdotaccent" unicode="&#x120;" horiz-adv-x="784" 
d="M348 768v112h128v-112h-128zM422 -12c-108 0 -195.499 34.1689 -262.499 102.502s-100.5 154.166 -100.5 257.499v2c0 100 34.167 185.333 102.5 256s154.5 106 258.5 106c58.667 0 108.667 -7.83301 150 -23.5s81 -39.5 119 -71.5l-78 -93
c-29.333 25.333 -58.833 44.166 -88.5 56.499s-65.5 18.5 -107.5 18.5c-64 0 -117.833 -24.167 -161.5 -72.5s-65.5 -106.5 -65.5 -174.5v-2c0 -72.667 22 -132.5 66 -179.5s101.333 -70.5 172 -70.5c65.333 0 121.666 17.667 168.999 53v131h-179v107h298v-294
c-84.667 -72.667 -182 -109 -292 -109z" />
    <glyph glyph-name="gdotaccent" unicode="&#x121;" horiz-adv-x="671" 
d="M311 -162c-88 0 -166.67 20.999 -236.003 62.999l45 91c60 -37.333 122.667 -56 188 -56c54 0 95.333 13.833 124 41.5s43 67.834 43 120.501v41c-50 -64.667 -112 -97 -186 -97c-65.333 0 -121.666 22.5 -168.999 67.5s-71 104.833 -71 179.5v2
c0 74.667 23.833 134.667 71.5 180s103.834 68 168.501 68c73.333 0 135 -30 185 -90v79h121v-420c0 -88 -22.333 -154.333 -67 -199c-47.333 -47.333 -119.666 -71 -216.999 -71zM320.997 143.999c42.667 0 79.168 13.667 109.501 41s45.5 62 45.5 104v2
c0 42.667 -15.167 77.667 -45.5 105s-66.833 41 -109.5 41s-78.334 -13.5 -107.001 -40.5s-43 -61.833 -43 -104.5v-2c0 -42.667 14.5 -77.667 43.5 -105s64.5 -41 106.5 -41zM277.998 594.999v119h126v-119h-126z" />
    <glyph glyph-name="Gcommaaccent" unicode="&#x122;" horiz-adv-x="784" 
d="M344 -275l-7.99902 39.002c25.333 3.33301 43.666 10.666 54.999 21.999s16.333 26.666 15 45.999h-54v101h118v-86c0 -77.333 -42 -118 -126 -122zM422.001 -11.998c-108 0 -195.499 34.1689 -262.499 102.502s-100.5 154.166 -100.5 257.499v2
c0 100 34.167 185.333 102.5 256s154.5 106 258.5 106c58.667 0 108.667 -7.83301 150 -23.5s81 -39.5 119 -71.5l-78 -93c-29.333 25.333 -58.833 44.166 -88.5 56.499s-65.5 18.5 -107.5 18.5c-64 0 -117.833 -24.167 -161.5 -72.5s-65.5 -106.5 -65.5 -174.5v-2
c0 -72.667 22 -132.5 66 -179.5s101.333 -70.5 172 -70.5c65.333 0 121.666 17.667 168.999 53v131h-179v107h298v-294c-84.667 -72.667 -182 -109 -292 -109z" />
    <glyph glyph-name="gcommaaccent" unicode="&#x123;" horiz-adv-x="671" 
d="M406 803l7.99902 -39.002c-25.333 -3.33301 -43.666 -10.666 -54.999 -21.999s-16.333 -26.666 -15 -45.999h54v-101h-118v86c0 77.333 42 118 126 122zM310.999 -162.002c-88 0 -166.67 20.999 -236.003 62.999l45 91c60 -37.333 122.667 -56 188 -56
c54 0 95.333 13.833 124 41.5s43 67.834 43 120.501v41c-50 -64.667 -112 -97 -186 -97c-65.333 0 -121.666 22.5 -168.999 67.5s-71 104.833 -71 179.5v2c0 74.667 23.833 134.667 71.5 180s103.834 68 168.501 68c73.333 0 135 -30 185 -90v79h121v-420
c0 -88 -22.333 -154.333 -67 -199c-47.333 -47.333 -119.666 -71 -216.999 -71zM320.996 143.997c42.667 0 79.168 13.667 109.501 41s45.5 62 45.5 104v2c0 42.667 -15.167 77.667 -45.5 105s-66.833 41 -109.5 41s-78.334 -13.5 -107.001 -40.5s-43 -61.833 -43 -104.5v-2
c0 -42.667 14.5 -77.667 43.5 -105s64.5 -41 106.5 -41z" />
    <glyph glyph-name="Hbar" unicode="&#x126;" horiz-adv-x="778" 
d="M28 511v87h71v102h123v-102h334v102h123v-102h72v-87h-72v-511h-123v293h-334v-293h-123v511h-71zM222 407h334v106h-334v-106z" />
    <glyph glyph-name="hbar" unicode="&#x127;" horiz-adv-x="620" 
d="M76 0v601.001h-69v73h69v56h121v-56h164v-73h-164v-155c42 62 97 93 165 93c58.667 0 104.667 -18.333 138 -55s50 -86 50 -148v-336h-121v300c0 41.333 -9.83301 73.166 -29.5 95.499s-47.5 33.5 -83.5 33.5c-35.333 0 -64 -11.667 -86 -35s-33 -55.333 -33 -96v-298
h-121z" />
    <glyph glyph-name="Imacron" unicode="&#x12a;" horiz-adv-x="317" 
d="M97 0v700h123v-700h-123zM-20 769v90h359v-90h-359z" />
    <glyph glyph-name="imacron" unicode="&#x12b;" horiz-adv-x="286" 
d="M83 0v528h121v-528h-121zM-27 606v88h340v-88h-340z" />
    <glyph glyph-name="Ibreve" unicode="&#x12c;" horiz-adv-x="317" 
d="M97 0v700h123v-700h-123zM159 756c-48.667 0 -88.667 11.833 -120 35.5s-49 56.5 -53 98.5h86c12.667 -33.333 41.667 -50 87 -50s74.333 16.667 87 50h86c-4 -42 -21.667 -74.833 -53 -98.5s-71.333 -35.5 -120 -35.5z" />
    <glyph glyph-name="ibreve" unicode="&#x12d;" horiz-adv-x="286" 
d="M83 0v528h121v-528h-121zM143 593c-48.667 0 -88.498 12.833 -119.498 38.5s-48.167 61.167 -51.5 106.5h83c13.333 -40.667 42.666 -61 87.999 -61s74.666 20.333 87.999 61h84c-4 -45.333 -21.5 -80.833 -52.5 -106.5s-70.833 -38.5 -119.5 -38.5z" />
    <glyph glyph-name="Iogonek" unicode="&#x12e;" horiz-adv-x="317" 
d="M97 0v700h123v-700h-22c-22 -22 -33 -43 -33 -63c0 -28.667 24 -43 72 -43v-58c-51.333 -4.66699 -91.5 0.833008 -120.5 16.5s-43.5 37.5 -43.5 65.5c0 26.667 13.333 54 40 82h-16z" />
    <glyph glyph-name="iogonek" unicode="&#x12f;" horiz-adv-x="286" 
d="M83 0v528h121v-528h-21c-22 -22 -33 -43 -33 -63c0 -28.667 24 -43 72 -43v-58c-51.333 -4.66699 -91.5 0.833008 -120.5 16.5s-43.5 37.5 -43.5 65.5c0 26.667 13.333 54 40 82h-15zM78 609v115h130v-115h-130z" />
    <glyph glyph-name="Idotaccent" unicode="&#x130;" horiz-adv-x="317" 
d="M97 0v700h123v-700h-123zM95 758v112h128v-112h-128z" />
    <glyph glyph-name="dotlessi" unicode="&#x131;" horiz-adv-x="286" 
d="M83 0v528h121v-528h-121z" />
    <glyph glyph-name="Kcommaaccent" unicode="&#x136;" horiz-adv-x="726" 
d="M297 -267l-7.99902 39.002c25.333 3.33301 43.666 10.666 54.999 21.999s16.333 26.666 15 45.999h-54v101h118v-86c0 -77.333 -42 -118 -126 -122zM90.001 0.00195312v700h123v-352l333 352h151l-291 -301l304 -399h-149l-239 315l-109 -112v-203h-123z" />
    <glyph glyph-name="kcommaaccent" unicode="&#x137;" horiz-adv-x="582" 
d="M236 -272l-7.99902 39.002c25.333 3.33301 43.666 10.666 54.999 21.999s16.333 26.666 15 45.999h-54v101h118v-86c0 -77.333 -42 -118 -126 -122zM76.001 0.00195312v730h121v-436l219 234h147l-210 -215l217 -313h-140l-159 228l-74 -77v-151h-121z" />
    <glyph glyph-name="Lacute" unicode="&#x139;" horiz-adv-x="619" 
d="M119 758l112 145l110 -48l-128 -97h-94zM90 0v700h123v-588h368v-112h-491z" />
    <glyph glyph-name="lacute" unicode="&#x13a;" horiz-adv-x="286" 
d="M97 775l112 145l110 -48l-128 -97h-94zM83 0v730h121v-730h-121z" />
    <glyph glyph-name="Lcommaaccent" unicode="&#x13b;" horiz-adv-x="619" 
d="M266 -272l-7.99902 39.002c25.333 3.33301 43.666 10.666 54.999 21.999s16.333 26.666 15 45.999h-54v101h118v-86c0 -77.333 -42 -118 -126 -122zM90.001 0.00195312v700h123v-588h368v-112h-491z" />
    <glyph glyph-name="lcommaaccent" unicode="&#x13c;" horiz-adv-x="286" 
d="M76 -272l-7.99902 39.002c25.333 3.33301 43.666 10.666 54.999 21.999s16.333 26.666 15 45.999h-54v101h118v-86c0 -77.333 -42 -118 -126 -122zM83.001 0.00195312v730h121v-730h-121z" />
    <glyph glyph-name="Lcaron" unicode="&#x13d;" horiz-adv-x="619" 
d="M292 510l12 190h94v-3l-56 -187h-50zM90 0v700h123v-588h368v-112h-491z" />
    <glyph glyph-name="lcaron" unicode="&#x13e;" horiz-adv-x="286" 
d="M260 540l12 190h94v-3l-56 -187h-50zM83 0v730h121v-730h-121z" />
    <glyph glyph-name="Ldot" unicode="&#x13f;" horiz-adv-x="619" 
d="M414 317v119h122v-119h-122zM90 0v700h123v-588h368v-112h-491z" />
    <glyph glyph-name="ldot" unicode="&#x140;" horiz-adv-x="367" 
d="M274 319v112h106v-112h-106zM83 0v730h121v-730h-121z" />
    <glyph glyph-name="Lslash" unicode="&#x141;" horiz-adv-x="649" 
d="M403 386l-160 -72v-202h368v-112h-491v258l-75 -33v117l75 33v325h123v-269l160 72v-117z" />
    <glyph glyph-name="lslash" unicode="&#x142;" horiz-adv-x="346" 
d="M309 383l-75 -39v-344h-121v283l-76 -39v116l76 39v331h121v-270l75 39v-116z" />
    <glyph glyph-name="Nacute" unicode="&#x143;" horiz-adv-x="790" 
d="M345 757l112 145l110 -48l-128 -97h-94zM90 0v700h114l375 -484v484h121v-700h-103l-386 498v-498h-121z" />
    <glyph glyph-name="nacute" unicode="&#x144;" horiz-adv-x="620" 
d="M264 595l104 164l110 -49l-123 -115h-91zM76 0v528.001h121v-82c42 62 97 93 165 93c58.667 0 104.667 -18.333 138 -55s50 -86 50 -148v-336h-121v300c0 41.333 -9.83301 73.166 -29.5 95.499s-47.5 33.5 -83.5 33.5c-35.333 0 -64 -11.667 -86 -35s-33 -55.333 -33 -96
v-298h-121z" />
    <glyph glyph-name="Ncommaaccent" unicode="&#x145;" horiz-adv-x="790" 
d="M327 -267l-7.99902 39.002c25.333 3.33301 43.666 10.666 54.999 21.999s16.333 26.666 15 45.999h-54v101h118v-86c0 -77.333 -42 -118 -126 -122zM90.001 0.00195312v700h114l375 -484v484h121v-700h-103l-386 498v-498h-121z" />
    <glyph glyph-name="ncommaaccent" unicode="&#x146;" horiz-adv-x="620" 
d="M245 -272l-7.99902 39.002c25.333 3.33301 43.666 10.666 54.999 21.999s16.333 26.666 15 45.999h-54v101h118v-86c0 -77.333 -42 -118 -126 -122zM76.001 0.00195312v528.001h121v-82c42 62 97 93 165 93c58.667 0 104.667 -18.333 138 -55s50 -86 50 -148v-336h-121
v300c0 41.333 -9.83301 73.166 -29.5 95.499s-47.5 33.5 -83.5 33.5c-35.333 0 -64 -11.667 -86 -35s-33 -55.333 -33 -96v-298h-121z" />
    <glyph glyph-name="Ncaron" unicode="&#x147;" horiz-adv-x="790" 
d="M573 892l-121 -135h-114l-121 135h102l77 -57l77 57h100zM90 0v700h114l375 -484v484h121v-700h-103l-386 498v-498h-121z" />
    <glyph glyph-name="ncaron" unicode="&#x148;" horiz-adv-x="620" 
d="M485 742l-117 -147h-112l-116 147h96l77 -67l78 67h94zM76 0v528.001h121v-82c42 62 97 93 165 93c58.667 0 104.667 -18.333 138 -55s50 -86 50 -148v-336h-121v300c0 41.333 -9.83301 73.166 -29.5 95.499s-47.5 33.5 -83.5 33.5c-35.333 0 -64 -11.667 -86 -35
s-33 -55.333 -33 -96v-298h-121z" />
    <glyph glyph-name="Omacron" unicode="&#x14c;" horiz-adv-x="850" 
d="M246 779v90h359v-90h-359zM424 -12c-106 0 -193.333 35 -262 105s-103 155 -103 255v2c0 100 34.667 185.333 104 256s157 106 263 106s193.333 -35 262 -105s103 -155 103 -255v-2c0 -100 -34.667 -185.333 -104 -256s-157 -106 -263 -106zM426 101
c68.667 0 125.167 23.833 169.5 71.5s66.5 106.167 66.5 175.5v2c0 69.333 -22.5 128.166 -67.5 176.499s-101.833 72.5 -170.5 72.5s-125.167 -23.833 -169.5 -71.5s-66.5 -106.167 -66.5 -175.5v-2c0 -69.333 22.5 -128.166 67.5 -176.499s101.833 -72.5 170.5 -72.5z" />
    <glyph glyph-name="omacron" unicode="&#x14d;" horiz-adv-x="657" 
d="M158 606v88h340v-88h-340zM327 -12c-80 0 -146.667 26.499 -200 79.499s-80 117.5 -80 193.5v2c0 76.667 27 141.834 81 195.501s121 80.5 201 80.5s146.833 -26.667 200.5 -80s80.5 -118 80.5 -194v-2c0 -76 -27 -140.833 -81 -194.5s-121.333 -80.5 -202 -80.5z
M329 92.999c48 0 86.667 16.3311 116 48.998s44 72.334 44 119.001v2c0 47.333 -15.333 87.5 -46 120.5s-69.334 49.5 -116.001 49.5c-47.333 0 -85.666 -16.167 -114.999 -48.5s-44 -72.166 -44 -119.499v-2c0 -46.667 15.333 -86.667 46 -120s69 -50 115 -50z" />
    <glyph glyph-name="Obreve" unicode="&#x14e;" horiz-adv-x="850" 
d="M425 766c-48.667 0 -88.667 11.833 -120 35.5s-49 56.5 -53 98.5h86c12.667 -33.333 41.667 -50 87 -50s74.333 16.667 87 50h86c-4 -42 -21.667 -74.833 -53 -98.5s-71.333 -35.5 -120 -35.5zM424 -12c-106 0 -193.333 35 -262 105s-103 155 -103 255v2
c0 100 34.667 185.333 104 256s157 106 263 106s193.333 -35 262 -105s103 -155 103 -255v-2c0 -100 -34.667 -185.333 -104 -256s-157 -106 -263 -106zM426 101c68.667 0 125.167 23.833 169.5 71.5s66.5 106.167 66.5 175.5v2c0 69.333 -22.5 128.166 -67.5 176.499
s-101.833 72.5 -170.5 72.5s-125.167 -23.833 -169.5 -71.5s-66.5 -106.167 -66.5 -175.5v-2c0 -69.333 22.5 -128.166 67.5 -176.499s101.833 -72.5 170.5 -72.5z" />
    <glyph glyph-name="obreve" unicode="&#x14f;" horiz-adv-x="657" 
d="M327 -12c-80 0 -146.667 26.499 -200 79.499s-80 117.5 -80 193.5v2c0 76.667 27 141.834 81 195.501s121 80.5 201 80.5s146.833 -26.667 200.5 -80s80.5 -118 80.5 -194v-2c0 -76 -27 -140.833 -81 -194.5s-121.333 -80.5 -202 -80.5zM329 92.999
c48 0 86.667 16.3311 116 48.998s44 72.334 44 119.001v2c0 47.333 -15.333 87.5 -46 120.5s-69.334 49.5 -116.001 49.5c-47.333 0 -85.666 -16.167 -114.999 -48.5s-44 -72.166 -44 -119.499v-2c0 -46.667 15.333 -86.667 46 -120s69 -50 115 -50zM328 592.997
c-48.667 0 -88.498 12.833 -119.498 38.5s-48.167 61.167 -51.5 106.5h83c13.333 -40.667 42.666 -61 87.999 -61s74.666 20.333 87.999 61h84c-4 -45.333 -21.5 -80.833 -52.5 -106.5s-70.833 -38.5 -119.5 -38.5z" />
    <glyph glyph-name="Ohungarumlaut" unicode="&#x150;" horiz-adv-x="850" 
d="M424 -12c-106 0 -193.333 35 -262 105s-103 155 -103 255v2c0 100 34.667 185.333 104 256s157 106 263 106s193.333 -35 262 -105s103 -155 103 -255v-2c0 -100 -34.667 -185.333 -104 -256s-157 -106 -263 -106zM426 101c68.667 0 125.167 23.833 169.5 71.5
s66.5 106.167 66.5 175.5v2c0 69.333 -22.5 128.166 -67.5 176.499s-101.833 72.5 -170.5 72.5s-125.167 -23.833 -169.5 -71.5s-66.5 -106.167 -66.5 -175.5v-2c0 -69.333 22.5 -128.166 67.5 -176.499s101.833 -72.5 170.5 -72.5zM281 768l112 145l106 -48l-127 -97h-91z
M456 768l112 145l106 -48l-127 -97h-91z" />
    <glyph glyph-name="ohungarumlaut" unicode="&#x151;" horiz-adv-x="657" 
d="M358 595l105 164l106 -49l-123 -115h-88zM188 595l103 164l106 -49l-121 -115h-88zM327 -12c-80 0 -146.667 26.499 -200 79.499s-80 117.5 -80 193.5v2c0 76.667 27 141.834 81 195.501s121 80.5 201 80.5s146.833 -26.667 200.5 -80s80.5 -118 80.5 -194v-2
c0 -76 -27 -140.833 -81 -194.5s-121.333 -80.5 -202 -80.5zM329 92.999c48 0 86.667 16.3311 116 48.998s44 72.334 44 119.001v2c0 47.333 -15.333 87.5 -46 120.5s-69.334 49.5 -116.001 49.5c-47.333 0 -85.666 -16.167 -114.999 -48.5s-44 -72.166 -44 -119.499v-2
c0 -46.667 15.333 -86.667 46 -120s69 -50 115 -50z" />
    <glyph glyph-name="OE" unicode="&#x152;" horiz-adv-x="1098" 
d="M431 0c-108.667 0 -197.834 33.168 -267.501 99.501s-104.5 149.166 -104.5 248.499v2c0 100 34.833 183.333 104.5 250s158.834 100 267.501 100h606v-110h-374v-182h329v-110h-329v-188h379v-110h-611zM431 112.001h109v476h-109c-72.667 0 -131.334 -22 -176.001 -66
s-67 -100.667 -67 -170v-2c0 -69.333 22.333 -126.333 67 -171s103.334 -67 176.001 -67z" />
    <glyph glyph-name="oe" unicode="&#x153;" horiz-adv-x="1040" 
d="M321 -12c-76 0 -140.667 26.667 -194 80s-80 117.666 -80 192.999v2c0 76 27 141 81 195s120 81 198 81c44 0 84.333 -9.83301 121 -29.5s66.667 -46.167 90 -79.5c22.667 34 51.667 60.667 87 80s74.333 29 117 29c80 0 142 -27.167 186 -81.5s66 -121.833 66 -202.5
c0 -6.66699 -0.666992 -18 -2 -34h-388c6.66699 -42 23.834 -74.833 51.501 -98.5s61.167 -35.5 100.5 -35.5c52.667 0 100.667 21 144 63l71 -63c-56 -66 -128 -99 -216 -99c-45.333 0 -87 9.83301 -125 29.5s-69 46.834 -93 81.501c-23.333 -34 -53.833 -61 -91.5 -81
s-78.834 -30 -123.501 -30zM602 301h272c-4.66699 41.333 -18.5 74.833 -41.5 100.5s-53.833 38.5 -92.5 38.5c-36.667 0 -67.5 -12.833 -92.5 -38.5s-40.167 -59.167 -45.5 -100.5zM326 93c46 0 83.5 16.333 112.5 49s43.5 72.334 43.5 119.001v2
c0 47.333 -15 87.5 -45 120.5s-67.667 49.5 -113 49.5c-46 0 -83.5 -16.333 -112.5 -49s-43.5 -72.334 -43.5 -119.001v-2c0 -46.667 15 -86.667 45 -120s67.667 -50 113 -50z" />
    <glyph glyph-name="Racute" unicode="&#x154;" horiz-adv-x="723" 
d="M90 0v700.001h312c86.667 0 154 -23.333 202 -70c38.667 -40 58 -90.333 58 -151v-2c0 -55.333 -15 -100.833 -45 -136.5s-70.667 -60.834 -122 -75.501l189 -265h-145l-172 244h-154v-244h-123zM213 353.001l180 0.000976562c44 0 79 10.667 105 32s39 49.666 39 84.999
v2c0 37.333 -12.667 66 -38 86s-61 30 -107 30h-179v-235zM303 758.002l112 145l110 -48l-128 -97h-94z" />
    <glyph glyph-name="racute" unicode="&#x155;" horiz-adv-x="413" 
d="M175 595l104 164l110 -49l-123 -115h-91zM76 0l0.00195312 528h121v-119c37.333 90 99.666 133 186.999 129v-128h-7c-54.667 0 -98.334 -17.833 -131.001 -53.5s-49 -87.5 -49 -155.5v-201h-121z" />
    <glyph glyph-name="Rcommaaccent" unicode="&#x156;" horiz-adv-x="723" 
d="M90 0v700.001h312c86.667 0 154 -23.333 202 -70c38.667 -40 58 -90.333 58 -151v-2c0 -55.333 -15 -100.833 -45 -136.5s-70.667 -60.834 -122 -75.501l189 -265h-145l-172 244h-154v-244h-123zM213 353.001l180 0.000976562c44 0 79 10.667 105 32s39 49.666 39 84.999
v2c0 37.333 -12.667 66 -38 86s-61 30 -107 30h-179v-235zM285 -266.998l-7.99902 39.002c25.333 3.33301 43.666 10.666 54.999 21.999s16.333 26.666 15 45.999h-54v101h118v-86c0 -77.333 -42 -118 -126 -122z" />
    <glyph glyph-name="rcommaaccent" unicode="&#x157;" horiz-adv-x="413" 
d="M76 -272l-7.99902 39.002c25.333 3.33301 43.666 10.666 54.999 21.999s16.333 26.666 15 45.999h-54v101h118v-86c0 -77.333 -42 -118 -126 -122zM76.001 0.00195312l0.00195312 528h121v-119c37.333 90 99.666 133 186.999 129v-128h-7
c-54.667 0 -98.334 -17.833 -131.001 -53.5s-49 -87.5 -49 -155.5v-201h-121z" />
    <glyph glyph-name="Rcaron" unicode="&#x158;" horiz-adv-x="723" 
d="M90 0v700.001h312c86.667 0 154 -23.333 202 -70c38.667 -40 58 -90.333 58 -151v-2c0 -55.333 -15 -100.833 -45 -136.5s-70.667 -60.834 -122 -75.501l189 -265h-145l-172 244h-154v-244h-123zM213 353.001l180 0.000976562c44 0 79 10.667 105 32s39 49.666 39 84.999
v2c0 37.333 -12.667 66 -38 86s-61 30 -107 30h-179v-235zM530 893.002l-121 -135h-114l-121 135h102l77 -57l77 57h100z" />
    <glyph glyph-name="rcaron" unicode="&#x159;" horiz-adv-x="413" 
d="M397 742l-117 -147h-112l-116 147h96l77 -67l78 67h94zM76 0l0.00195312 528h121v-119c37.333 90 99.666 133 186.999 129v-128h-7c-54.667 0 -98.334 -17.833 -131.001 -53.5s-49 -87.5 -49 -155.5v-201h-121z" />
    <glyph glyph-name="Sacute" unicode="&#x15a;" horiz-adv-x="640" 
d="M335 -10c-111.333 0 -208.665 37.333 -291.998 112l74 88c70 -60.667 143.667 -91 221 -91c38 0 68.167 8 90.5 24s33.5 37.333 33.5 64v2c0 26 -10.667 46.667 -32 62s-63.333 30.333 -126 45c-40 10 -73.333 20 -100 30s-50.667 23 -72 39s-36.833 35.5 -46.5 58.5
s-14.5 50.167 -14.5 81.5v2c0 60 22.333 108.833 67 146.5s102 56.5 172 56.5c96 0 180.667 -29.333 254 -88l-66 -93c-64.667 48 -128 72 -190 72c-34.667 0 -62.334 -7.83301 -83.001 -23.5s-31 -35.5 -31 -59.5v-2c0 -27.333 11.167 -48.5 33.5 -63.5
s66.5 -30.5 132.5 -46.5c77.333 -18.667 134.166 -43.5 170.499 -74.5s54.5 -74.5 54.5 -130.5v-2c0 -64.667 -23 -115.667 -69 -153s-106.333 -56 -181 -56zM275.001 768l112 145l110 -48l-128 -97h-94z" />
    <glyph glyph-name="sacute" unicode="&#x15b;" horiz-adv-x="501" 
d="M205 595l104 164l110 -49l-123 -115h-91zM257 -10c-82.667 0 -157.332 26.332 -223.999 78.999l54 82c57.333 -43.333 115 -65 173 -65c26 0 46.167 5.16699 60.5 15.5s21.5 24.166 21.5 41.499v2c0 25.333 -35.333 48.666 -106 69.999
c-5.33301 2 -9.33301 3.33301 -12 4c-24 6.66699 -44 13.334 -60 20.001s-33 15.834 -51 27.501s-31.5 26.5 -40.5 44.5s-13.5 39 -13.5 63v2c0 48.667 17.833 87.667 53.5 117s80.5 44 134.5 44c68.667 0 133.334 -20 194.001 -60l-48 -86
c-54.667 33.333 -104.334 50 -149.001 50c-23.333 0 -41.5 -4.83301 -54.5 -14.5s-19.5 -22.5 -19.5 -38.5v-2c0 -16 8.83301 -28.833 26.5 -38.5s45.167 -20.5 82.5 -32.5c1.33301 0 2.33301 -0.166992 3 -0.5s1.66699 -0.666016 3 -0.999023
s2.66602 -0.833008 3.99902 -1.5c23.333 -7.33301 43 -14.5 59 -21.5s32.833 -16.5 50.5 -28.5s31.167 -26.667 40.5 -44s14 -37.333 14 -60v-2c0 -53.333 -18.333 -94.333 -55 -123s-83.667 -43 -141 -43z" />
    <glyph glyph-name="Scedilla" unicode="&#x15e;" horiz-adv-x="640" 
d="M307 -166l-105.997 45l78 115c-88.667 10 -167.334 46 -236.001 108l74 88c70 -60.667 143.667 -91 221 -91c38 0 68.167 8 90.5 24s33.5 37.333 33.5 64v2c0 26 -10.667 46.667 -32 62s-63.333 30.333 -126 45c-40 10 -73.333 20 -100 30s-50.667 23 -72 39
s-36.833 35.5 -46.5 58.5s-14.5 50.167 -14.5 81.5v2c0 60 22.333 108.833 67 146.5s102 56.5 172 56.5c96 0 180.667 -29.333 254 -88l-66 -93c-64.667 48 -128 72 -190 72c-34.667 0 -62.334 -7.83301 -83.001 -23.5s-31 -35.5 -31 -59.5v-2
c0 -27.333 11.167 -48.5 33.5 -63.5s66.5 -30.5 132.5 -46.5c77.333 -18.667 134.166 -43.5 170.499 -74.5s54.5 -74.5 54.5 -130.5v-2c0 -58.667 -19.167 -106.167 -57.5 -142.5s-89.5 -57.833 -153.5 -64.5z" />
    <glyph glyph-name="scedilla" unicode="&#x15f;" horiz-adv-x="501" 
d="M226 -166l-105.999 44.998l79 116c-62 10.667 -117.333 35.334 -166 74.001l54 82c57.333 -43.333 115 -65 173 -65c26 0 46.167 5.16699 60.5 15.5s21.5 24.166 21.5 41.499v2c0 25.333 -35.333 48.666 -106 69.999c-5.33301 2 -9.33301 3.33301 -12 4
c-24 6.66699 -44 13.334 -60 20.001s-33 15.834 -51 27.501s-31.5 26.5 -40.5 44.5s-13.5 39 -13.5 63v2c0 48.667 17.833 87.667 53.5 117s80.5 44 134.5 44c68.667 0 133.334 -20 194.001 -60l-48 -86c-54.667 33.333 -104.334 50 -149.001 50
c-23.333 0 -41.5 -4.83301 -54.5 -14.5s-19.5 -22.5 -19.5 -38.5v-2c0 -16 8.83301 -28.833 26.5 -38.5s45.167 -20.5 82.5 -32.5c1.33301 0 2.33301 -0.166992 3 -0.5s1.66699 -0.666016 3 -0.999023s2.66602 -0.833008 3.99902 -1.5c23.333 -7.33301 43 -14.5 59 -21.5
s32.833 -16.5 50.5 -28.5s31.167 -26.667 40.5 -44s14 -37.333 14 -60v-2c0 -47.333 -14.667 -85 -44 -113s-68 -45 -116 -51z" />
    <glyph glyph-name="Scaron" unicode="&#x160;" horiz-adv-x="640" 
d="M335 -10c-111.333 0 -208.665 37.333 -291.998 112l74 88c70 -60.667 143.667 -91 221 -91c38 0 68.167 8 90.5 24s33.5 37.333 33.5 64v2c0 26 -10.667 46.667 -32 62s-63.333 30.333 -126 45c-40 10 -73.333 20 -100 30s-50.667 23 -72 39s-36.833 35.5 -46.5 58.5
s-14.5 50.167 -14.5 81.5v2c0 60 22.333 108.833 67 146.5s102 56.5 172 56.5c96 0 180.667 -29.333 254 -88l-66 -93c-64.667 48 -128 72 -190 72c-34.667 0 -62.334 -7.83301 -83.001 -23.5s-31 -35.5 -31 -59.5v-2c0 -27.333 11.167 -48.5 33.5 -63.5
s66.5 -30.5 132.5 -46.5c77.333 -18.667 134.166 -43.5 170.499 -74.5s54.5 -74.5 54.5 -130.5v-2c0 -64.667 -23 -115.667 -69 -153s-106.333 -56 -181 -56zM503.001 903l-121 -135h-114l-121 135h102l77 -57l77 57h100z" />
    <glyph glyph-name="scaron" unicode="&#x161;" horiz-adv-x="501" 
d="M426 742l-117 -147h-112l-116 147h96l77 -67l78 67h94zM257 -10c-82.667 0 -157.332 26.332 -223.999 78.999l54 82c57.333 -43.333 115 -65 173 -65c26 0 46.167 5.16699 60.5 15.5s21.5 24.166 21.5 41.499v2c0 25.333 -35.333 48.666 -106 69.999
c-5.33301 2 -9.33301 3.33301 -12 4c-24 6.66699 -44 13.334 -60 20.001s-33 15.834 -51 27.501s-31.5 26.5 -40.5 44.5s-13.5 39 -13.5 63v2c0 48.667 17.833 87.667 53.5 117s80.5 44 134.5 44c68.667 0 133.334 -20 194.001 -60l-48 -86
c-54.667 33.333 -104.334 50 -149.001 50c-23.333 0 -41.5 -4.83301 -54.5 -14.5s-19.5 -22.5 -19.5 -38.5v-2c0 -16 8.83301 -28.833 26.5 -38.5s45.167 -20.5 82.5 -32.5c1.33301 0 2.33301 -0.166992 3 -0.5s1.66699 -0.666016 3 -0.999023
s2.66602 -0.833008 3.99902 -1.5c23.333 -7.33301 43 -14.5 59 -21.5s32.833 -16.5 50.5 -28.5s31.167 -26.667 40.5 -44s14 -37.333 14 -60v-2c0 -53.333 -18.333 -94.333 -55 -123s-83.667 -43 -141 -43z" />
    <glyph glyph-name="Tcommaaccent" unicode="&#x162;" horiz-adv-x="648" 
d="M256 -272l-7.99902 39.002c25.333 3.33301 43.666 10.666 54.999 21.999s16.333 26.666 15 45.999h-54v101h118v-86c0 -77.333 -42 -118 -126 -122zM262.001 0.00195312v586h-222v114h568v-114h-222v-586h-124z" />
    <glyph glyph-name="tcommaaccent" unicode="&#x163;" horiz-adv-x="411" 
d="M156 -272l-7.99902 39.002c25.333 3.33301 43.666 10.666 54.999 21.999s16.333 26.666 15 45.999h-54v101h118v-86c0 -77.333 -42 -118 -126 -122zM253.001 -8.99805c-101.333 0 -152 51.667 -152 155v278h-67v104h67v145h121v-145h142v-104h-142v-259
c0 -44 21.667 -66 65 -66c26 0 51 6 75 18v-99c-32 -18 -68.333 -27 -109 -27z" />
    <glyph glyph-name="Tcaron" unicode="&#x164;" horiz-adv-x="648" 
d="M502 893l-121 -135h-114l-121 135h102l77 -57l77 57h100zM262 0v586h-222v114h568v-114h-222v-586h-124z" />
    <glyph glyph-name="tcaron" unicode="&#x165;" horiz-adv-x="411" 
d="M303 589l12 190h94v-3l-56 -187h-50zM253 -9c-101.333 0 -152 51.667 -152 155v278h-67v104h67v145h121v-145h142v-104h-142v-259c0 -44 21.667 -66 65 -66c26 0 51 6 75 18v-99c-32 -18 -68.333 -27 -109 -27z" />
    <glyph glyph-name="Umacron" unicode="&#x16a;" horiz-adv-x="757" 
d="M199 768v90h359v-90h-359zM377 -11c-92.667 0 -165.499 26.334 -218.499 79.001s-79.5 129 -79.5 229v403h123v-398c0 -64 15.667 -113.333 47 -148s74.666 -52 129.999 -52s98.5 16.667 129.5 50s46.5 81.666 46.5 144.999v403h123v-397
c0 -102 -26.667 -179.833 -80 -233.5s-127 -80.5 -221 -80.5z" />
    <glyph glyph-name="umacron" unicode="&#x16b;" horiz-adv-x="620" 
d="M258 -11c-58.667 0 -104.667 18.332 -138 54.999s-50 86 -50 148v336h121v-300c0 -41.333 9.83301 -73.166 29.5 -95.499s47.5 -33.5 83.5 -33.5c35.333 0 64 11.667 86 35s33 55.333 33 96v298h121v-528h-121v82c-42 -62 -97 -93 -165 -93zM136 605.999v88h340v-88h-340
z" />
    <glyph glyph-name="Ubreve" unicode="&#x16c;" horiz-adv-x="757" 
d="M378 748c-48.667 0 -88.667 11.833 -120 35.5s-49 56.5 -53 98.5h86c12.667 -33.333 41.667 -50 87 -50s74.333 16.667 87 50h86c-4 -42 -21.667 -74.833 -53 -98.5s-71.333 -35.5 -120 -35.5zM377 -11c-92.667 0 -165.499 26.334 -218.499 79.001s-79.5 129 -79.5 229
v403h123v-398c0 -64 15.667 -113.333 47 -148s74.666 -52 129.999 -52s98.5 16.667 129.5 50s46.5 81.666 46.5 144.999v403h123v-397c0 -102 -26.667 -179.833 -80 -233.5s-127 -80.5 -221 -80.5z" />
    <glyph glyph-name="ubreve" unicode="&#x16d;" horiz-adv-x="620" 
d="M258 -11c-58.667 0 -104.667 18.332 -138 54.999s-50 86 -50 148v336h121v-300c0 -41.333 9.83301 -73.166 29.5 -95.499s47.5 -33.5 83.5 -33.5c35.333 0 64 11.667 86 35s33 55.333 33 96v298h121v-528h-121v82c-42 -62 -97 -93 -165 -93zM306 592.999
c-48.667 0 -88.498 12.833 -119.498 38.5s-48.167 61.167 -51.5 106.5h83c13.333 -40.667 42.666 -61 87.999 -61s74.666 20.333 87.999 61h84c-4 -45.333 -21.5 -80.833 -52.5 -106.5s-70.833 -38.5 -119.5 -38.5z" />
    <glyph glyph-name="Uring" unicode="&#x16e;" horiz-adv-x="757" 
d="M377 -11c-92.667 0 -165.499 26.334 -218.499 79.001s-79.5 129 -79.5 229v403h123v-398c0 -64 15.667 -113.333 47 -148s74.666 -52 129.999 -52s98.5 16.667 129.5 50s46.5 81.666 46.5 144.999v403h123v-397c0 -102 -26.667 -179.833 -80 -233.5
s-127 -80.5 -221 -80.5zM259.001 840.001c0 30 11.667 55 35 75s51.333 30 84 30s60.667 -10 84 -30s35 -45 35 -75c0 -30.667 -11.667 -56 -35 -76s-51.333 -30 -84 -30s-60.667 10 -84 30s-35 45.333 -35 76zM314.001 840.001c0 -16.667 6 -30.667 18 -42
s27.333 -17 46 -17s34.167 5.66699 46.5 17s18.5 25.333 18.5 42c0 16 -6.16699 29.667 -18.5 41s-27.833 17 -46.5 17s-34 -5.66699 -46 -17s-18 -25 -18 -41z" />
    <glyph glyph-name="uring" unicode="&#x16f;" horiz-adv-x="620" 
d="M190 692c0 30.667 11.333 57 34 79s50 33 82 33s59.333 -11 82 -33s34 -48.333 34 -79s-11.333 -57 -34 -79s-50 -33 -82 -33s-59.333 11 -82 33s-34 48.333 -34 79zM239 692c0 -18.667 6.5 -34.5 19.5 -47.5s28.833 -19.5 47.5 -19.5s34.5 6.5 47.5 19.5
s19.5 28.833 19.5 47.5s-6.5 34.5 -19.5 47.5s-28.833 19.5 -47.5 19.5s-34.5 -6.5 -47.5 -19.5s-19.5 -28.833 -19.5 -47.5zM258 -11c-58.667 0 -104.667 18.332 -138 54.999s-50 86 -50 148v336h121v-300c0 -41.333 9.83301 -73.166 29.5 -95.499s47.5 -33.5 83.5 -33.5
c35.333 0 64 11.667 86 35s33 55.333 33 96v298h121v-528h-121v82c-42 -62 -97 -93 -165 -93z" />
    <glyph glyph-name="Uhungarumlaut" unicode="&#x170;" horiz-adv-x="757" 
d="M377 -11c-92.667 0 -165.499 26.334 -218.499 79.001s-79.5 129 -79.5 229v403h123v-398c0 -64 15.667 -113.333 47 -148s74.666 -52 129.999 -52s98.5 16.667 129.5 50s46.5 81.666 46.5 144.999v403h123v-397c0 -102 -26.667 -179.833 -80 -233.5
s-127 -80.5 -221 -80.5zM234.001 757.001l112 145l106 -48l-127 -97h-91zM409.001 757.001l112 145l106 -48l-127 -97h-91z" />
    <glyph glyph-name="uhungarumlaut" unicode="&#x171;" horiz-adv-x="620" 
d="M258 -11c-58.667 0 -104.667 18.332 -138 54.999s-50 86 -50 148v336h121v-300c0 -41.333 9.83301 -73.166 29.5 -95.499s47.5 -33.5 83.5 -33.5c35.333 0 64 11.667 86 35s33 55.333 33 96v298h121v-528h-121v82c-42 -62 -97 -93 -165 -93zM336 594.999l105 164l106 -49
l-123 -115h-88zM166 594.999l103 164l106 -49l-121 -115h-88z" />
    <glyph glyph-name="Uogonek" unicode="&#x172;" horiz-adv-x="757" 
d="M458 -164c-51.333 -4.66699 -91.499 0.833984 -120.499 16.501s-43.5 37.5 -43.5 65.5c0 24 11 48.667 33 74c-78 9.33301 -138.833 40 -182.5 92s-65.5 123 -65.5 213v403h123v-398c0 -64 15.667 -113.333 47 -148s74.666 -52 129.999 -52s98.5 16.667 129.5 50
s46.5 81.666 46.5 144.999v403h123v-397c0 -96 -23.667 -170.5 -71 -223.5s-113 -82.5 -197 -88.5c-16 -18 -24 -36 -24 -54c0 -28.667 24 -43 72 -43v-58z" />
    <glyph glyph-name="uogonek" unicode="&#x173;" horiz-adv-x="620" 
d="M258 -11c-58.667 0 -104.667 18.332 -138 54.999s-50 86 -50 148v336h121v-300c0 -41.333 9.83301 -73.166 29.5 -95.499s47.5 -33.5 83.5 -33.5c35.333 0 64 11.667 86 35s33 55.333 33 96v298h121v-528h-27c-22 -22 -33 -43 -33 -63c0 -28.667 24 -43 72 -43v-58
c-51.333 -4.66699 -91.5 0.833008 -120.5 16.5s-43.5 37.5 -43.5 65.5c0 26.667 13.333 54 40 82h-9v82c-42 -62 -97 -93 -165 -93z" />
    <glyph glyph-name="Wcircumflex" unicode="&#x174;" horiz-adv-x="1116" 
d="M280 -5l-244 705h133l167 -519l172 521h104l172 -521l167 519h129l-244 -705h-106l-172 503l-172 -503h-106zM380 758l121 135h114l121 -135h-102l-77 58l-77 -58h-100z" />
    <glyph glyph-name="wcircumflex" unicode="&#x175;" horiz-adv-x="861" 
d="M258 595l116 147h112l117 -147h-96l-78 67l-77 -67h-94zM203 -4l-171 532h124l106 -362l117 364h103l118 -364l108 362h121l-173 -532h-108l-118 361l-119 -361h-108z" />
    <glyph glyph-name="Ycircumflex" unicode="&#x176;" horiz-adv-x="716" 
d="M296 0v276l-278 424h145l196 -310l198 310h141l-278 -421v-279h-124zM180 757l121 135h114l121 -135h-102l-77 58l-77 -58h-100z" />
    <glyph glyph-name="ycircumflex" unicode="&#x177;" horiz-adv-x="596" 
d="M184 -163c-44 0 -85.667 10.667 -125 32l41 90c24.667 -13.333 48.334 -20 71.001 -20c17.333 0 31.666 4.5 42.999 13.5s22 24.833 32 47.5l-220 528h129l150 -392l137 392h126l-210 -543c-21.333 -54 -45 -92.167 -71 -114.5s-60.333 -33.5 -103 -33.5zM126 595
l116 147h112l117 -147h-96l-78 67l-77 -67h-94z" />
    <glyph glyph-name="Ydieresis" unicode="&#x178;" horiz-adv-x="716" 
d="M296 0v276l-278 424h145l196 -310l198 310h141l-278 -421v-279h-124zM399 757v112h124v-112h-124zM193 757v112h125v-112h-125z" />
    <glyph glyph-name="Zacute" unicode="&#x179;" horiz-adv-x="702" 
d="M65 0v91l413 500h-400v109h560v-91l-413 -500h413v-109h-573zM308 758l112 145l110 -48l-128 -97h-94z" />
    <glyph glyph-name="zacute" unicode="&#x17a;" horiz-adv-x="560" 
d="M234 595l104 164l110 -49l-123 -115h-91zM52 0v83l305 346h-294v99h448v-83l-305 -346h305v-99h-459z" />
    <glyph glyph-name="Zdotaccent" unicode="&#x17b;" horiz-adv-x="702" 
d="M293 758v112h128v-112h-128zM65 0v91l413 500h-400v109h560v-91l-413 -500h413v-109h-573z" />
    <glyph glyph-name="zdotaccent" unicode="&#x17c;" horiz-adv-x="560" 
d="M52 0v83l305 346h-294v99h448v-83l-305 -346h305v-99h-459zM219 595v119h126v-119h-126z" />
    <glyph glyph-name="Zcaron" unicode="&#x17d;" horiz-adv-x="702" 
d="M535 893l-121 -135h-114l-121 135h102l77 -57l77 57h100zM65 0v91l413 500h-400v109h560v-91l-413 -500h413v-109h-573z" />
    <glyph glyph-name="zcaron" unicode="&#x17e;" horiz-adv-x="560" 
d="M455 742l-117 -147h-112l-116 147h96l77 -67l78 67h94zM52 0v83l305 346h-294v99h448v-83l-305 -346h305v-99h-459z" />
    <glyph glyph-name="florin" unicode="&#x192;" horiz-adv-x="527" 
d="M97 -5c-24 0 -42.666 1.66602 -55.999 4.99902v99c14 -2 27.333 -3 40 -3c41.333 0 65.666 22.333 72.999 67l35 193h-80v101h97l18 93c10 52 28.5 90.833 55.5 116.5s66.833 38.5 119.5 38.5c35.333 0 66 -3.66699 92 -11v-102c-26.667 6.66699 -49.667 10 -69 10
c-23.333 0 -41.333 -6 -54 -18s-21.667 -31.667 -27 -59l-12 -68h127v-101h-145l-38 -211c-9.33301 -53.333 -28 -91.666 -56 -114.999s-68 -35 -120 -35z" />
    <glyph glyph-name="Aringacute" unicode="&#x1fa;" horiz-adv-x="790" 
d="M276 745c0 30.667 11.667 56 35 76s51.333 30 84 30s60.667 -10 84 -30s35 -45.333 35 -76c0 -34 -14.667 -61.333 -44 -82l290 -663h-130l-71 169h-331l-72 -169h-126l289 663c-28.667 20.667 -43 48 -43 82zM273 278h241l-121 280zM340 879l117 129l109 -49l-131 -80
h-95zM331 745c0 -16 6 -29.667 18 -41s27.333 -17 46 -17s34.167 5.66699 46.5 17s18.5 25 18.5 41c0 16.667 -6.16699 30.5 -18.5 41.5s-27.833 16.5 -46.5 16.5s-34 -5.5 -46 -16.5s-18 -24.833 -18 -41.5z" />
    <glyph glyph-name="aringacute" unicode="&#x1fb;" horiz-adv-x="587" 
d="M245 849l110 138l108 -49l-126 -89h-92zM519 0h-120v65c-42.667 -50.667 -99.667 -76 -171 -76c-52.667 0 -97.167 14.5 -133.5 43.5s-54.5 68.833 -54.5 119.5v2c0 56.667 19.667 99.667 59 129s91 44 155 44c51.333 0 100 -7.33301 146 -22v10
c0 36.667 -11.167 64.667 -33.5 84s-54.5 29 -96.5 29c-48 0 -98.333 -11 -151 -33l-33 97c65.333 29.333 132.333 44 201 44c76.667 0 134.5 -19.333 173.5 -58s58.5 -93.667 58.5 -165v-313zM402 191l0.000976562 29.999c-36 14 -76.333 21 -121 21
c-38 0 -67.667 -7.33301 -89 -22s-32 -34.667 -32 -60v-2c0 -24 9.66699 -43 29 -57s43.666 -21 72.999 -21c40.667 0 74.167 10.333 100.5 31s39.5 47.334 39.5 80.001zM178.001 704.999c0 30.667 11.333 57 34 79s50 33 82 33s59.333 -11 82 -33s34 -48.333 34 -79
s-11.333 -57 -34 -79s-50 -33 -82 -33s-59.333 11 -82 33s-34 48.333 -34 79zM227.001 704.999c0 -18.667 6.5 -34.5 19.5 -47.5s28.833 -19.5 47.5 -19.5s34.5 6.5 47.5 19.5s19.5 28.833 19.5 47.5s-6.5 34.5 -19.5 47.5s-28.833 19.5 -47.5 19.5s-34.5 -6.5 -47.5 -19.5
s-19.5 -28.833 -19.5 -47.5z" />
    <glyph glyph-name="AEacute" unicode="&#x1fc;" horiz-adv-x="1045" 
d="M572 758l112 145l110 -48l-128 -97h-94zM12 0l391 700h581v-110h-374v-182h329v-110h-329v-188h379v-110h-502v169h-255l-93 -169h-127zM291 278h196v315h-20z" />
    <glyph glyph-name="aeacute" unicode="&#x1fd;" horiz-adv-x="952" 
d="M424 595l104 164l110 -49l-123 -115h-91zM240 -11c-57.333 0 -104.997 14.333 -142.997 43s-57 68.667 -57 120v2c0 56.667 19.5 99.667 58.5 129s90.167 44 153.5 44c50.667 0 99 -7.33301 145 -22v10c0 75.333 -43 113 -129 113c-46.667 0 -96.334 -11 -149.001 -33
l-33 97c65.333 29.333 131.666 44 198.999 44c90 0 151.667 -29 185 -87c46 60 107.667 90 185 90c78.667 0 140 -27.167 184 -81.5s66 -121.833 66 -202.5c0 -14.667 -0.333008 -26 -1 -34h-388c6.66699 -42 23.667 -74.833 51 -98.5s60.666 -35.5 99.999 -35.5
c52.667 0 100.667 21 144 63l71 -63c-56 -66 -128.333 -99 -217 -99c-84.667 0 -152.667 30 -204 90c-71.333 -59.333 -145 -89 -221 -89zM514.003 301h272c-4 40.667 -17.667 74 -41 100s-54.333 39 -93 39c-36.667 0 -67.5 -12.833 -92.5 -38.5
s-40.167 -59.167 -45.5 -100.5zM260.003 80c55.333 0 107.333 22.668 156 68.001c-10 25.333 -16.333 50.666 -19 75.999c-34 12 -73.333 18 -118 18c-37.333 0 -66.5 -7.33301 -87.5 -22s-31.5 -34.667 -31.5 -60v-2c0 -24 9.5 -43 28.5 -57s42.833 -21 71.5 -21z" />
    <glyph glyph-name="Oslashacute" unicode="&#x1fe;" horiz-adv-x="850" 
d="M424 -12c-76 0 -144 19.999 -204 59.999l-48 -53h-121l99 111c-60.667 66.667 -91 147.334 -91 242.001v2c0 100 34.667 185.333 104 256s157 106 263 106c76 0 144 -20 204 -60l48 53h121l-99 -112c60.667 -66 91 -146.333 91 -241v-2
c0 -100 -34.667 -185.333 -104 -256s-157 -106 -263 -106zM232 200.999l320 360c-37.333 26.667 -80 40 -128 40c-68.667 0 -125.5 -24.167 -170.5 -72.5s-67.5 -107.166 -67.5 -176.499v-2c0 -56.667 15.333 -106.334 46 -149.001zM426 98.999
c68.667 0 125.5 24.167 170.5 72.5s67.5 107.166 67.5 176.499v2c0 56.667 -15.333 106.334 -46 149.001l-320 -360c37.333 -26.667 80 -40 128 -40zM375 767.999l112 145l110 -48l-128 -97h-94z" />
    <glyph glyph-name="oslashacute" unicode="&#x1ff;" horiz-adv-x="657" 
d="M327 -12c-55.333 0 -105.667 14.3311 -151 42.998l-34 -36h-110l80 89c-43.333 50.667 -65 109.667 -65 177v2c0 76.667 27 141.834 81 195.501s121 80.5 201 80.5c56 0 106.333 -14.333 151 -43l35 38h110l-81 -91c44 -49.333 66 -108.666 66 -177.999v-2
c0 -76 -27 -140.833 -81 -194.5s-121.333 -80.5 -202 -80.5zM189.999 171.998l218 239.999c-24.667 16 -51.667 24 -81 24c-48 0 -87 -16.5 -117 -49.5s-45 -73.5 -45 -121.5v-2c0 -33.333 8.33301 -63.666 25 -90.999zM328.999 90.9971c48.667 0 88 16.499 118 49.499
s45 73.167 45 120.5v2c0 32.667 -8.33301 63.334 -25 92.001l-219 -241c23.333 -15.333 50.333 -23 81 -23zM279.999 594.996l104 164l110 -49l-123 -115h-91z" />
    <glyph glyph-name="Scommaaccent" unicode="&#x218;" horiz-adv-x="640" 
d="M257 -275l-7.99902 39.002c25.333 3.33301 43.666 10.666 54.999 21.999s16.333 26.666 15 45.999h-54v101h118v-86c0 -77.333 -42 -118 -126 -122zM335.001 -9.99805c-111.333 0 -208.665 37.333 -291.998 112l74 88c70 -60.667 143.667 -91 221 -91
c38 0 68.167 8 90.5 24s33.5 37.333 33.5 64v2c0 26 -10.667 46.667 -32 62s-63.333 30.333 -126 45c-40 10 -73.333 20 -100 30s-50.667 23 -72 39s-36.833 35.5 -46.5 58.5s-14.5 50.167 -14.5 81.5v2c0 60 22.333 108.833 67 146.5s102 56.5 172 56.5
c96 0 180.667 -29.333 254 -88l-66 -93c-64.667 48 -128 72 -190 72c-34.667 0 -62.334 -7.83301 -83.001 -23.5s-31 -35.5 -31 -59.5v-2c0 -27.333 11.167 -48.5 33.5 -63.5s66.5 -30.5 132.5 -46.5c77.333 -18.667 134.166 -43.5 170.499 -74.5s54.5 -74.5 54.5 -130.5v-2
c0 -64.667 -23 -115.667 -69 -153s-106.333 -56 -181 -56z" />
    <glyph glyph-name="scommaaccent" unicode="&#x219;" horiz-adv-x="501" 
d="M186 -272l-7.99902 39.002c25.333 3.33301 43.666 10.666 54.999 21.999s16.333 26.666 15 45.999h-54v101h118v-86c0 -77.333 -42 -118 -126 -122zM257.001 -9.99805c-82.667 0 -157.332 26.332 -223.999 78.999l54 82c57.333 -43.333 115 -65 173 -65
c26 0 46.167 5.16699 60.5 15.5s21.5 24.166 21.5 41.499v2c0 25.333 -35.333 48.666 -106 69.999c-5.33301 2 -9.33301 3.33301 -12 4c-24 6.66699 -44 13.334 -60 20.001s-33 15.834 -51 27.501s-31.5 26.5 -40.5 44.5s-13.5 39 -13.5 63v2
c0 48.667 17.833 87.667 53.5 117s80.5 44 134.5 44c68.667 0 133.334 -20 194.001 -60l-48 -86c-54.667 33.333 -104.334 50 -149.001 50c-23.333 0 -41.5 -4.83301 -54.5 -14.5s-19.5 -22.5 -19.5 -38.5v-2c0 -16 8.83301 -28.833 26.5 -38.5s45.167 -20.5 82.5 -32.5
c1.33301 0 2.33301 -0.166992 3 -0.5s1.66699 -0.666016 3 -0.999023s2.66602 -0.833008 3.99902 -1.5c23.333 -7.33301 43 -14.5 59 -21.5s32.833 -16.5 50.5 -28.5s31.167 -26.667 40.5 -44s14 -37.333 14 -60v-2c0 -53.333 -18.333 -94.333 -55 -123
s-83.667 -43 -141 -43z" />
    <glyph glyph-name="schwa" unicode="&#x259;" horiz-adv-x="604" 
d="M286 540c77.333 0 141.834 -25.5 193.501 -76.5s77.5 -116.833 77.5 -197.5v-2c0 -76.667 -24.333 -141.667 -73 -195s-110.334 -80 -185.001 -80c-80 0 -142.167 27.167 -186.5 81.5s-66.5 121.833 -66.5 202.5c0 6.66699 0.666992 18 2 34h388
c-6.66699 42 -23.667 74.833 -51 98.5s-61 35.5 -101 35.5c-52 0 -99.667 -21 -143 -63l-71 63c54.667 66 126.667 99 216 99zM437.001 227h-271.001c4 -40.667 17.667 -74 41 -100s54.333 -39 93 -39c36.667 0 67.334 12.833 92.001 38.5s39.667 59.167 45 100.5z" />
    <glyph glyph-name="circumflex" unicode="&#x2c6;" 
d="M78 595l116 147h112l117 -147h-96l-78 67l-77 -67h-94z" />
    <glyph glyph-name="caron" unicode="&#x2c7;" 
d="M423 742l-117 -147h-112l-116 147h96l77 -67l78 67h94z" />
    <glyph glyph-name="breve" unicode="&#x2d8;" 
d="M250 593c-48.667 0 -88.498 12.833 -119.498 38.5s-48.167 61.167 -51.5 106.5h83c13.333 -40.667 42.666 -61 87.999 -61s74.666 20.333 87.999 61h84c-4 -45.333 -21.5 -80.833 -52.5 -106.5s-70.833 -38.5 -119.5 -38.5z" />
    <glyph glyph-name="dotaccent" unicode="&#x2d9;" 
d="M187 595v119h126v-119h-126z" />
    <glyph glyph-name="ring" unicode="&#x2da;" 
d="M134 705c0 30.667 11.333 57 34 79s50 33 82 33s59.333 -11 82 -33s34 -48.333 34 -79s-11.333 -57 -34 -79s-50 -33 -82 -33s-59.333 11 -82 33s-34 48.333 -34 79zM183 705c0 -18.667 6.5 -34.5 19.5 -47.5s28.833 -19.5 47.5 -19.5s34.5 6.5 47.5 19.5
s19.5 28.833 19.5 47.5s-6.5 34.5 -19.5 47.5s-28.833 19.5 -47.5 19.5s-34.5 -6.5 -47.5 -19.5s-19.5 -28.833 -19.5 -47.5z" />
    <glyph glyph-name="ogonek" unicode="&#x2db;" 
d="M346 -164c-51.333 -4.66699 -91.5 0.833008 -120.5 16.5s-43.5 37.5 -43.5 65.5c0 29.333 17.333 60.666 52 93.999l81 -5c-27.333 -25.333 -41 -48.666 -41 -69.999c0 -28.667 24 -43 72 -43v-58z" />
    <glyph glyph-name="tilde" unicode="&#x2dc;" 
d="M128 585l-67 21c11.333 42.667 25.5 74 42.5 94s40.167 30 69.5 30c20 0 46.333 -6.66699 79 -20s54.334 -20 65.001 -20c14 0 24.667 3.66699 32 11s15 20.333 23 39l67 -20c-11.333 -42.667 -25.5 -74.167 -42.5 -94.5s-40.167 -30.5 -69.5 -30.5
c-20 0 -46.333 6.66699 -79 20s-54.334 20 -65.001 20c-14 0 -24.667 -3.66699 -32 -11s-15 -20.333 -23 -39z" />
    <glyph glyph-name="hungarumlaut" unicode="&#x2dd;" 
d="M233 595l105 164l106 -49l-123 -115h-88zM63 595l103 164l106 -49l-121 -115h-88z" />
    <glyph glyph-name="commaaccent" unicode="&#x326;" 
d="M183 -272l-7.99902 39.002c25.333 3.33301 43.666 10.666 54.999 21.999s16.333 26.666 15 45.999h-54v101h118v-86c0 -77.333 -42 -118 -126 -122z" />
    <glyph glyph-name="Wgrave" unicode="&#x1e80;" horiz-adv-x="1116" 
d="M494 903l113 -145h-95l-127 97zM280 -5l-244 705h133l167 -519l172 521h104l172 -521l167 519h129l-244 -705h-106l-172 503l-172 -503h-106z" />
    <glyph glyph-name="wgrave" unicode="&#x1e81;" horiz-adv-x="861" 
d="M203 -4l-171 532h124l106 -362l117 364h103l118 -364l108 362h121l-173 -532h-108l-118 361l-119 -361h-108zM387 595l-123 115l110 49l104 -164h-91z" />
    <glyph glyph-name="Wacute" unicode="&#x1e82;" horiz-adv-x="1116" 
d="M508 758l112 145l110 -48l-128 -97h-94zM280 -5l-244 705h133l167 -519l172 521h104l172 -521l167 519h129l-244 -705h-106l-172 503l-172 -503h-106z" />
    <glyph glyph-name="wacute" unicode="&#x1e83;" horiz-adv-x="861" 
d="M381 595l104 164l110 -49l-123 -115h-91zM203 -4l-171 532h124l106 -362l117 364h103l118 -364l108 362h121l-173 -532h-108l-118 361l-119 -361h-108z" />
    <glyph glyph-name="Wdieresis" unicode="&#x1e84;" horiz-adv-x="1116" 
d="M599 758v112h124v-112h-124zM393 758v112h125v-112h-125zM280 -5l-244 705h133l167 -519l172 521h104l172 -521l167 519h129l-244 -705h-106l-172 503l-172 -503h-106z" />
    <glyph glyph-name="wdieresis" unicode="&#x1e85;" horiz-adv-x="861" 
d="M466 595v119h123v-119h-123zM271 595v119h123v-119h-123zM203 -4l-171 532h124l106 -362l117 364h103l118 -364l108 362h121l-173 -532h-108l-118 361l-119 -361h-108z" />
    <glyph glyph-name="Ygrave" unicode="&#x1ef2;" horiz-adv-x="716" 
d="M296 0v276l-278 424h145l196 -310l198 310h141l-278 -421v-279h-124zM294 902l113 -145h-95l-127 97z" />
    <glyph glyph-name="ygrave" unicode="&#x1ef3;" horiz-adv-x="596" 
d="M184 -163c-44 0 -85.667 10.667 -125 32l41 90c24.667 -13.333 48.334 -20 71.001 -20c17.333 0 31.666 4.5 42.999 13.5s22 24.833 32 47.5l-220 528h129l150 -392l137 392h126l-210 -543c-21.333 -54 -45 -92.167 -71 -114.5s-60.333 -33.5 -103 -33.5zM255 595
l-123 115l110 49l104 -164h-91z" />
    <glyph glyph-name="enspace" unicode="&#x2002;" 
 />
    <glyph glyph-name="emspace" unicode="&#x2003;" horiz-adv-x="1000" 
 />
    <glyph glyph-name="threeperemspace" unicode="&#x2004;" horiz-adv-x="333" 
 />
    <glyph glyph-name="fourperemspace" unicode="&#x2005;" horiz-adv-x="250" 
 />
    <glyph glyph-name="thinspace" unicode="&#x2009;" horiz-adv-x="133" 
 />
    <glyph glyph-name="hairspace" unicode="&#x200a;" horiz-adv-x="75" 
 />
    <glyph glyph-name="endash" unicode="&#x2013;" horiz-adv-x="528" 
d="M56 249v115h416v-115h-416z" />
    <glyph glyph-name="emdash" unicode="&#x2014;" horiz-adv-x="898" 
d="M56 249v115h786v-115h-786z" />
    <glyph glyph-name="quoteleft" unicode="&#x2018;" horiz-adv-x="269" 
d="M63 422l-0.000976562 117c0 54 12.667 94.167 38 120.5s64 41.5 116 45.5l13 -52c-61.333 -11.333 -89.666 -42.333 -84.999 -93h51v-138h-133z" />
    <glyph glyph-name="quoteright" unicode="&#x2019;" horiz-adv-x="269" 
d="M52 417l-12.999 52.001c61.333 11.333 89.666 42.666 84.999 93.999h-51v137h133v-117c0 -54 -12.667 -94.167 -38 -120.5s-64 -41.5 -116 -45.5z" />
    <glyph glyph-name="quotesinglbase" unicode="&#x201a;" horiz-adv-x="269" 
d="M47 -145l-12.999 51c61.333 12 89.666 43.333 84.999 94h-51v137h133v-116c0 -54 -12.667 -94.167 -38 -120.5s-64 -41.5 -116 -45.5z" />
    <glyph glyph-name="quotedblleft" unicode="&#x201c;" horiz-adv-x="501" 
d="M295 422v117c0 54 12.667 94.167 38 120.5s64 41.5 116 45.5l13 -52c-61.333 -11.333 -90 -42.333 -86 -93h52v-138h-133zM63 422l-0.000976562 117c0 54 12.667 94.167 38 120.5s64 41.5 116 45.5l13 -52c-61.333 -11.333 -89.666 -42.333 -84.999 -93h51v-138h-133z
" />
    <glyph glyph-name="quotedblright" unicode="&#x201d;" horiz-adv-x="501" 
d="M284 417l-12.999 52.001c61.333 11.333 89.666 42.666 84.999 93.999h-51v137h133v-117c0 -54 -12.667 -94.167 -38 -120.5s-64 -41.5 -116 -45.5zM52.001 417.001l-12.999 52.001c61.333 11.333 89.666 42.666 84.999 93.999h-51v137h133v-117
c0 -54 -12.667 -94.167 -38 -120.5s-64 -41.5 -116 -45.5z" />
    <glyph glyph-name="quotedblbase" unicode="&#x201e;" horiz-adv-x="501" 
d="M279 -145l-12.999 51c61.333 12 89.666 43.333 84.999 94h-51v137h133v-116c0 -54 -12.667 -94.167 -38 -120.5s-64 -41.5 -116 -45.5zM47.001 -145l-12.999 51c61.333 12 89.666 43.333 84.999 94h-51v137h133v-116c0 -54 -12.667 -94.167 -38 -120.5
s-64 -41.5 -116 -45.5z" />
    <glyph glyph-name="dagger" unicode="&#x2020;" horiz-adv-x="410" 
d="M169 238l9 275l-122 -9v71l121 -9l-12 134h80l-12 -134l121 9v-71l-122 9l9 -275h-72z" />
    <glyph glyph-name="daggerdbl" unicode="&#x2021;" horiz-adv-x="430" 
d="M175 0l12 134l-121 -9v71l121 -9l-8 163l8 163l-121 -9v71l121 -9l-12 134h80l-12 -134l121 9v-71l-121 9l8 -163l-8 -163l121 9v-71l-121 9l12 -134h-80z" />
    <glyph glyph-name="bullet" unicode="&#x2022;" horiz-adv-x="491" 
d="M245 211c-38.667 0 -71.833 13.667 -99.5 41s-41.5 60.333 -41.5 99v2c0 38.667 14 71.667 42 99s61 41 99 41c38.667 0 72 -13.667 100 -41s42 -60.333 42 -99v-2c0 -38.667 -13.833 -71.667 -41.5 -99s-61.167 -41 -100.5 -41z" />
    <glyph glyph-name="ellipsis" unicode="&#x2026;" horiz-adv-x="792" 
d="M594 0v134h130v-134h-130zM331 0v134h130v-134h-130zM68 0v134h130v-134h-130z" />
    <glyph glyph-name="perthousand" unicode="&#x2030;" horiz-adv-x="1228" 
d="M212 350c-48 0 -87.333 17.167 -118 51.5s-46 76.166 -46 125.499v2c0 49.333 15.5 91.5 46.5 126.5s70.833 52.5 119.5 52.5c48 0 87.333 -17.167 118 -51.5s46 -76.166 46 -125.499v-2c0 -49.333 -15.5 -91.5 -46.5 -126.5s-70.833 -52.5 -119.5 -52.5zM119 0l512 700
h99l-512 -700h-99zM1014 -8c-48.667 0 -88.167 17.167 -118.5 51.5s-45.5 76.166 -45.5 125.499v2c0 50 15.5 92.333 46.5 127s70.833 52 119.5 52c48 0 87.333 -17.167 118 -51.5s46 -76.166 46 -125.499v-2c0 -49.333 -15.5 -91.5 -46.5 -126.5
s-70.833 -52.5 -119.5 -52.5zM635 -8c-48 0 -87.333 17.167 -118 51.5s-46 76.166 -46 125.499v2c0 49.333 15.5 91.5 46.5 126.5s70.833 52.5 119.5 52.5c48 0 87.333 -17.167 118 -51.5s46 -76.166 46 -125.499v-2c0 -49.333 -15.5 -91.5 -46.5 -126.5
s-70.833 -52.5 -119.5 -52.5zM214 427c22.667 0 40.834 9.66699 54.501 29s20.5 43 20.5 71v2c0 28.667 -7.33301 52.834 -22 72.501s-33 29.5 -55 29.5c-22.667 0 -40.834 -9.66699 -54.501 -29s-20.5 -43 -20.5 -71v-2c0 -28.667 7.33301 -52.834 22 -72.501
s33 -29.5 55 -29.5zM1016 69c22.667 0 40.834 9.66699 54.501 29s20.5 43 20.5 71v2c0 28.667 -7.33301 52.834 -22 72.501s-33 29.5 -55 29.5c-22.667 0 -40.834 -9.66699 -54.501 -29s-20.5 -43 -20.5 -71v-2c0 -28.667 7.33301 -52.834 22 -72.501s33 -29.5 55 -29.5z
M637 69c22.667 0 40.834 9.66699 54.501 29s20.5 43 20.5 71v2c0 28.667 -7.33301 52.834 -22 72.501s-33 29.5 -55 29.5c-22.667 0 -40.834 -9.66699 -54.501 -29s-20.5 -43 -20.5 -71v-2c0 -28.667 7.33301 -52.834 22 -72.501s33 -29.5 55 -29.5z" />
    <glyph glyph-name="guilsinglleft" unicode="&#x2039;" horiz-adv-x="354" 
d="M210 41l-166 219v8l166 220l92 -47l-132 -176l132 -177z" />
    <glyph glyph-name="guilsinglright" unicode="&#x203a;" horiz-adv-x="354" 
d="M145 41l-92 46l132 176l-132 177l92 48l165 -220v-8z" />
    <glyph glyph-name="fraction" unicode="&#x2044;" horiz-adv-x="450" 
d="M-48 0l251 364l224 336h71l-251 -364l-224 -336h-71z" />
    <glyph glyph-name="Euro" unicode="&#x20ac;" horiz-adv-x="720" 
d="M434 -12c-72.667 0 -134.502 21.4961 -185.502 64.4961s-86.167 100.5 -105.5 172.5h-91v85h77c-0.666992 8.66699 -1 21.334 -1 38.001v2c0 20.667 0.666992 35.667 2 45h-78v85h94c20.667 69.333 56 125.333 106 168s109.333 64 178 64
c56.667 0 104.167 -11.5 142.5 -34.5s72.166 -55.5 101.499 -97.5l-93 -69c-22.667 31.333 -45.667 54.333 -69 69s-51.666 22 -84.999 22c-34.667 0 -65.5 -10.833 -92.5 -32.5s-47.5 -51.5 -61.5 -89.5h215v-85h-234c-1.33301 -17.333 -2 -31.666 -2 -42.999v-2
c0 -9.33301 0.666992 -22.666 2 -39.999h234v-85h-216c14 -39.333 35 -70.333 63 -93s61.333 -34 100 -34c31.333 0 58.333 7.66699 81 23s46.667 39.333 72 72l88 -64c-31.333 -45.333 -66.166 -80.166 -104.499 -104.499s-84.166 -36.5 -137.499 -36.5z" />
    <glyph glyph-name="published" unicode="&#x2117;" horiz-adv-x="830" 
d="M414 -12c-100.667 0 -186 35.167 -256 105.5s-105 155.166 -105 254.499v2c0 99.333 35.333 184.5 106 255.5s156.334 106.5 257.001 106.5s186 -35.167 256 -105.5s105 -155.166 105 -254.499v-2c0 -99.333 -35.333 -184.5 -106 -255.5s-156.334 -106.5 -257.001 -106.5
zM414 24c92 0 169.167 31.833 231.5 95.5s93.5 140.5 93.5 230.5v2c0 90 -31 166.5 -93 229.5s-138.667 94.5 -230 94.5c-92 0 -169.167 -31.833 -231.5 -95.5s-93.5 -140.5 -93.5 -230.5v-2c0 -90 31 -166.5 93 -229.5s138.667 -94.5 230 -94.5zM286 167l-0.000976562 380
h153c44.667 0 80.334 -11.5 107.001 -34.5s40 -54.167 40 -93.5v-2c0 -41.333 -14.833 -73.333 -44.5 -96s-66.5 -34 -110.5 -34h-71v-120h-74zM359.999 352h73.001c24 0 43 5.83301 57 17.5s21 27.167 21 46.5v2c0 20 -6.83301 35.5 -20.5 46.5s-32.834 16.5 -57.501 16.5
h-73v-129z" />
    <glyph glyph-name="servicemark" unicode="&#x2120;" horiz-adv-x="705" 
d="M168 386c-52.667 0 -98.6709 17 -138.004 51l32 40c36.667 -28.667 73 -43 109 -43c18.667 0 33.334 3.66699 44.001 11s16 17 16 29c0 11.333 -5.16699 20.333 -15.5 27s-29.5 13.334 -57.5 20.001c-38.667 9.33301 -67.167 20.333 -85.5 33s-27.5 32 -27.5 58
c0 28 10.5 50.667 31.5 68s48.5 26 82.5 26c47.333 0 87.333 -13.667 120 -41l-31 -41c-31.333 21.333 -61.333 32 -90 32c-17.333 0 -31 -3.5 -41 -10.5s-15 -15.833 -15 -26.5c0 -12 5.33301 -21.333 16 -28s30.334 -13.334 59.001 -20.001
c36.667 -8 64.334 -19 83.001 -33s28 -33.333 28 -58c0 -28.667 -11.167 -51.5 -33.5 -68.5s-51.166 -25.5 -86.499 -25.5zM355.996 392v308h63l93 -146l93 146h61v-308h-57v219l-95 -148h-6l-95 148v-219h-57z" />
    <glyph glyph-name="trademark" unicode="&#x2122;" horiz-adv-x="690" 
d="M341 392v308h63l93 -146l93 146h61v-308h-57v219l-95 -148h-6l-95 148v-219h-57zM121 392v254h-95v54h249v-54h-95v-254h-59z" />
    <glyph glyph-name="minus" unicode="&#x2212;" horiz-adv-x="634" 
d="M566 296h-498v113h498v-113z" />
    <glyph glyph-name=".null" horiz-adv-x="0" 
 />
    <glyph glyph-name="nonmarkingreturn" horiz-adv-x="333" 
 />
    <glyph glyph-name="Q.alt" horiz-adv-x="850" 
d="M666 -101l-117 110.999c-40 -14.667 -81.667 -22 -125 -22c-106 0 -193.333 35 -262 105s-103 155 -103 255v2c0 100 34.667 185.333 104 256s157 106 263 106s193.333 -35 262 -105s103 -155 103 -255v-2c0 -52.667 -10.5 -102.667 -31.5 -150
s-50.5 -87.666 -88.5 -120.999l175 -172v-8h-180zM426 100.999c68.667 0 125.167 23.833 169.5 71.5s66.5 106.167 66.5 175.5v2c0 69.333 -22.5 128.166 -67.5 176.499s-101.833 72.5 -170.5 72.5s-125.167 -23.833 -169.5 -71.5s-66.5 -106.167 -66.5 -175.5v-2
c0 -69.333 22.5 -128.166 67.5 -176.499s101.833 -72.5 170.5 -72.5z" />
    <glyph glyph-name="a.alt" horiz-adv-x="671" 
d="M294 -11c-66 0 -123.333 24.833 -172 74.5s-73 116.167 -73 199.5v2c0 84 24.167 150.667 72.5 200s105.833 74 172.5 74c72.667 0 132.667 -31 180 -93v82h121v-528h-121v88c-46.667 -66 -106.667 -99 -180 -99zM323 94c42 0 78 15.833 108 47.5s45 72.167 45 121.5v2
c0 49.333 -15 89.833 -45 121.5s-66 47.5 -108 47.5c-42.667 0 -78.667 -15.333 -108 -46s-44 -71.667 -44 -123v-2c0 -50 14.833 -90.667 44.5 -122s65.5 -47 107.5 -47z" />
    <glyph glyph-name="aacute.alt" horiz-adv-x="671" 
d="M293 595l104 164l110 -49l-123 -115h-91zM294 -11c-66 0 -123.333 24.833 -172 74.5s-73 116.167 -73 199.5v2c0 84 24.167 150.667 72.5 200s105.833 74 172.5 74c72.667 0 132.667 -31 180 -93v82h121v-528h-121v88c-46.667 -66 -106.667 -99 -180 -99zM323 94
c42 0 78 15.833 108 47.5s45 72.167 45 121.5v2c0 49.333 -15 89.833 -45 121.5s-66 47.5 -108 47.5c-42.667 0 -78.667 -15.333 -108 -46s-44 -71.667 -44 -123v-2c0 -50 14.833 -90.667 44.5 -122s65.5 -47 107.5 -47z" />
    <glyph glyph-name="abreve.alt" horiz-adv-x="671" 
d="M294 -11c-66 0 -123.333 24.833 -172 74.5s-73 116.167 -73 199.5v2c0 84 24.167 150.667 72.5 200s105.833 74 172.5 74c72.667 0 132.667 -31 180 -93v82h121v-528h-121v88c-46.667 -66 -106.667 -99 -180 -99zM323 94c42 0 78 15.833 108 47.5s45 72.167 45 121.5v2
c0 49.333 -15 89.833 -45 121.5s-66 47.5 -108 47.5c-42.667 0 -78.667 -15.333 -108 -46s-44 -71.667 -44 -123v-2c0 -50 14.833 -90.667 44.5 -122s65.5 -47 107.5 -47zM341 593c-48.667 0 -88.498 12.833 -119.498 38.5s-48.167 61.167 -51.5 106.5h83
c13.333 -40.667 42.666 -61 87.999 -61s74.666 20.333 87.999 61h84c-4 -45.333 -21.5 -80.833 -52.5 -106.5s-70.833 -38.5 -119.5 -38.5z" />
    <glyph glyph-name="acircumflex.alt" horiz-adv-x="671" 
d="M169 595l116 147h112l117 -147h-96l-78 67l-77 -67h-94zM294 -11c-66 0 -123.333 24.833 -172 74.5s-73 116.167 -73 199.5v2c0 84 24.167 150.667 72.5 200s105.833 74 172.5 74c72.667 0 132.667 -31 180 -93v82h121v-528h-121v88c-46.667 -66 -106.667 -99 -180 -99z
M323 94c42 0 78 15.833 108 47.5s45 72.167 45 121.5v2c0 49.333 -15 89.833 -45 121.5s-66 47.5 -108 47.5c-42.667 0 -78.667 -15.333 -108 -46s-44 -71.667 -44 -123v-2c0 -50 14.833 -90.667 44.5 -122s65.5 -47 107.5 -47z" />
    <glyph glyph-name="adieresis.alt" horiz-adv-x="671" 
d="M377 595v119h123v-119h-123zM182 595v119h123v-119h-123zM294 -11c-66 0 -123.333 24.833 -172 74.5s-73 116.167 -73 199.5v2c0 84 24.167 150.667 72.5 200s105.833 74 172.5 74c72.667 0 132.667 -31 180 -93v82h121v-528h-121v88c-46.667 -66 -106.667 -99 -180 -99z
M323 94c42 0 78 15.833 108 47.5s45 72.167 45 121.5v2c0 49.333 -15 89.833 -45 121.5s-66 47.5 -108 47.5c-42.667 0 -78.667 -15.333 -108 -46s-44 -71.667 -44 -123v-2c0 -50 14.833 -90.667 44.5 -122s65.5 -47 107.5 -47z" />
    <glyph glyph-name="agrave.alt" horiz-adv-x="671" 
d="M294 -11c-66 0 -123.333 24.833 -172 74.5s-73 116.167 -73 199.5v2c0 84 24.167 150.667 72.5 200s105.833 74 172.5 74c72.667 0 132.667 -31 180 -93v82h121v-528h-121v88c-46.667 -66 -106.667 -99 -180 -99zM323 94c42 0 78 15.833 108 47.5s45 72.167 45 121.5v2
c0 49.333 -15 89.833 -45 121.5s-66 47.5 -108 47.5c-42.667 0 -78.667 -15.333 -108 -46s-44 -71.667 -44 -123v-2c0 -50 14.833 -90.667 44.5 -122s65.5 -47 107.5 -47zM298 595l-123 115l110 49l104 -164h-91z" />
    <glyph glyph-name="amacron.alt" horiz-adv-x="671" 
d="M294 -11c-66 0 -123.333 24.833 -172 74.5s-73 116.167 -73 199.5v2c0 84 24.167 150.667 72.5 200s105.833 74 172.5 74c72.667 0 132.667 -31 180 -93v82h121v-528h-121v88c-46.667 -66 -106.667 -99 -180 -99zM323 94c42 0 78 15.833 108 47.5s45 72.167 45 121.5v2
c0 49.333 -15 89.833 -45 121.5s-66 47.5 -108 47.5c-42.667 0 -78.667 -15.333 -108 -46s-44 -71.667 -44 -123v-2c0 -50 14.833 -90.667 44.5 -122s65.5 -47 107.5 -47zM171 606v88h340v-88h-340z" />
    <glyph glyph-name="aogonek.alt" horiz-adv-x="671" 
d="M607 -164c-51.333 -4.66699 -91.5 0.833008 -120.5 16.5s-43.5 37.5 -43.5 65.5c0 26.667 13.333 54 40 82h-9v88c-46.667 -66 -106.667 -99 -180 -99c-66 0 -123.333 24.833 -172 74.5s-73 116.167 -73 199.5v2c0 84 24.167 150.667 72.5 200s105.833 74 172.5 74
c72.667 0 132.667 -31 180 -93v82h121v-528h-27c-22 -22 -33 -43 -33 -63c0 -28.667 24 -43 72 -43v-58zM323 94c42 0 78 15.833 108 47.5s45 72.167 45 121.5v2c0 49.333 -15 89.833 -45 121.5s-66 47.5 -108 47.5c-42.667 0 -78.667 -15.333 -108 -46
s-44 -71.667 -44 -123v-2c0 -50 14.833 -90.667 44.5 -122s65.5 -47 107.5 -47z" />
    <glyph glyph-name="aring.alt" horiz-adv-x="671" 
d="M225 705c0 30.667 11.333 57 34 79s50 33 82 33s59.333 -11 82 -33s34 -48.333 34 -79s-11.333 -57 -34 -79s-50 -33 -82 -33s-59.333 11 -82 33s-34 48.333 -34 79zM274 705c0 -18.667 6.5 -34.5 19.5 -47.5s28.833 -19.5 47.5 -19.5s34.5 6.5 47.5 19.5
s19.5 28.833 19.5 47.5s-6.5 34.5 -19.5 47.5s-28.833 19.5 -47.5 19.5s-34.5 -6.5 -47.5 -19.5s-19.5 -28.833 -19.5 -47.5zM294 -11c-66 0 -123.333 24.833 -172 74.5s-73 116.167 -73 199.5v2c0 84 24.167 150.667 72.5 200s105.833 74 172.5 74
c72.667 0 132.667 -31 180 -93v82h121v-528h-121v88c-46.667 -66 -106.667 -99 -180 -99zM323 94c42 0 78 15.833 108 47.5s45 72.167 45 121.5v2c0 49.333 -15 89.833 -45 121.5s-66 47.5 -108 47.5c-42.667 0 -78.667 -15.333 -108 -46s-44 -71.667 -44 -123v-2
c0 -50 14.833 -90.667 44.5 -122s65.5 -47 107.5 -47z" />
    <glyph glyph-name="aring.alt2" horiz-adv-x="587" 
d="M374 525c96.667 -26 145 -96.666 145 -211.999v-313h-120v65c-42.667 -50.667 -99.667 -76 -171 -76c-52.667 0 -97.167 14.5 -133.5 43.5s-54.5 68.833 -54.5 119.5v2c0 56.667 19.667 99.667 59 129s91 44 155 44c51.333 0 100 -7.33301 146 -22v10
c0 36.667 -11.167 64.667 -33.5 84s-54.5 29 -96.5 29c-48 0 -98.333 -11 -151 -33l-33 97c45.333 20 86.333 32.667 123 38c-20 21.333 -30 45.666 -30 72.999c0 30.667 11.333 57 34 79s50 33 82 33s59.333 -11 82 -33s34 -48.333 34 -79s-12.333 -56.667 -37 -78z
M228 603.001c0 -18.667 6.5 -34.5 19.5 -47.5s28.833 -19.5 47.5 -19.5c18 0 33.667 6.5 47 19.5s20 28.833 20 47.5c0 18 -6.66699 33.667 -20 47s-29 20 -47 20c-18.667 0 -34.5 -6.66699 -47.5 -20s-19.5 -29 -19.5 -47zM402 191.001l0.000976562 29.999
c-36 14 -76.333 21 -121 21c-38 0 -67.667 -7.33301 -89 -22s-32 -34.667 -32 -60v-2c0 -24 9.66699 -43 29 -57s43.666 -21 72.999 -21c40.667 0 74.167 10.333 100.5 31s39.5 47.334 39.5 80.001z" />
    <glyph glyph-name="aringacute.alt" horiz-adv-x="671" 
d="M292 849l110 138l108 -49l-127 -89h-91zM225 705c0 30.667 11.333 57 34 79s50 33 82 33s59.333 -11 82 -33s34 -48.333 34 -79s-11.333 -57 -34 -79s-50 -33 -82 -33s-59.333 11 -82 33s-34 48.333 -34 79zM274 705c0 -18.667 6.5 -34.5 19.5 -47.5
s28.833 -19.5 47.5 -19.5s34.5 6.5 47.5 19.5s19.5 28.833 19.5 47.5s-6.5 34.5 -19.5 47.5s-28.833 19.5 -47.5 19.5s-34.5 -6.5 -47.5 -19.5s-19.5 -28.833 -19.5 -47.5zM294 -11c-66 0 -123.333 24.833 -172 74.5s-73 116.167 -73 199.5v2c0 84 24.167 150.667 72.5 200
s105.833 74 172.5 74c72.667 0 132.667 -31 180 -93v82h121v-528h-121v88c-46.667 -66 -106.667 -99 -180 -99zM323 94c42 0 78 15.833 108 47.5s45 72.167 45 121.5v2c0 49.333 -15 89.833 -45 121.5s-66 47.5 -108 47.5c-42.667 0 -78.667 -15.333 -108 -46
s-44 -71.667 -44 -123v-2c0 -50 14.833 -90.667 44.5 -122s65.5 -47 107.5 -47z" />
    <glyph glyph-name="aringacute.alt2" horiz-adv-x="587" 
d="M245 750l110 138l108 -49l-126 -89h-92zM374 525c96.667 -26 145 -96.666 145 -211.999v-313h-120v65c-42.667 -50.667 -99.667 -76 -171 -76c-52.667 0 -97.167 14.5 -133.5 43.5s-54.5 68.833 -54.5 119.5v2c0 56.667 19.667 99.667 59 129s91 44 155 44
c51.333 0 100 -7.33301 146 -22v10c0 36.667 -11.167 64.667 -33.5 84s-54.5 29 -96.5 29c-48 0 -98.333 -11 -151 -33l-33 97c45.333 20 86.333 32.667 123 38c-20 21.333 -30 45.666 -30 72.999c0 30.667 11.333 57 34 79s50 33 82 33s59.333 -11 82 -33
s34 -48.333 34 -79s-12.333 -56.667 -37 -78zM228 603.001c0 -18.667 6.5 -34.5 19.5 -47.5s28.833 -19.5 47.5 -19.5c18 0 33.667 6.5 47 19.5s20 28.833 20 47.5c0 18 -6.66699 33.667 -20 47s-29 20 -47 20c-18.667 0 -34.5 -6.66699 -47.5 -20s-19.5 -29 -19.5 -47z
M402 191.001l0.000976562 29.999c-36 14 -76.333 21 -121 21c-38 0 -67.667 -7.33301 -89 -22s-32 -34.667 -32 -60v-2c0 -24 9.66699 -43 29 -57s43.666 -21 72.999 -21c40.667 0 74.167 10.333 100.5 31s39.5 47.334 39.5 80.001z" />
    <glyph glyph-name="atilde.alt" horiz-adv-x="671" 
d="M294 -11c-66 0 -123.333 24.833 -172 74.5s-73 116.167 -73 199.5v2c0 84 24.167 150.667 72.5 200s105.833 74 172.5 74c72.667 0 132.667 -31 180 -93v82h121v-528h-121v88c-46.667 -66 -106.667 -99 -180 -99zM323 94c42 0 78 15.833 108 47.5s45 72.167 45 121.5v2
c0 49.333 -15 89.833 -45 121.5s-66 47.5 -108 47.5c-42.667 0 -78.667 -15.333 -108 -46s-44 -71.667 -44 -123v-2c0 -50 14.833 -90.667 44.5 -122s65.5 -47 107.5 -47zM223 585l-67 21c11.333 42.667 25.5 74 42.5 94s40.167 30 69.5 30c20 0 46.333 -6.66699 79 -20
s54.334 -20 65.001 -20c13.333 0 23.833 3.66699 31.5 11s15.5 20.333 23.5 39l67 -20c-11.333 -42.667 -25.5 -74.167 -42.5 -94.5s-40.167 -30.5 -69.5 -30.5c-20 0 -46.333 6.66699 -79 20s-54.334 20 -65.001 20c-13.333 0 -23.833 -3.66699 -31.5 -11
s-15.5 -20.333 -23.5 -39z" />
    <glyph glyph-name="three.alt" horiz-adv-x="610" 
d="M311 -12c-110 0 -200.669 40.667 -272.002 122l85 79c53.333 -60 116.333 -90 189 -90c38 0 68.333 9.16699 91 27.5s34 42.833 34 73.5v2c0 32 -13.5 56.5 -40.5 73.5s-64.833 25.5 -113.5 25.5h-75v104h78c40 0 72 9.16699 96 27.5s36 42.5 36 72.5v2
c0 28 -10.833 50.667 -32.5 68s-51.167 26 -88.5 26c-56 0 -109 -29.333 -159 -88l-86 70c32.667 42 68.334 74 107.001 96s85.334 33 140.001 33c72 0 130.167 -17.5 174.5 -52.5s66.5 -79.833 66.5 -134.5v-2c0 -75.333 -34.667 -130 -104 -164
c82 -31.333 123 -84 123 -158v-2c0 -61.333 -22.5 -111.833 -67.5 -151.5s-105.5 -59.5 -181.5 -59.5z" />
    <glyph glyph-name="registered.alt" horiz-adv-x="830" 
d="M414 -12c-100.667 0 -186 35.167 -256 105.5s-105 155.166 -105 254.499v2c0 99.333 35.333 184.5 106 255.5s156.334 106.5 257.001 106.5s186 -35.167 256 -105.5s105 -155.166 105 -254.499v-2c0 -99.333 -35.333 -184.5 -106 -255.5s-156.334 -106.5 -257.001 -106.5
zM414 24c92 0 169.167 31.833 231.5 95.5s93.5 140.5 93.5 230.5v2c0 90 -31 166.5 -93 229.5s-138.667 94.5 -230 94.5c-92 0 -169.167 -31.833 -231.5 -95.5s-93.5 -140.5 -93.5 -230.5v-2c0 -90 31 -166.5 93 -229.5s138.667 -94.5 230 -94.5zM269 171v379h169
c50 0 88.333 -13.333 115 -40c20.667 -20.667 31 -47.334 31 -80.001v-2c0 -29.333 -7.83301 -53.666 -23.5 -72.999s-37.167 -33 -64.5 -41l102 -143h-86l-92 131h-79v-131h-72zM341 365h94c23.333 0 41.666 5.33301 54.999 16s20 25 20 43v2
c0 18.667 -6.66699 33.167 -20 43.5s-31.666 15.5 -54.999 15.5h-94v-120z" />
    <glyph glyph-name="NUL" horiz-adv-x="0" 
 />
    <glyph glyph-name="hfjslug" horiz-adv-x="694" 
d="M644 -200h-208l-8 14h-163l-8 -14h-207v303c9.33301 0 17 3.16699 23 9.5s9 13.833 9 22.5s-3.16699 16.167 -9.5 22.5s-13.833 9.5 -22.5 9.5v554h100l30 79h334l29 -79h101v-921zM400 563v-172h15v78h38v14h-38v66h43v14h-58zM184 563v-172h15v79h47v-79h15v172h-15
v-79h-47v79h-15zM460 394c6.66699 -2.66699 13.667 -4 21 -4c20.667 0 31 12 31 36v137h-16v-137c0 -14.667 -5.33301 -22 -16 -22c-5.33301 0 -12 1.66699 -20 5v-15zM371 465l-13 3c-2.66699 -12 -5.33398 -22 -8.00098 -30h-1l-16 31c15.333 14 23 28 23 42
c0 20.667 -9 31 -27 31c-8 0 -14.667 -3 -20 -9s-8 -13.333 -8 -22s4.66699 -21.667 14 -39c-15.333 -12 -23 -27.667 -23 -47c0 -10.667 2.66699 -19.5 8 -26.5s12.333 -10.5 21 -10.5c12.667 0 22.334 8 29.001 24h1l12 -24l12 6l-17 32c4 9.33301 8.33301 22.333 13 39z
M523 323v-46h8v12l8 8l15 -20h10l-20 26l18 20h-10l-20 -24h-1v24h-8zM488 292l10 -15.001h9l-12 17c6.66699 2.66699 10 7.33398 10 14.001c0 10 -5.66699 15 -17 15h-20v-46h8v15h12zM426 275.999c6.66699 0 12.334 2.33301 17.001 7s7 10.334 7 17.001
c0 6 -2.33301 11.5 -7 16.5s-10.334 7.5 -17.001 7.5s-12.334 -2.5 -17.001 -7.5s-7 -10.5 -7 -16.5c0 -6.66699 2.33301 -12.334 7 -17.001s10.334 -7 17.001 -7zM370 300.999l-13 22h-9l18 -29v-17h8v17l18 29h-9zM193 322.999v-46h34v7h-26v13h23v7h-23v12h26v7h-34z
M132 322.999v-46h8v32l25 -32h7v46h-8v-32l-25 32h-7zM241 322.999l14 -47h8l11 34h1l11 -34h8l14 47h-8l-10 -35h-1l-11 35h-7l-11 -35h-1l-10 35h-8zM327 478.999c-8 14.667 -12 25.333 -12 32c0 12.667 4.66699 19 14 19c8.66699 0 13 -6.33301 13 -19
c0 -10 -5 -20.667 -15 -32zM342 422.998c-5.33301 -14 -12 -21.001 -20 -21.001c-10.667 0 -16 8.33301 -16 25c0 12.667 5.33301 24.334 16 35.001zM487 298.997h-11v17h11c6.66699 0 10 -2.66699 10 -8c0 -6 -3.33301 -9 -10 -9zM426 282.997
c-10.667 0 -16 5.66699 -16 17c0 4 1.5 7.83301 4.5 11.5s6.83301 5.5 11.5 5.5s8.5 -1.83301 11.5 -5.5s4.5 -7.5 4.5 -11.5c0 -11.333 -5.33301 -17 -16 -17z" />
    <glyph glyph-name="i.dot" horiz-adv-x="286" 
d="M78 609v115h130v-115h-130zM83 0v528h121v-528h-121z" />
    <glyph glyph-name="caron.alt" 
d="M203 540l12 190h94v-3l-56 -187h-50z" />
    <glyph glyph-name="acute.cap" 
d="M157 758l112 145l110 -48l-128 -97h-94z" />
    <glyph glyph-name="hungarumlaut.cap" 
d="M56 758l112 145l106 -48l-127 -97h-91zM231 758l112 145l106 -48l-127 -97h-91z" />
    <glyph glyph-name="grave.cap" 
d="M229 903l113 -145h-95l-127 97z" />
    <glyph glyph-name="circumflex.cap" 
d="M72 758l121 135h114l121 -135h-102l-77 58l-77 -58h-100z" />
    <glyph glyph-name="caron.cap" 
d="M428 893l-121 -135h-114l-121 135h102l77 -57l77 57h100z" />
    <glyph glyph-name="breve.cap" 
d="M250 756c-48.667 0 -88.667 11.833 -120 35.5s-49 56.5 -53 98.5h86c12.667 -33.333 41.667 -50 87 -50s74.333 16.667 87 50h86c-4 -42 -21.667 -74.833 -53 -98.5s-71.333 -35.5 -120 -35.5z" />
    <glyph glyph-name="tilde.cap" 
d="M126 748l-67 21.001c11.333 41.333 25.5 72.166 42.5 92.499s40.167 30.5 69.5 30.5c20 0 47 -6.5 81 -19.5s56 -19.5 66 -19.5c14 0 24.833 3.66699 32.5 11s15.167 19.666 22.5 36.999l68 -20c-12 -41.333 -26.5 -72.166 -43.5 -92.499s-39.833 -30.5 -68.5 -30.5
c-20 0 -47 6.5 -81 19.5s-56 19.5 -66 19.5c-14 0 -24.833 -3.66699 -32.5 -11s-15.5 -20 -23.5 -38z" />
    <glyph glyph-name="macron.cap" 
d="M71 769v90h359v-90h-359z" />
    <glyph glyph-name="dieresis.cap" 
d="M291 758v112h124v-112h-124zM85 758v112h125v-112h-125z" />
    <glyph glyph-name="dotaccent.cap" 
d="M186 758v112h128v-112h-128z" />
    <glyph glyph-name="ring.cap" 
d="M131 862c0 30 11.667 55 35 75s51.333 30 84 30s60.667 -10 84 -30s35 -45 35 -75c0 -30.667 -11.667 -56 -35 -76s-51.333 -30 -84 -30s-60.667 10 -84 30s-35 45.333 -35 76zM186 862c0 -16.667 6 -30.667 18 -42s27.333 -17 46 -17s34.167 5.66699 46.5 17
s18.5 25.333 18.5 42c0 16 -6.16699 29.667 -18.5 41s-27.833 17 -46.5 17s-34 -5.66699 -46 -17s-18 -25 -18 -41z" />
    </font>
</defs>
</svg>
